<svg xmlns="http://www.w3.org/2000/svg" viewBox="0 0 549.69 772.19"><g id="Layer_2" data-name="Layer 2"><g id="OBJECT"><path d="M515.84,775.27a7,7,0,0,1-2.76-.67c-1.42-.62-2.8-1.33-3.85-1.89a108.49,108.49,0,0,1-14.11-9.5l-1.77-1.34c-14-10.46-28-23.46-44-40.9C438,708.65,428,694.84,418.65,681.75l-.09-.13a4.37,4.37,0,0,0-2.43-2l-5.27-1.88,2.88,4.79.6,1c.35.59.62,1,.91,1.5,7.31,11.21,15.35,23.11,24.7,34.24A367.84,367.84,0,0,0,469,750a10.76,10.76,0,0,1,2.55,3.27,96.32,96.32,0,0,1,4.64,12.44,8.4,8.4,0,0,1,.43,3.52c-.19,1.26-.68,1.59-1.46,1.74l-1.08.23L468,769.34a15.54,15.54,0,0,0-3.15-2c-.59-.3-1.15-.59-1.65-.91a109.71,109.71,0,0,1-18.39-15.09c-4.37-4.39-8.5-9.19-12.49-13.83l-1.7-2c-11.18-13-20.82-26.31-32.26-42.41a1.3,1.3,0,0,0-.1-.15,4.16,4.16,0,0,0-2.11-1.84l-4.48-1.78,1.9,4.42a29,29,0,0,0,2.81,4.89l.85,1.28c7.35,11.51,16,24.81,26.27,37l.16.19a8.67,8.67,0,0,1,1.25,1.71A117,117,0,0,1,431,753.37c-7.92-7.07-14.2-15.23-19.33-22.33-7-9.76-13.58-18.24-20-25.94-5.79-6.93-11.37-13.79-15.91-21.54-1.2-2-2.36-4.18-3.49-6.25l-1.68-3.06a28.06,28.06,0,0,0-5.46-7.34l-2.75,1.82c-1.07-1.33-2.12-2.68-3.16-4-1.51-1.93-3.08-3.94-4.68-5.87a50.59,50.59,0,0,0-8-7.85l1.29.35a43.13,43.13,0,0,1,9.64,4,39.3,39.3,0,0,1,7.75,6.35l.28.27,3.22-2.24a20.9,20.9,0,0,0-8-8.82c-3.67-2.42-7.64-3.69-12.07-5a116,116,0,0,0-14.74-3c-1.65-.26-3.29-.52-4.93-.8a24.77,24.77,0,0,1-4.67-1.22,5.06,5.06,0,0,1-.71-.32l.36-.3c4.41-3.4,8.66-5.05,13-5.05a18.68,18.68,0,0,1,4.52.58,68.86,68.86,0,0,0,17.08,2.35c.51,0,1,0,1.51,0a39.8,39.8,0,0,0,9.85-1.22l-.38-3.92c-1.42-.13-2.84-.18-4.22-.24-.77,0-1.55-.06-2.32-.11a92.73,92.73,0,0,1-25.3-4.57l-.71-.23a7.76,7.76,0,0,1-2.09-.89A29.44,29.44,0,0,0,321,621.53a49,49,0,0,0-6.85-.58,22.45,22.45,0,0,0-8.85,1.65c-2.29,1-4.54,2-6.72,3.1L296,626.93a2.51,2.51,0,0,0-1.42,2.89l.1.44.28.36a2.76,2.76,0,0,0,.78.67c-.22.28-.45.55-.68.83s-.59.72-.88,1.09c-.44-.23-.85-.45-1.23-.68a120.46,120.46,0,0,0-12.57-6.82l-1.87-.91c-9-4.38-18.39-8.91-27.19-14-19.14-11.19-37.16-25.7-56.71-45.66-5.22-5.33-10.62-10.84-17.7-14.61l-2.5-1.3-1.19-.61-2.31,3-.34-.18c-7.58-4.09-15.42-8.31-22.15-13.85-2.92-2.4-5.86-4.88-8.7-7.28-4.74-4-9.65-8.15-14.63-12.07A15.24,15.24,0,0,1,123,516a95.8,95.8,0,0,0-13.26-12.71A74.47,74.47,0,0,1,90.89,481.2a174.3,174.3,0,0,0-15.34-22.72c-7-8.77-11.89-16.37-15.27-23.92-2.39-5.32-4.91-11.71-5.53-18.79A70.85,70.85,0,0,0,50.6,397a30.87,30.87,0,0,1-1.49-5.17c-1-5.32-2.41-10.56-3.8-15.64-.46-1.66-.92-3.33-1.36-5A29,29,0,0,0,41.16,364a14.3,14.3,0,0,0,5.35-.94l6.7-2.75L46,359.28a15.81,15.81,0,0,0-2.11-.16q-.45,0-.9,0c-3-.18-5.64-.35-8-1.66-1.15-.65-2.33-1.24-3.47-1.81l-1.37-.68a2.53,2.53,0,0,0-2.66-2.38,4.85,4.85,0,0,0-.64.05l-.21,0-2.15.11c-4.25.22-8.65.45-13,.73a23,23,0,0,0-8.37,2l.61-2a7.11,7.11,0,0,0,1.37-1.59c2.85-4.24,7.06-7,14.08-9.22a6.09,6.09,0,0,1,1.93-.26c.63,0,1.29.06,2,.11s1.3.1,2,.12l4.57.11-3-3.43a5,5,0,0,0-2.17-1.39,6,6,0,0,1,2.42-1.74c6.15-2,10.57-6.07,15.3-10.76,7.09-7,15.52-10.6,25.05-10.6a44.58,44.58,0,0,1,8.65.89l.76.15c3.66.72,7.44,1.47,11,2.52A84.73,84.73,0,0,1,109.25,328c5.59,3.54,11,7.54,16.29,11.42l.25.19c10.3,7.59,21.86,15.43,36.37,24.68l3.34,2.14c6.64,4.26,13.51,8.66,20.69,12.38a101.73,101.73,0,0,0,12.58,5.72,23,23,0,0,0,7.65,1.36h.36l-.82.95a21.93,21.93,0,0,0-1.64,2l-2.46,3.58,4.32-.46a5.71,5.71,0,0,0,2.89-1.28,4.37,4.37,0,0,1,.44-.31c7.12-4.61,13.25-11,18.76-19.42a463.21,463.21,0,0,0,24.2-42.58A329.43,329.43,0,0,0,266.38,297q1.71-4.41,3.4-8.83c2.72-7.08,5.53-14.39,8.39-21.53,6.75-16.83,13.39-31.55,20.28-45A64.14,64.14,0,0,1,313,202.31c7.6-6.72,15.05-13.82,22.25-20.68,6.48-6.18,13.18-12.58,20-18.65,18.06-16.18,36.42-31.46,52-44.26,20.62-17,41.94-36.08,67.12-60.21l8.59-8.24c9.29-8.9,18.9-18.1,28.29-27.21A199.94,199.94,0,0,0,527.1,6.23c-1.74,6.91-4.9,13.9-10,22.16-5.38,8.74-12.29,17.34-21.76,27.05Q489.93,61,484.47,66.52c-9.35,9.47-19,19.27-28.16,29.3a6.81,6.81,0,0,0-1.78,3l-1.63,6.55,7.38-6.87c1.78-1.65,3.56-3.3,5.33-5l2-1.86c2.66-2.5,5.42-5.09,8.08-7.7a60.18,60.18,0,0,1,8.66-6.92c2.26-1.55,4.51-3.18,6.68-4.75,3.08-2.23,6.26-4.54,9.5-6.62a188,188,0,0,1,22.08-11.78c7.9-3.71,16-7.94,24.13-12.61a248.9,248.9,0,0,1-29.93,36.3c-16,15.86-34.1,31.64-58.57,51.18-6.65,5.31-13.47,10.62-20.07,15.76L428,152.46l-.13.08a3.54,3.54,0,0,0-1.69,2.23l-.68,2.92,3-.48a6,6,0,0,0,2.54-1.16l.29-.19c16.45-10.89,33.12-23.19,50.94-37.62,9.75-7.9,19.13-16,27.88-24.22a10.59,10.59,0,0,1,3.13-2c11.07-4.8,21.37-8.77,31.48-12.14,2.5-.83,5-1.79,7.37-2.71l.79-.31c-8.16,13.48-16.59,24.47-25.72,33.52a371.61,371.61,0,0,1-30.79,27.06C484.11,147.22,471.3,156,458.16,165l2.08,3.41,2.38-1.29c1.75-.94,3.5-1.89,5.23-2.86a292.52,292.52,0,0,0,34.22-22.52c7.58-5.78,14.89-11.92,21.72-18.24,1-.92,1.53-1.35,2.17-1.35a2.17,2.17,0,0,1,.41,0,3.8,3.8,0,0,0,.84.08,7.94,7.94,0,0,0,2.49-.51c7-2.31,12.77-4.68,17.88-8.73l.51-.39c-.26.48-.51,1-.76,1.45-4.47,8.58-9.1,17.46-14.32,25.77a133.12,133.12,0,0,1-30.64,33.71c-13.75,10.91-29.49,20.43-49.52,30-10.15,4.82-19.62,9.08-29,13a4.44,4.44,0,0,0-2.19,1.84L419,222.83l5-1.53.65-.2c.51-.15,1-.3,1.51-.47A332,332,0,0,0,481.5,196a193.84,193.84,0,0,0,25.78-17.38,6.87,6.87,0,0,1,3.48-1.5c1.68-.24,3.32-.63,4.91-1l2.11-.49c.23,0,.46-.1.69-.15a10.66,10.66,0,0,1,1.62-.31l.37,0c.6,0,.9,0,1.08,1.18a10.11,10.11,0,0,1-.45,4.08,74.74,74.74,0,0,1-10.74,23.18,91.41,91.41,0,0,1-31.72,29c-9.31,5.17-19.74,9.5-32.84,13.63-15.37,4.85-31.25,9-46.61,13l-5.09,1.34a7,7,0,0,0-3.09,1.53l-5.12,4.64,8.23-1.44,2.88-.5c17-3.1,29.95-5.9,42-9.06,17.94-4.72,32-10.11,44.22-17A103.22,103.22,0,0,0,500,227.14a8.4,8.4,0,0,0,.79-.79c.15-.16.36-.39.49-.51,1.65.62,2.49,1.35,2.83,2.45a10.41,10.41,0,0,1,0,5.66,36.86,36.86,0,0,1-4.68,11.13c-6,9.9-14.5,18.53-25.92,26.38-12.32,8.47-26.1,14.48-39.15,19.71-2.84,1.14-5.78,2.22-8.62,3.27l-4.05,1.5-1.63.62.39,1.7a2.3,2.3,0,0,0,2.25,1.87,2.7,2.7,0,0,0,1-.2c18.35-4.25,34-10.25,47.82-18.33a104.14,104.14,0,0,0,11.09-7.32,3.72,3.72,0,0,1,2.39-.88,34.84,34.84,0,0,0,3.76-.32c.61-.08,1.22-.15,1.84-.21l.6,0a2.18,2.18,0,0,1,1.48.4,3,3,0,0,1,.39,2.09,7.69,7.69,0,0,1-.72,2.58,50.06,50.06,0,0,1-10.7,15c-9.07,9.14-19.95,15.72-33.27,20.11-12.55,4.15-26.22,6.29-41.78,6.55l-5.7.11,2.25,3.1a3.15,3.15,0,0,0,2.7,1.31h.48c4.46.28,8.41.42,12.1.42a112.13,112.13,0,0,0,18.31-1.38,103.37,103.37,0,0,0,30.45-10.06,3.11,3.11,0,0,1,1.26-.44c.09,0,.32,0,.79.39a14.37,14.37,0,0,0,2.53,1.59c.42.22.85.44,1.25.7A2.62,2.62,0,0,1,474.2,318a8.81,8.81,0,0,1-.82,3.28c-4.79,10.39-12.08,17.49-22.3,21.71a140.11,140.11,0,0,1-27.1,8c-8.44,1.64-17.26,2.88-27,3.81l-2.74.26,1.1,2.53a2.7,2.7,0,0,0,2.53,1.72,3.76,3.76,0,0,0,.8-.09h.06a203.15,203.15,0,0,0,34.27-3,81,81,0,0,0,12.7-3.19,3.83,3.83,0,0,1,1.19-.26,1.6,1.6,0,0,1,1.06.41,14,14,0,0,0,4.86,2.18c.5.15,1,.29,1.48.46a11.73,11.73,0,0,1,2.07.87,12.14,12.14,0,0,1-1.2,2c-7.42,10.61-17.82,16.42-31.78,17.76-4.15.4-8.55.6-13.48.6-3.82,0-7.94-.12-13.35-.37l-4.29-.21c-3-.16-6.17-.32-9.28-.41l-.5,4c5,1.13,9.94,1.82,13.7,2.29a171.21,171.21,0,0,0,21.19,1.44h2.07a2.57,2.57,0,0,1,.89.1l5.32,2.27c4.39,1.86,8.77,3.73,13.16,5.57,2.73,1.15,5.52,2.25,8.21,3.31l.29.11a23.76,23.76,0,0,1,6.51,3.62c2.75,2.24,3,4.14.85,7a15,15,0,0,1-4.55,3.86,53.91,53.91,0,0,1-16.94,6.21A126.24,126.24,0,0,1,407,418.49c-1.21,0-2.42,0-3.63-.05h-.28a6.28,6.28,0,0,0-1.9.26l-6.57,2.05,6.64,1.79A37,37,0,0,0,411,423.8h1c2.59,0,4.21.88,6.18,3.37A125.06,125.06,0,0,1,432,449.63a15.83,15.83,0,0,1,1.8,9,5.76,5.76,0,0,1-3,4.61,15,15,0,0,1-7.95,2,27.18,27.18,0,0,1-4.12-.33c-7.7-1.14-14.58-4.89-20.42-8.31a120.33,120.33,0,0,1-18.68-14c-9.08-8-17-15.35-24.14-22.51a3.11,3.11,0,0,0-2.12-.92l-4-.21,2.21,3.32c.11.15.21.31.31.47.26.4.52.81.82,1.19,12,15.63,24.2,27.52,37.31,36.34a78.34,78.34,0,0,0,15.49,8.41c.77.3,1,.48,1.08.7,2.74,6,4,11.07,4,16a17.84,17.84,0,0,1-.28,3.51c-.44,2.23-1.45,3.08-3.69,3.13h-.64a27.54,27.54,0,0,1-11-2.37c-7.1-3-13.86-7.54-21.9-14.67-6.2-5.51-12-11.65-17.65-17.6l-4.29-4.5a56.67,56.67,0,0,0-4.18-4.06l-3.09,2.4a29.31,29.31,0,0,0,3.59,5.34l.59.76a221.75,221.75,0,0,0,16.86,19.86,91.2,91.2,0,0,0,17.75,14,9.46,9.46,0,0,1,3.33,3.29,30.12,30.12,0,0,1,4.24,10.62A10.54,10.54,0,0,1,390,510c-.88,2.93-2.54,4.24-5.59,4.38h-.6a22.13,22.13,0,0,1-8.6-2.19c-6.49-2.78-12.94-6.6-20.89-12.39l-2.19-1.59-.88,2.55a2.8,2.8,0,0,0,1.27,3.43l.09.07c4.07,3.7,8.74,7.95,14.12,11.22a3.63,3.63,0,0,1,1.67,2.29,31.15,31.15,0,0,1,1,7.27v.22a1.41,1.41,0,0,1-.3-.11,17.58,17.58,0,0,1-2.3-1.31c-.44-.28-.88-.56-1.33-.82-10.72-6.26-19.57-14.87-29.21-24.66-4.84-4.91-10-10.31-16.12-17L317,483.74c1.67,2.65,3.49,5.21,5.36,7.7-7.49-4.63-15.42-8.79-24-13.22a124,124,0,0,1-30.47-22c-.8-.78-1.63-1.51-2.44-2.22l-.16-.14a2.23,2.23,0,0,0-1.52-.54h-.3l-3.57-.18,1.67,3.13a15.51,15.51,0,0,0,2.33,3.06l.38.42a110,110,0,0,0,31.22,24c11,5.75,21.76,11.47,32,18.18a67.75,67.75,0,0,1,12,9.73,94.21,94.21,0,0,0,19,15.39,12.53,12.53,0,0,1,3.61,3.35,56.85,56.85,0,0,1,7.83,13.17,37,37,0,0,0,5.49,9.21,89.16,89.16,0,0,0,16,16.38,2.68,2.68,0,0,0,1.76.67,3,3,0,0,0,1-.16l2.91-1-2.1-2.26c-1.39-1.5-2.82-3-4.24-4.45-6.34-6.59-12.36-12.84-16-21,4.79-1,8.66-3.39,12.43-5.74l.55-.35c4-2.48,8.09-4.93,12.07-7.31,1.85-1.1,3.7-2.2,5.55-3.32l2.27-1.36c8.53-5.15,17.35-10.46,26.36-15,10.75-5.47,20.18-8.6,29.68-9.85a76,76,0,0,1,9.89-.66,65.73,65.73,0,0,1,20.17,3.11,6.46,6.46,0,0,1,2,.9,6.65,6.65,0,0,1-1.41,1.83,58.77,58.77,0,0,1-12.6,9.61c-2.91,1.71-5.89,3.41-8.77,5.06-2,1.17-4.11,2.34-6.15,3.52a19.4,19.4,0,0,1-5.29,2,226.49,226.49,0,0,0-44.36,15.67,3.59,3.59,0,0,0-1.75,1.74l-1.94,4.11,4.34-1.34.78-.23c.59-.17,1.21-.35,1.83-.59l5.47-2c6-2.27,12.28-4.62,18.5-6.66,18.68-6.11,35.89-9.24,52.62-9.58,1,0,2,0,3,0a45.82,45.82,0,0,1,14.14,1.8,18,18,0,0,1,7.08,4,5.28,5.28,0,0,1,1.57,5.66c-1,3.6-3.19,6.75-7,9.9a71.69,71.69,0,0,1-8.94,6.25A156.33,156.33,0,0,1,476.41,566c-5.35,1.79-10.88,3.39-16.23,4.94-2.9.85-5.81,1.69-8.71,2.56a7.27,7.27,0,0,0-3.14,1.67l-5,4.82,6.8-1.43,2-.41c1.48-.3,3-.61,4.53-1l1.86-.46c10.5-2.61,21.36-5.3,31.67-9.47a6.24,6.24,0,0,1,2.34-.37c1.11,0,2.21,0,3.32,0a114,114,0,0,1,21,1.72c8.35,1.55,14.87,3.78,20.5,7a12.1,12.1,0,0,1,3.37,2.59c.93,1.08.92,1.63-.05,2.67a15.93,15.93,0,0,1-3.46,2.73,141.48,141.48,0,0,1-45.62,18.3,178,178,0,0,1-36.23,3.34c-2.31,0-4.73,0-7.19-.1h-.45a7.75,7.75,0,0,0-1.91.21l.17,3.91a93.19,93.19,0,0,0,11.48,1c2.21.09,4.47.14,6.72.14,3.14,0,6.39-.09,9.64-.27h.46a13.67,13.67,0,0,1,3.53.55,134.22,134.22,0,0,1,35.44,15.49c12.14,7.4,21.66,16,29.11,26.17a31.85,31.85,0,0,1,5.37,11,15.88,15.88,0,0,1,.58,5.28c-.21,2.56-1.1,3.57-3.63,4.12a15.71,15.71,0,0,1-3.32.35,18.3,18.3,0,0,1-2.72-.21,40.39,40.39,0,0,1-10.07-2.66c-1.81-.76-3.67-1.41-5.46-2-1.52-.53-3.1-1.08-4.6-1.68-10-4-21.33-8.6-32.22-13.81-14-6.68-28.76-14.32-47.84-24.77a3.52,3.52,0,0,0-.82-.3l-3-.88.34,3.05a3.2,3.2,0,0,0,2,2.5l.19.09c14.87,9.79,31.68,19.09,52.91,29.27a153.16,153.16,0,0,0,14.31,6.16,8.91,8.91,0,0,1,3.09,1.85,117.83,117.83,0,0,1,29.24,41.69,21.26,21.26,0,0,1,2,8l-.45,1.48a4.47,4.47,0,0,1-2,.43,13.27,13.27,0,0,1-4-.86,115.49,115.49,0,0,1-15.45-6.18A214.85,214.85,0,0,1,475.4,687c-7-5.76-13.86-12-20.47-18.06-2-1.82-4-3.64-6-5.45-1.79-1.62-3.61-3.22-5.43-4.82l-3.92-3.46-1.68,1.68-1.42,1.39,1.38,1.43.63.66q.74.78,1.5,1.53l6.76,6.51q5.54,5.34,11.07,10.7c11.73,11.41,22.2,20,33,27a36.71,36.71,0,0,1,8.61,8,97.17,97.17,0,0,1,19.48,40.4c1,4.52,2,10.48.87,16.54C519.42,773,518.44,775.27,515.84,775.27ZM22.14,347.13c-4.09.27-8.31.55-12.32,2.56l1.58,3.66a25.65,25.65,0,0,1,6-1.13,29.08,29.08,0,0,0,6.88-1.31L23.52,347ZM63.7,320.88a7,7,0,0,0-2,.29,10.76,10.76,0,0,0-7.52,7.13,8.8,8.8,0,0,0,2,9.3,8.66,8.66,0,0,0,6.29,2.71,10.14,10.14,0,0,0,2.29-.27,8,8,0,0,0,6.18-7.51l.35-6.36-3.92,5c-.24.3-.46.6-.67.87a13.51,13.51,0,0,1-1.06,1.32,4.4,4.4,0,0,1-.85.7A4.48,4.48,0,0,0,66,331.94a4.77,4.77,0,0,0-.26-2.93,3.56,3.56,0,0,0-2.35-2.13,2.84,2.84,0,0,0-.72-.09,3.87,3.87,0,0,0-2.21.77,5.46,5.46,0,0,1,3.83-1.71,4.56,4.56,0,0,1,1.16.15,2.79,2.79,0,0,0,3.3-.31L71,323.86l-2.52-1.46A9.72,9.72,0,0,0,63.7,320.88Z" transform="translate(-3.21 -3.08)"/><path d="M208.38,380.4l1.89-3.28c1.26-2.18,2.57-4.44,3.78-6.71a214.22,214.22,0,0,0,13.69-31.33c4.46-13,7-26,8.85-37,1.08-6.31,1.87-12.73,2.64-18.95.42-3.39.85-6.89,1.32-10.32,1.85-13.4,6.84-24.45,15.26-33.8l1.55-1.72c4.53-5,9.23-10.24,13.75-15.46,9.91-11.44,19-23.86,26.75-34.6,9.57-13.28,20.81-28.65,33-42.89q2-2.34,4-4.65c4.45-5.17,9.05-10.52,13.32-16,11.27-14.54,24.64-31.74,38.38-49.12a502.38,502.38,0,0,1,44.08-48.38c5.53-5.38,11.22-10.8,16.71-16l4-3.82c1.15-1.09,2.33-2.16,3.5-3.2a27.6,27.6,0,0,1-1.72,5,264.39,264.39,0,0,1-36.66,59.59c-8.08,9.94-15,17.73-21.63,24.49-3.86,3.91-8,7.72-12,11.4-1.81,1.66-3.62,3.33-5.41,5l-.78.73c-10.15,9.52-20.65,19.36-31.24,28.74l-.25.21a6.07,6.07,0,0,0-2,2.6l-2.42,6.07,5.4-3.67.92-.62c.57-.38,1-.69,1.5-1a448.14,448.14,0,0,0,39.59-33.11C409,89,431.9,69.41,462.32,45c6.45-5.18,13.17-10.89,20.57-17.46,5.9-5.25,12.21-10.26,18.31-15.1l.37-.3c-.23.64-.5,1.3-.82,2-1.1,2.42-2.42,4.81-3.7,7.12s-2.62,4.73-3.76,7.22a32.05,32.05,0,0,1-7.47,9.87c-36.66,35-67.52,62.51-97.13,86.43-15.26,12.34-30.51,25.51-45.31,39.14-4.82,4.44-9.65,9-14.31,13.42-6.76,6.4-13.74,13-20.79,19.3-6.82,6.1-12.55,13.87-17.53,23.78-5.57,11.11-10.95,22.78-16,34.7-3.54,8.39-7.08,17.35-11.17,28.19A442.42,442.42,0,0,1,230.24,353c-.85,1.43-1.68,2.86-2.52,4.3a140.55,140.55,0,0,1-10.28,16c-.46.59-.95,1.16-1.43,1.74-.75.88-1.52,1.8-2.23,2.79C212.53,379.54,210.76,380.16,208.38,380.4Z" transform="translate(-3.21 -3.08)"/><path d="M326,683.91a11.89,11.89,0,0,1-5.94-6.17c-.69-1.57-1.36-3.3-2.12-5.44a22.66,22.66,0,0,0-4.64-7.82c-.6-.65-1.18-1.3-1.77-2-1.38-1.56-2.81-3.16-4.39-4.63a23,23,0,0,1-6.09-9.1c-.13-.35-.28-.7-.45-1.09l-.24-.55-3.84.7c-.08,2.47.38,3.81,1.56,6.5a11.24,11.24,0,0,0,.81,1.54l-1.86.4.77,2.15a4.39,4.39,0,0,0,2,2.23,3.13,3.13,0,0,1,.3.2c1.16.87,2.32,1.72,3.49,2.57s2.57,1.88,3.85,2.85a15.7,15.7,0,0,1,5.37,7.4c.55,1.53,1.16,3,1.74,4.53l.29.72a9.11,9.11,0,0,1-1-.51q-6-3.48-12-6.92a10.74,10.74,0,0,1-5.41-7.22c-.44-1.86-.91-3.72-1.39-5.57l-.58-2.3c-.9-3.57-.8-6.49.3-8.94,1-2.13,1.73-4.3,2.47-6.39.39-1.12.79-2.23,1.21-3.34a18,18,0,0,1,7.33-8.92,13.8,13.8,0,0,1,7.42-1.74c.77,0,1.6,0,2.54.1a22.8,22.8,0,0,1,5.31.93,21.8,21.8,0,0,0-4.67,5.59,5.81,5.81,0,0,0,.61,7.29,34.14,34.14,0,0,0,7.68,7.12c2.23,1.42,4.54,3.07,7.48,5.35a11.44,11.44,0,0,1,2.09,2.08,12,12,0,0,0-1.39-.43c-3.83-.94-7.12-3.2-10.34-7.12-.42-.51-.85-1-1.28-1.49s-.86-1-1.27-1.48a6.12,6.12,0,0,0-3.95-2.1,6.8,6.8,0,0,0-.89-.07,4.47,4.47,0,0,0-3.94,2.2,5.15,5.15,0,0,0-1.14-.92l-2.25-1.35-.7,2.53a3.52,3.52,0,0,0,.64,3l.92,1.47c1.69,2.68,3.44,5.45,5.22,8.15,4.9,7.44,8,13.88,9.69,20.26A20.06,20.06,0,0,0,326,683.91Z" transform="translate(-3.21 -3.08)"/><path d="M320.71,636.38c0-.08.08-.16.13-.24a12.8,12.8,0,0,1,5.44-5.22l.26-.12.34-.17c.69.3,1.37.55,2,.8l.35.13A24.49,24.49,0,0,0,320.71,636.38Z" transform="translate(-3.21 -3.08)"/><path d="M290.35,649.79c.48,7.91,1.6,15.7,6.18,22.79-1.82.12-2.91-.9-4-1.83a7.61,7.61,0,0,1-2.41-4.25c-.7-3.23-1.37-6.47-1.91-9.73a8.23,8.23,0,0,1,1.18-6.5C289.62,650,289.81,649.69,290.35,649.79Z" transform="translate(-3.21 -3.08)"/><path d="M328.16,665.26c-2.34-.85-4.55-1.67-5.87-3.49A23.2,23.2,0,0,1,328.16,665.26Z" transform="translate(-3.21 -3.08)"/><path d="M331.34,679.29a11.05,11.05,0,0,1-2.11-.69c-.34-.15-.4-.33-.42-.42l0-.11c-.21-.72-.43-1.45-.64-2.18a11.93,11.93,0,0,1,2,2.06A11.17,11.17,0,0,0,331.34,679.29Z" transform="translate(-3.21 -3.08)"/></g></g></svg>