<svg xmlns="http://www.w3.org/2000/svg" viewBox="0 0 1133.55 745.12"><g id="Layer_2" data-name="Layer 2"><g id="OBJECT"><path d="M598.44,397.32c-1,0-1.65-.34-2-2-.71-3.16-1.56-6.3-2.22-8.69a81.87,81.87,0,0,0-4.93-12.83,3.39,3.39,0,0,1,.12-3.79c6.79-10.17,9.91-22.13,9.54-36.58-.09-3.59.94-5.63,3.83-7.49,4.92-3.2,8.67-7.69,12.3-12l2.19-2.61c7.8-9.13,16.52-18.5,27.44-29.49,18.27-18.38,33.46-33.34,47.81-47.1,16.7-16,35.87-32.37,60.33-51.5A972,972,0,0,1,843.74,120a631.4,631.4,0,0,1,175.47-72c20-4.72,38.11-7.19,55.21-7.55,2,0,4.08-.07,6.11-.07,13.46,0,24.28,1.16,34,3.66a44.66,44.66,0,0,1,10.82,4.19c4.29,2.38,6.88,5.18,8.15,8.8V66.9c-2.37,11.63-8.33,21.72-14.22,31.05-7.56,12-14.88,23.77-21.25,36.39-10.94,21.69-15,45.76-12.19,71.55l.32,2.88c.61,5.41,1.24,11,1.53,16.5.73,13.85-2.55,27.13-6.27,40.65-5.62,20.44-13.81,39.23-21.07,54.91-11.67,25.18-31,42.33-59,52.44-14.16,5.1-29.45,8.58-48.12,10.94a382.14,382.14,0,0,1-48.63,2.65c-10.28,0-20.52-.24-30.12-.49-8.54-.21-17.23-.87-25.62-1.5-7-.53-14.25-1.08-21.4-1.37l-7.86-.34c-9.11-.41-18.53-.83-27.81-.83-6.52,0-12.38.2-17.93.62-1.74.13-3.54.15-5.28.17l-1.46,0c-15.72.24-31.57,1.39-45,2.48q-6.95.56-13.88,1.06c-7.39.55-15,1.12-22.52,1.81-14,1.29-30.68,3-47.66,6.07a161.15,161.15,0,0,1-26.46,2.26h-1.17l-2.15,0h-2.17a43.27,43.27,0,0,0-7,.45A5.64,5.64,0,0,1,598.44,397.32Z"/><path d="M512.09,389.71a17.54,17.54,0,0,1-1.91-.17h-.13c-3.74-.43-7.48-.83-11.23-1.23-4.41-.47-8.82-.94-13.23-1.45a148,148,0,0,1-18-3.63c-2.91-.71-5.91-1.45-8.89-2.08-16.1-3.43-32.6-6-48.56-8.45l-8.39-1.3c-15.91-2.49-32.2-4.68-48.41-6.49-11.19-1.26-22.68-2.21-32.57-3-17.92-1.44-36.14-1.51-53.77-1.58-7.58,0-15.42-.06-23.12-.2-13-.23-26.7-.95-41.89-2.19a381.21,381.21,0,0,1-49.86-7c-22.86-4.93-40.85-11.74-56.6-21.41a91.15,91.15,0,0,1-36.79-42.51,316.31,316.31,0,0,1-22.08-75.38c-2.2-13.94-1.62-28.17,1.76-43.49a128.24,128.24,0,0,0,2.92-27.61A122.92,122.92,0,0,0,30.81,91.09c-5.57-12.76-12-25-17.06-34.29S3.57,37.46,1.33,26.54A8.62,8.62,0,0,0,0,23.33v-7l.27-.37a7.2,7.2,0,0,0,1-1.7c1.45-3.85,4.25-6.65,8.8-8.79a47.52,47.52,0,0,1,13.46-4c2.4-.37,4.8-.69,7.2-1L33.92,0H52.4a31.62,31.62,0,0,0,7.9,1c1.3.05,2.64.1,3.93.23,18.45,1.92,37.94,6.4,61.31,14.11,48.61,16,96.68,39.19,142.88,68.86,27.64,17.75,52.95,37.92,74.07,55.31a939.3,939.3,0,0,1,77.88,71.95c12,12.43,23.56,25.69,34.73,38.52l4.39,5.05,5.15,5.89c8.94,10.21,18.19,20.77,26.7,31.62,3.62,4.62,7.26,9.34,10.78,13.9l4.3,5.58a32.76,32.76,0,0,0,7.79,7.63c1.89,1.25,2.34,2.58,1.71,5.1-2,8.09-2.11,16.33-2,22.61a54.3,54.3,0,0,0,5.45,23c1.28,2.61,1.21,4.34-.26,6.39a43.49,43.49,0,0,0-4.58,9.18l-.53,1.32C513,389.71,512.88,389.71,512.09,389.71Z"/><path d="M868.7,745.12c-4.94-1.91-9.84-4.18-14.57-6.39-5.56-2.58-11.32-5.26-17.23-7.38a61,61,0,0,0-18.49-4c-.5,0-1,0-1.49,0a36.08,36.08,0,0,0-22.16,7.49l-.67.5a64.89,64.89,0,0,1-5.87,4,8.91,8.91,0,0,1-4.31,1.47c-1.82,0-3.44-1.13-5.25-3.67a65.29,65.29,0,0,1-5.15-9.1,142.53,142.53,0,0,0-10.18-17.81c-7.29-10.67-16.2-18.78-26.49-24.12a36.6,36.6,0,0,1-16.61-16.68,45.46,45.46,0,0,0-19.53-20.36c-7.7-4.13-13.94-10.3-19.63-19.4-4.67-7.46-9.34-15.65-14.29-25-6.17-11.69-12.94-24.12-20.61-35.79-9.47-14.4-17-30.16-24.34-45.39-1.87-3.88-3.73-7.76-5.62-11.62a438.13,438.13,0,0,1-18.52-42.31,15.6,15.6,0,0,1-.83-8.21c2.33-14.21,3-29.3,2.07-48.93a33.12,33.12,0,0,0-.37-3.34c-.12-.85-.25-1.74-.32-2.6a12.65,12.65,0,0,1,0-2.66h0a12.33,12.33,0,0,1,2.5.59,71.22,71.22,0,0,0,20.53,3.28c1.23,0,2.48,0,3.69-.12a196.31,196.31,0,0,0,20.3-2.66c11.87-2.05,24.56-3.6,39.93-4.88,5.48-.45,11-1,16.44-1.46,6.11-.55,12.43-1.13,18.65-1.63,8-.65,16.2-1.15,24.11-1.64l3-.18c14.84-.92,29.86-1.05,42.6-1.05l12.84,0h3.1c15.33.05,30.77,1.26,45.71,2.42,4.07.31,8.4.52,13.62.64,6.2.15,12.33,1.37,18.27,2.55,2.1.42,4.19.84,6.3,1.21,22.13,3.94,39.58,8.78,54.92,15.23,33.71,14.19,60.39,36.37,79.31,65.93a98.92,98.92,0,0,1,12.7,29.18c1.66,6.61.59,11.89-3.37,16.62a33.5,33.5,0,0,0-7.82,19.57c-.43,6.13-2.58,12.06-6.56,18.11-3.32,5-7,9.9-10.25,14-5.47,7-11.08,14.47-14.42,23.29a81.29,81.29,0,0,0-4.93,21.75c-1.07,12.62-6.86,21.38-17.69,26.79a84.43,84.43,0,0,0-14.15,9c-9.89,7.74-15.29,18.18-16.06,31a58.29,58.29,0,0,0,4,25.41,23.54,23.54,0,0,1,2.14,10.29c-.26,4-1.62,5.53-5,5.53q-.6,0-1.26-.06a22,22,0,0,1-6.95-2.15c-5.83-2.64-10.78-6.67-15.57-10.56-.68-.55-1.35-1.11-2-1.67a93.48,93.48,0,0,0-8.12-6.21,19.61,19.61,0,0,0-5.6-2.74,14.67,14.67,0,0,0-3.86-.55,10.77,10.77,0,0,0-8.35,3.91,28.75,28.75,0,0,0-5,8.23c-1.27,3.09-2.74,6.69-4.08,10.3-1.74,4.66-4.1,10-8.51,14Z"/><path d="M303.6,719.77c-1.55,0-3.27-.76-5.44-2.4-1.24-1-2.48-2-3.67-3-1.38-1.15-2.81-2.33-4.28-3.42a35.33,35.33,0,0,0-21.7-7c-1.38,0-2.8.07-4.23.2-10.32.94-19.93,4.6-29.21,8.13l-1.59.6-2.08.8a63.57,63.57,0,0,1-12.26,3.8,14.52,14.52,0,0,1-2.3.21c-2.63,0-4.26-1.05-6-3.87a48.26,48.26,0,0,1-4.6-11.12c-.31-1-.61-2-.91-3a72.32,72.32,0,0,0-4.45-12c-2.71-5.29-6.61-8.08-11.26-8.08a16.4,16.4,0,0,0-7.39,2,73.84,73.84,0,0,0-9.72,6.29c-.81.59-1.62,1.18-2.44,1.75-5,3.53-9.9,6.87-15.52,9.06a29.24,29.24,0,0,1-7.94,2,8.19,8.19,0,0,1-.85,0c-2.82,0-4.32-1.47-4.72-4.62a14.3,14.3,0,0,1,.5-5.51,45.75,45.75,0,0,1,2.88-7.34l.18-.39a54.86,54.86,0,0,0,4.69-29.12c-1.24-11.69-6.87-21.41-16.72-28.9-2.4-1.82-4.9-3.59-7.32-5.29l-3.4-2.41-1.25-.91c-.84-.61-1.7-1.24-2.58-1.83-6.81-4.55-10.45-11.07-11.13-20-.48-6.2-1.16-12.47-2-18.63-1.62-11.57-7.2-21.24-11.89-28.38q-1.87-2.85-3.78-5.68c-1.93-2.89-3.92-5.87-5.82-8.84-5.37-8.4-8-16.58-7.94-25A25.56,25.56,0,0,0,70.19,492c-4.9-6.2-5.57-12.92-2.2-21.79A113.23,113.23,0,0,1,88.16,436.8c25.32-29.77,57.62-48.73,98.74-58,8.32-1.86,16.91-3,25.21-4.15,4.36-.59,8.87-1.19,13.29-1.9,8.9-1.42,17.67-1.42,28.76-1.42,3.34,0,6.85,0,10.61,0,1.74-.06,3.67-.08,5.75-.08,8,0,17.57.38,27.66.78l7.2.29c15.75.6,31.58,2.24,45.18,3.73,24.19,2.65,48.17,6.33,74.76,10.51,17.14,2.7,31.27,5.5,44.46,8.81a95.17,95.17,0,0,0,23.51,3.24c1.23,0,2.47,0,3.68-.09a77.46,77.46,0,0,0,11.92-1.61,10.77,10.77,0,0,1,1.9-.28,1.07,1.07,0,0,1,.3,0,13.09,13.09,0,0,1-.15,1.82c-1.29,9.37-.6,18.82.07,27.95l.18,2.34c.46,6.4.35,13,.25,19.28,0,1.61-.05,3.23-.07,4.84a10,10,0,0,1-1.26,4.08c-.18.37-.35.75-.52,1.13-7.88,18.16-17.54,35.2-28.43,54q-2.61,4.51-5.15,9c-5.35,9.51-10.89,19.34-17.48,28.25C445,567.76,433,586.48,423,602.37c-2.93,4.67-6.3,9.53-10.61,15.28-5.63,7.51-11.81,12.73-18.89,16a47.68,47.68,0,0,0-21.87,19.7,35.88,35.88,0,0,1-17.14,14.95c-14.38,6.29-26.35,17.42-36.58,34-1,1.65-2,3.32-3,5q-1.33,2.25-2.7,4.49l-.07.11a40.93,40.93,0,0,1-2.69,4C307.32,718.57,305.53,719.77,303.6,719.77Z"/><path d="M550.72,597.49c-.53,0-.79-.55-1.2-1.82-.09-.26-.17-.51-.26-.75-11-28.74-17.12-51.37-20-73.37-2.5-19.27-4.62-36.22-6.46-51.81a124.63,124.63,0,0,1-.89-15.13c0-16.5-.47-30-1.63-42.52-.83-8.82.63-17.93,4.74-29.55a8.46,8.46,0,0,1,.75-1.75,10.11,10.11,0,0,1,1.45,1.34c.14.15.26.32.39.48a3.85,3.85,0,0,0,1.87,1.52l.37.12.35-.16c1.23-.55,1.55-1.54.95-2.95a1.46,1.46,0,0,1-.12-.33l-.57-2.45c-1.26-5.44-2.56-11.06-4-16.57-3.55-13.79-3.3-27.76.76-42.72a109.41,109.41,0,0,1,5.23-15.55,12.37,12.37,0,0,0,.71-7.62A435.93,435.93,0,0,0,499,190.05c-13.17-27.84-25.92-49.5-40.12-68.15-4.93-6.47-10.27-12.51-16.25-19.17a10,10,0,0,0-1.17-1c-.5-.4-1.35-1.08-1.37-1.42,0-.06.06-.19.25-.38a1,1,0,0,1,.56-.32c.48,0,1.23.88,1.77,1.52a12.3,12.3,0,0,0,1,1A164.39,164.39,0,0,1,461,121.66c14.11,18.09,26.79,39.31,39.91,66.78a430.81,430.81,0,0,1,19.57,48.29,389.33,389.33,0,0,1,13.32,50.34c.21,1.09.46,2.16.78,3.52.17.73.36,1.54.57,2.49l.53,2.32,1.29-2c.67-1,1.31-2,1.93-3a79.66,79.66,0,0,1,7.19-10.17c.7-.79,1.42-1.57,2.15-2.34,1-1.07,2-2.18,3-3.34a7.12,7.12,0,0,1,5.83-2.72,13.6,13.6,0,0,1,2.82.33,17,17,0,0,1,6.86,3.18,3.37,3.37,0,0,0,2,.84c.76,0,1.78-.4,2.27-2.34,1.12-4.34,2.29-8.76,3.47-13.13,8.32-30.79,18.17-56.8,30.09-79.5,13.76-26.19,30-47.7,49.82-65.77a231.24,231.24,0,0,1,54.14-36.59,35.8,35.8,0,0,1,3.81-1.6,1.9,1.9,0,0,1,.62-.13c.14,0,.19,0,.27.21,0,0,.09.23-.42.55a27.33,27.33,0,0,1-2.51,1.39,232.38,232.38,0,0,0-68.52,52.18A248.42,248.42,0,0,0,607,181.82c-12.07,22.82-21.77,48.18-30.51,79.8-.55,2-1.07,4.05-1.59,6.08-.7,2.72-1.42,5.54-2.23,8.27a10.08,10.08,0,0,0,.91,8,149.37,149.37,0,0,1,13.07,34.21,68.21,68.21,0,0,1-3,43.11c-2.75,6.76-6,13.81-10.3,22.19l-.67,1.31,1.46.14a2.88,2.88,0,0,0,.41,0,3.68,3.68,0,0,0,2.76-1.33l.27-.27c.76-.69,1.49-1.41,2.23-2.12s1.57-1.52,2.39-2.26a1.2,1.2,0,0,1,.62-.37c.08,0,.26.16.44.59a34.2,34.2,0,0,1,1.27,3.5,130.73,130.73,0,0,1,5.3,32.34c.73,17.79-1,36.77-5.31,59.72a883.13,883.13,0,0,1-21.15,88.26c-2.8,9.41-6.27,19.27-11.24,32-.1.27-.19.56-.28.86-.41,1.29-.61,1.61-1.05,1.61Z"/></g></g></svg>