<svg xmlns="http://www.w3.org/2000/svg" viewBox="0 0 836.53 651.82"><g id="Layer_2" data-name="Layer 2"><g id="OBJECT"><path d="M698.46,654.08a21.26,21.26,0,0,0-4-.85c-.72-.1-1.42-.21-2.13-.35a9.24,9.24,0,0,1-1.77-.49,8.53,8.53,0,0,1,.65-1.69A101.64,101.64,0,0,1,705,628.78c.29-.36.6-.72.9-1.08.87-1,1.77-2.11,2.56-3.25a7.16,7.16,0,0,1,5.51-3.2,4.61,4.61,0,0,0,1-.21l.36-.11,1.29-.33-.68-1.15a2.18,2.18,0,0,0-2-1.12,3.81,3.81,0,0,0-.59,0l-.36,0c-.19,0-.56-.08-.8-.14,0-.13.05-.35.13-.69a6.15,6.15,0,0,1,2.87-4.47c5.85-3.23,9.23-8.45,12-13.61a25.39,25.39,0,0,0,3.08-9.93,5.78,5.78,0,0,1,.75-2.82,36.3,36.3,0,0,0,5.1-12.55c1.14-4.86,2.54-9.76,3.9-14.49,1.5-5.25,3.06-10.68,4.26-16.12.68-3.1,1.36-6.19,2-9.29,1.2-5.53,2.44-11.24,3.73-16.85a59.3,59.3,0,0,0-1.14-30.08c-.42-1.48-.85-3-1.28-4.45-.63-2.21-1.26-4.41-1.88-6.62A79.74,79.74,0,0,1,743.42,464a120.82,120.82,0,0,0-9.82-36.57c-7.06-15.68-13.44-32-19.52-49.76a208.5,208.5,0,0,0-8.45-20.92l-.07-.16c-.14-.3-.28-.61-.44-.91-2-3.9-4.44-8.68-10.26-10.3l5.69-9.35-2-1.29-.57.72-1.89,2.41c-1.36,1.73-2.72,3.46-4,5.22-9,11.89-19.81,22-29.17,30.32A260.85,260.85,0,0,1,629.37,399c-15.46,9.82-30.43,16.56-45.75,20.59a143.4,143.4,0,0,1-27.06,4.32c-3.79.26-7.51.39-11,.39-1.28,0-2.56,0-3.83-.05a191.41,191.41,0,0,1-48.53-7.55c-15.82-4.62-31.41-11.8-49.06-22.58l-4.23-2.59c-5.86-3.59-11.93-7.3-17.95-10.84a91.56,91.56,0,0,0-21-9.27,48.66,48.66,0,0,0-10.11-1.81,6.59,6.59,0,0,1-1.71-.27,10.44,10.44,0,0,1,.33-1.7q1.33-5.5,2.68-11,2.36-9.62,4.68-19.23A109.83,109.83,0,0,0,399.46,319a46.88,46.88,0,0,0-1.8-15.58l-2,.11a18.13,18.13,0,0,0,.11,5.22c.09.66.17,1.27.2,1.89.46,8.2-.51,16.71-3.05,26.78-.76,3-1.51,6-2.25,9-2.71,11-5.52,22.28-9,33.21a98.88,98.88,0,0,0-4.1,22q-.41,4.83-.84,9.66c-.68,7.74-1.39,15.74-1.84,23.63l-.14,2.6a214.57,214.57,0,0,0-.47,25.14c.32,5.27.39,10.64.47,15.83l0,3.12a53.39,53.39,0,0,1-2.26,17c-2.44,7.85-3.6,16.52-3.64,27.3q0,8.36,0,16.71,0,6.63,0,13.25c0,2.06-.15,4.16-.29,6.18a77.33,77.33,0,0,0-.27,8c.12,3.14.4,6.54.9,10.68.73,6.09-.92,12-5.17,18.63a6.11,6.11,0,0,1-5.25,3.1,7.68,7.68,0,0,1-1.91-.26,7.39,7.39,0,0,0-1.81-.24A6,6,0,0,0,350,605c-1.66,2.6-3.25,5.3-4.79,7.9l-.44.75a6.8,6.8,0,0,0,.3,7.84,13,13,0,0,1,2.24,4.82l.08.36a6.14,6.14,0,0,1,.15.83c-3.05-3.17-6.92-4.87-10.68-6.52-1.2-.53-2.44-1.07-3.62-1.65l-1.32,1.39a8.67,8.67,0,0,0,3.49,3.11c1,.56,2,1.1,2.94,1.63s1.74,1,2.6,1.45a10.9,10.9,0,0,1,3.51,2.74c1.2,1.63,1.23,2.7.13,4.4-1.25,1.94-2.54,3.77-4.55,4.79l-.37.19c-7.05,3.61-14.34,7.34-22.34,8.5a74.45,74.45,0,0,1-10.72.89,41.14,41.14,0,0,1-10.06-1.16,16.83,16.83,0,0,1-9-5.28c-1-1.13-1.12-1.68-1.07-1.93s.36-.66,1.54-1.25c7.86-3.93,13.87-10.23,18.38-19.27l.46-.91a23.35,23.35,0,0,0,2.75-7.39,3.5,3.5,0,0,1,2-2.62c.36-.2.71-.42,1.07-.63.54-.33,1.08-.65,1.64-.94a34,34,0,0,0,13.14-12.53c4.79-7.62,8.41-14.23,10.49-21.7a70.94,70.94,0,0,0,2.16-12.64c.36-3.93.89-7.91,1.39-11.77s1.08-8.14,1.45-12.23c1.17-13,0-23.43-3.71-32.79-.43-1.1-.82-2.23-1.2-3.34-.46-1.31-.93-2.66-1.47-4-2.38-5.76-3-10.76-2-15.73a60,60,0,0,0,.6-13.72,125.35,125.35,0,0,1,.92-17.38,56.33,56.33,0,0,0-.65-14.32c-1.49-10-2.43-20.17-3.24-29.68a109.28,109.28,0,0,0-3.43-18.54l-.26-1c-3-11.58-6.17-23.55-10.69-34.92a144,144,0,0,0-7.06-14.94c-.4-.75-.84-1.45-1.35-2.26-.25-.39-.51-.8-.78-1.25l-.92-1.51-.82,1.57a2.87,2.87,0,0,0,.09,2.94,2.4,2.4,0,0,1,.11.23q1.06,2.37,2.14,4.72c2.22,4.88,4.53,9.92,6.35,15.05.08.24.17.47.27.7s.25.64.34.95l0,0a69.35,69.35,0,0,1-9.89-8.06l-1.62-1.66c-4.56-4.67-9.27-9.5-14.36-13.84a90.38,90.38,0,0,0-14.73-10.38,69.37,69.37,0,0,1-10-6.5,26.39,26.39,0,0,1-8.14-11.05c-1.22-3.12-2.44-6.57-3.73-10.53-3.35-10.28-9.58-19.52-19-28.27a145.88,145.88,0,0,0-34.43-23.36,136.24,136.24,0,0,1-27.32-18.14c-2.09-1.78-2.09-1.78-1.27-4.3a103.2,103.2,0,0,0,3.62-16.15,211.17,211.17,0,0,1,5.83-25.4c.05-.19.11-.37.18-.56a5.67,5.67,0,0,0,.39-2.95l-.42-2.64-1.42,2.27a25,25,0,0,0-2.38,5.35l-.06.16a156.57,156.57,0,0,0-5.86,23.6,111.55,111.55,0,0,1-4.06,16.62c-2.85,8.28-7.15,13.68-13.52,17a13.35,13.35,0,0,0-1.55,1,13.83,13.83,0,0,1-1.23.82l0-.18a3.44,3.44,0,0,0-.34-2.8l-.59-.87-.84.64a5.61,5.61,0,0,0-1.8,2.82l-.12.32a90.11,90.11,0,0,1-12.26,22.41,23.1,23.1,0,0,0-4.83,13.34,30.24,30.24,0,0,1-4,14.09c-.73,1.28-1.43,2.58-2.13,3.88-.48.9-1,1.81-1.47,2.7a17.39,17.39,0,0,1-3.33,4.63,55.87,55.87,0,0,0-9.35,11.23,9.43,9.43,0,0,1-5,3.65,45.67,45.67,0,0,1-15.43,2.85c-6.44,0-11.31-2.72-14.48-8.06l-2.94-5A17.12,17.12,0,0,0,65.79,299a5.15,5.15,0,0,1-2.55-3.68c-.78-3.64-1.82-7.24-2.9-10.93-1.16-4-.37-7.8.66-11.34a89.44,89.44,0,0,1,4.46-11.33c.6-1.34,1.2-2.68,1.78-4L68.77,254c1.61-3.84,3.27-7.8,5.17-11.57a10.65,10.65,0,0,0,1.22-6.06l-.16-1.7-1.4,1a2.86,2.86,0,0,0-.83.88c0-.27,0-.55,0-.82l0-.37a92.63,92.63,0,0,1-.84-11.55,74.52,74.52,0,0,0-1.83-15l-.17-.87a215.52,215.52,0,0,1-2.66-22l-.06-.72c-.11-1.28-.22-2.57-.32-3.86a154.8,154.8,0,0,0-2-17.11,51.41,51.41,0,0,0-2.32-8.33l1-.11c3.51-.39,4.29-1.17,4.36-4.39.12-5.24-3.44-7.78-6.94-9.58a5.71,5.71,0,0,0-2.58-.72,3.68,3.68,0,0,0-2.57,1,3.93,3.93,0,0,1-.21-.86c-1-5.59.25-10.07,3.86-13.71,1-1,2-2,3-3a80.31,80.31,0,0,0,7.06-7.42,49.94,49.94,0,0,0,10.11-20,21.4,21.4,0,0,1,5.87-11,2.85,2.85,0,0,0,.5-.76,3.37,3.37,0,0,1,.17-.32l.8-1.4-1.6-.1h-.2a3.68,3.68,0,0,0-2.57,1.25,5.63,5.63,0,0,1-.52.45c-1.39-4.06-4.84-6.21-8.18-8.29a88.73,88.73,0,0,0-11-5.55c-5.57-2.46-11-5.25-17-8.37C38.1,59,32.46,52.49,28.43,47.29A113,113,0,0,1,18,31.69l-1.82.8c2.39,6.78,6.48,12.59,10.7,18.12a27.67,27.67,0,0,1-4.69-5.79L20.4,41.89C14.3,31.87,8,21.5,4.55,10A68.09,68.09,0,0,0,1.91,2.25l.31.4c.18.24.36.47.55.7a91.6,91.6,0,0,0,18.61,16.2C30,25.41,39.45,29.48,46.71,32.36a328.42,328.42,0,0,1,36.08,17,62.67,62.67,0,0,1,13.46,9.85,15.34,15.34,0,0,0,11.13,4.5,21.8,21.8,0,0,0,3.84-.36,56.33,56.33,0,0,0,6.53-1.63,15.75,15.75,0,0,1,4.59-.81c.33,0,.65,0,1,0l1.44.14c2.9.29,5.89.6,8.8,1A36.15,36.15,0,0,1,141.31,64a1.91,1.91,0,0,0-1.11,1.23l-.39,1.24,1.3,0,.68,0A25.14,25.14,0,0,0,151,64.36a121.93,121.93,0,0,0,13.56-6.63c7.74-4.26,17.06-8.84,27.5-10.57,13.09-2.16,26.11-5.47,38.71-8.67q5-1.26,9.9-2.5c14.72-3.65,28.3-9.31,39.64-14.35l.58-.29.34-.17a47.74,47.74,0,0,1-4.18,5.11c-.37-.84-.84-1.55-1.74-1.55a3.18,3.18,0,0,0-1.94,1c-.49.42-1,.87-1.43,1.32s-.86.83-1.31,1.22a64.56,64.56,0,0,1-23.27,13.2c-10.16,3.22-18.24,8.18-24.7,15.17A139.89,139.89,0,0,1,211,68a93,93,0,0,1-18.24,12.61,29.59,29.59,0,0,1-12,3.21c-2.45.14-5.67.32-8.92.57a13.28,13.28,0,0,0-7.37,2.48l-2.08,1.64,2.64.15h.42a11.5,11.5,0,0,0,2.66-.37,23.19,23.19,0,0,1,5.42-.55c1.61,0,3.27.11,4.88.21l.88.05.15,0h0a33.39,33.39,0,0,0-2.54,4.21,32.42,32.42,0,0,1-2,3.48c-3.28,4.69-3.34,9.54-.16,14.82l.2.33a17.48,17.48,0,0,0,2.82,3.84,25.36,25.36,0,0,1,6,7.88l1.89-.19a4.36,4.36,0,0,0,0-1.83,13.31,13.31,0,0,0-4.23-7.08,21.8,21.8,0,0,1-5.49-8.47,5.26,5.26,0,0,1,.16-4.49l.34-.64c1.53-2.86,3.11-5.81,4.84-8.59A7.07,7.07,0,0,1,186.4,88a51.84,51.84,0,0,0,10.8-2.66,14.07,14.07,0,0,1,4.85-.82,19.23,19.23,0,0,1,2.34.15l.43.06a18.44,18.44,0,0,0,2.26.19A67.54,67.54,0,0,1,222,87c9,2,17.67,5.41,26.1,8.67l2.39.92C268.2,103.43,286.55,111,305,119a148,148,0,0,0,58.82,12.56,182.26,182.26,0,0,1,43.61,5.57l3.55.9c8.18,2.08,16.64,4.22,25.13,5.71,12.79,2.25,25.9,2.88,38.57,3.5,3,.15,6.08.29,9.12.46,6.93.39,13.78.88,20.34,1.47,8.57.77,17.69,1.55,26.73,2,2.16.1,4.38.15,6.6.15a171,171,0,0,0,29.44-2.68c10.86-1.88,22.41-3.3,35.31-4.35s22.88-2.84,31.9-5.68c5.71-1.8,11.75-4,19.59-7a145.72,145.72,0,0,1,33.38-8.77c7.13-.94,14.41-1.66,21.44-2.36,3.15-.31,6.29-.62,9.43-1l1.28-.17a17,17,0,0,1,2.28-.22l.54,0c2.18.19,4.36.34,6.54.48,3.49.24,7.1.48,10.63.91a128.16,128.16,0,0,1,52.49,18.2c14.58,9,25.31,19.8,32.8,33,6.56,11.56,10.81,24.43,13,39.34.19,1.32.26,2.69.33,4a34.38,34.38,0,0,0,.62,5.65V250c0,.17-.07.33-.11.49a6.89,6.89,0,0,0-.24,1.57,168.32,168.32,0,0,1-1.49,18.72c-.47,4-1,8.09-1.24,12.15-.07,1-.14,2-.22,2.94a109.94,109.94,0,0,0-.46,14.44c.49,8.83,1,18.29,1.38,27.56a279.36,279.36,0,0,1-1.36,44.68A213.24,213.24,0,0,1,818.07,434a128.31,128.31,0,0,0,3.15-23.77c.32-7.53-.64-15.67-3-25.64-2.8-11.69-5.88-25.33-6.89-39.19a137.28,137.28,0,0,1,1.06-29.63C813.87,305.34,816.48,295,819,285l.1-.4a45.71,45.71,0,0,1,3.81-10.55,57.53,57.53,0,0,0,2.42-5.33l.44-1.07a127.26,127.26,0,0,0,9.3-55,28,28,0,0,0-.34-2.81c-.06-.41-.13-.81-.18-1.22h-2a87.91,87.91,0,0,0-.85,10.71,121.77,121.77,0,0,1-.9,13.1,115.76,115.76,0,0,1-9.21,34.29l-1.43,3.17c-1.61,3.6-3.27,7.31-5.16,10.81-8.72,16.1-17,32.88-24.66,49.87a170.63,170.63,0,0,0-8.88,22.94c-2.91,10.16-3.33,20.7-3.74,30.9l-.14,3.27a110.16,110.16,0,0,0,2.86,28.83c2.85,12.79,5.7,24.24,11.64,34.8,3.57,6.34,3.84,13.35.84,21.45a91.8,91.8,0,0,1-5.1,10.82,42,42,0,0,0-4,10.45q-.74,3.35-1.49,6.68c-1.65,7.3-3.34,14.84-4.82,22.31-.49,2.44-1,4.9-1.44,7.35-1.94,10.07-4,20.49-6.79,30.53-2.73,9.66-5.65,22.48-4,35.91a18.35,18.35,0,0,1,0,2.79l0,.51c-.13,4.39-1.93,7-5.66,8.39a16.65,16.65,0,0,0-7.47,5.64c-.62.78-1.26,1.53-1.9,2.29-.84,1-1.71,2-2.51,3.06a28.09,28.09,0,0,0-5.4,11.18,1.41,1.41,0,0,1-.2.57s-.11-.05-.42-.19c-1.1-.48-2.17-1-3.39-1.59l-1.83-.88-1.23,1.51a11.52,11.52,0,0,0,4.54,3.68c.79.37,1.58.72,2.38,1.07l1.83.82a7.66,7.66,0,0,1,4,3.79c.67,1.47.51,2.07-.79,2.94-4.73,3.16-10.47,6.63-17.2,8.47-2.57.7-5.21,1.34-7.76,2-1.74.43-3.47.85-5.21,1.3ZM107.12,275.56a12.76,12.76,0,0,0-6.25,5.25,43.73,43.73,0,0,0-5.12,12.45c-.68,2.69,0,4.33.73,5.24a5.3,5.3,0,0,0,4.38,1.86h0a9.26,9.26,0,0,0,1.55-.13l.19-1.93c-.28-.1-.58-.2-.89-.29a4,4,0,0,1-1.83-.88c5.11-1.06,5.59-1.35,7.85-4.54l-1.3-1.45c-.73.4-1.37.84-1.93,1.22a9.15,9.15,0,0,1-2.37,1.32,6.36,6.36,0,0,1-1.67.34,1.3,1.3,0,0,1-1.06-.45c-.33-.36-.26-.75.14-1.8.06-.15.11-.31.16-.45,1.94-5.61,3.92-10.53,8.41-14Zm-45.34,8.15c3.09,2.8,4.26,6.51,5.5,10.44.3,1,.61,2,1,2.93a1,1,0,0,1,.09.55c0,.06-.18.18-.57.31l.28,1.95.81.05c.36,0,.7.06,1,.06a4.94,4.94,0,0,0,1.66-.27l.92-.32-3.17-9.62a12.91,12.91,0,0,0-6.39-7.71Zm89.91-138.26c-.36,0-.73,0-1.11,0a10.88,10.88,0,0,0-6.88,3.5c-3.27,3.21-5,7.21-6.23,10.69l-.65,1.81,1.85-.5a2.7,2.7,0,0,0,2-1.66c.11-.24.34-.71.53-.71a2.35,2.35,0,0,1,1,.41c2.44,1.39,5.3,1.67,7.61,1.9.22,0,.43,0,.65,0h0a6.05,6.05,0,0,0,4.42-1.92l1.38-1.44-2-.25a6.79,6.79,0,0,0-.78,0,13.46,13.46,0,0,0-1.72.14,10.83,10.83,0,0,1-1.45.13,4.93,4.93,0,0,1-.55,0l-.37-.05c-1.35-.19-2.76-.38-4.1-.67-1-.23-1.68-.6-1.85-1s0-1,.54-1.78c1.58-2.35,4.22-5.14,7.77-5.14a9.52,9.52,0,0,1,5.5,2c.13.09.25.2.38.3a6.82,6.82,0,0,0,.86.62h0s0,0,0,.08a1.79,1.79,0,0,0,1.39.76,1.76,1.76,0,0,0,.76-.18l1-.45-.56-1A10.4,10.4,0,0,0,151.69,145.45Zm-89.42,10a36.16,36.16,0,0,0-3.33-6.54,26.26,26.26,0,0,1-1.29-2.29c-.21-.39-.42-.79-.64-1.17a2.31,2.31,0,0,1-.35-1h.15a8.16,8.16,0,0,1,8.08,5.68,2.25,2.25,0,0,1-1,2.95l-.14,0a1.82,1.82,0,0,0-1.42,1.57Z" transform="translate(-1.91 -2.25)"/><path d="M302.13,607.38a22.76,22.76,0,0,1-8.71-2l-.37-.17a4.25,4.25,0,0,1,.41-.38,33.8,33.8,0,0,0,6.43-7.73c2.91-4.49,6.56-9.6,11.56-13.41a4.08,4.08,0,0,0,1.78-2.62l.56-2.27-2,1.17a37.75,37.75,0,0,0-12,11c-.93,1.27-1.84,2.55-2.76,3.84s-1.74,2.43-2.62,3.64a12.75,12.75,0,0,1-1.39,1.62,1.32,1.32,0,0,1-.27.2c-.91-.19-1.48-.94-2.17-2.25-.4-.76-.17-1.12.34-1.46.14-.1.29-.19.44-.28,3.77-2.25,6.7-5.43,9.37-8.48,1.76-2,3.67-4,5.51-5.87l.78-.79a17.65,17.65,0,0,1,3.87-3,6,6,0,0,1,2.62-1.06c.65,0,1.31.42,2.74,1.72,4,3.68,7.59,5.75,11.49,6.71a1.88,1.88,0,0,1,.52.18,1.69,1.69,0,0,1-.17.35l-.35.6c-4,6.83-7.83,13.28-15,16.87-.77.39-1.52.84-2.23,1.27a17.79,17.79,0,0,1-3.73,1.86A14.79,14.79,0,0,1,302.13,607.38Z" transform="translate(-1.91 -2.25)"/><path d="M329.48,582a6,6,0,0,1-1.94-.53,29,29,0,0,1-9.47-6.23c-1-1-1.13-1.42-1.12-1.6s.28-.66,1.39-1.41c.92-.61,1.84-1.21,2.77-1.8a65.87,65.87,0,0,0,6.32-4.41,52.86,52.86,0,0,0,9.32-9.24,16.9,16.9,0,0,1-.31,2.79c-.11.65-.23,1.32-.29,2A53.42,53.42,0,0,1,331.22,580C330.33,581.85,329.94,582,329.48,582Z" transform="translate(-1.91 -2.25)"/><path d="M708.85,375.26c-1.06-1.51-2.14-3.05-3.13-4.6-3.85-6-9.61-10.54-17.64-13.82-.27-.11-.55-.21-.83-.3s-.52-.17-.78-.28l0,0,1.26-1.59c1.35-1.7,2.74-3.45,4.21-5.06a2.07,2.07,0,0,1,1.61-.66,4.31,4.31,0,0,1,2.19.69,11.6,11.6,0,0,1,3.81,4,64.44,64.44,0,0,1,4.65,9.61c1.57,3.76,3,7.57,4.4,11.25Z" transform="translate(-1.91 -2.25)"/><path d="M284.84,635.82s-.19,0-.67-.75c-1-1.63-.69-2.3.42-3.12a.34.34,0,0,1,.11-.07A88.79,88.79,0,0,0,302,619.75c-4.09,7.1-9.15,12.14-15.49,15.41A5.81,5.81,0,0,1,284.84,635.82Z" transform="translate(-1.91 -2.25)"/><path d="M205.09,77.55A110,110,0,0,0,222,62.69c4.57-4.89,9.29-9.95,15.44-13.18a79,79,0,0,1,12.83-5.39,54.49,54.49,0,0,0,23-14.32c-1.51,3.22-4.25,5.63-6.67,7.75a68,68,0,0,1-13,8.55,285.66,285.66,0,0,0-40,25.77A68.62,68.62,0,0,1,205.09,77.55Z" transform="translate(-1.91 -2.25)"/><path d="M761.24,637.55a30.11,30.11,0,0,1-8.2-1.28c-.82-.23-.85-.4-.69-1.12,1.52-6.56,3.56-13.4,8.18-18.95a1.24,1.24,0,0,0,.26-.86v-.25l.07-1.2-1.19.15a4.75,4.75,0,0,0-3.29,2.35l-.17.23c-3.45,4.65-5.18,10-6.3,14.2-.27,1-.58,2-1,3.25l-.07.17-.27-.13c-2.39-1.41-3-2.91-2-5.18,2.56-5.88,6.71-10.51,10.75-14.76a10.16,10.16,0,0,1,4.06-2.34c3.78-1.38,6.08-3.71,7-7.13a6.87,6.87,0,0,1,1.78-2.71,26.51,26.51,0,0,0,6.8-14c.64-3.64,1.48-7.32,2.29-10.87.61-2.7,1.25-5.49,1.8-8.25A104.1,104.1,0,0,0,782.85,553l0-1a99.38,99.38,0,0,0-.09-15.23c-.23-2.12-.41-4.4-.57-7.4a58.06,58.06,0,0,1,1.41-15.18c.81-3.85,1.65-7.7,2.49-11.55l1.23-5.6a43.35,43.35,0,0,1,4.42-12.12,66.22,66.22,0,0,0,5.77-13.08c2.58-8.49,1.85-16.07-2.19-22.53-5.55-8.88-8-18.71-10.31-28.21a144.38,144.38,0,0,1-3.35-20.58c0-.05,0-.11,0-.17a74.86,74.86,0,0,0,7.67,16.34l.62,1c4.59,7.2,9.34,14.64,15.58,20.89a30.72,30.72,0,0,1,4.25,5.86c1.85,3.05,1.75,6.46,1.36,9.7-.58,4.86-1.58,9.75-2.55,14.47-.48,2.38-1,4.83-1.43,7.26a89.38,89.38,0,0,0-.62,27.23c1,7.91,1.67,16.32,2.14,25.73.46,9.06.58,16.53.36,23.52-.05,1.43-.16,2.91-.28,4.33l-.15,1.94c-.6,8.59.88,16.91,2.59,25.39.71,3.5.45,6.14-.84,8.56a5,5,0,0,1-4.8,3h-.44c-5.39,0-7.6,1.56-9.48,6.65l-.52,1.43a86.92,86.92,0,0,0-3.83,12.13,9.18,9.18,0,0,1-.26,1c-.2-.07-.54-.21-1-.43-1.3-.6-2.58-1.23-4-1.93l-4.12-2,.66,2.19a4.17,4.17,0,0,0,2.11,2.54c.12.07.24.14.35.22.71.49,1.44,1,2.17,1.42s1.78,1.13,2.62,1.74c1.54,1.1,1.52,1.14,1,3a9.86,9.86,0,0,1-5.47,6.37,105,105,0,0,1-18.94,7A20.23,20.23,0,0,1,761.24,637.55Z" transform="translate(-1.91 -2.25)"/></g></g></svg>