<svg xmlns="http://www.w3.org/2000/svg" viewBox="0 0 362.56 363.69"><defs><style>.cls-1{fill:#1c050d;}</style></defs><g id="Layer_2" data-name="Layer 2"><g id="OBJECT"><path class="cls-1" d="M138.85,364.69l-.07,0a4.26,4.26,0,0,0-.67-.2c-3-.61-4.37-2.28-4.42-5.28a20.52,20.52,0,0,1,1.68-8.41l.19-.44a16.56,16.56,0,0,0,.9-2.41l.84-3.21-2.63,2.34c-.14.13-.29.26-.42.4a14.46,14.46,0,0,0-3.36,6.62c-.32,1.17-.51,2.37-.71,3.54l-.07.45a9.78,9.78,0,0,0,.27,3.77l0,.13-.52.11-.32.05a7.58,7.58,0,0,1-1.56.16c-3.7,0-6.36-2.57-6.81-6.55.11-3.14.34-6.44,1.74-9.45l.93-1.95c.33-.67.65-1.34,1-2l.37-.81c.7-1.49,1.42-3,2.09-4.58a32.74,32.74,0,0,0,2.45-10.28l.13-1.39c.15-1.57.31-3.19.4-4.8A34.71,34.71,0,0,0,128.8,308c-.54-1.76-1.25-4.08-1.85-6.4a20.67,20.67,0,0,1-.54-6.64l.26-4q.26-3.84.5-7.68,0-.73.06-1.47c0-.38,0-.76,0-1.15l.15-2.55c.07-1.25.14-2.5.2-3.76A83.27,83.27,0,0,0,127,260a33.76,33.76,0,0,0-7.91-18.43c-2.88-3.33-5.81-6.62-8.69-9.77-4.12-4.51-7.69-8.58-10.92-12.46A67.46,67.46,0,0,1,90.39,205c-.17-.35-.34-.69-.52-1a1.33,1.33,0,0,0-.5-.49l-.14-.09-2.37-1.63,1,3.23c.09.29.16.55.25.8a50.35,50.35,0,0,0,8.06,14.82c2.45,3.18,5.26,6.54,8.61,10.26l9.37,10.44a139.25,139.25,0,0,1-13.8-3.47c-2-.67-3.69-1.27-5.19-1.91a31.18,31.18,0,0,1-9-5.79c-.25-.23-.52-.45-.78-.67l-.48-.39h-.52l-.31.09-1.31.33.82,1.37a4.52,4.52,0,0,0,.32.52,22.75,22.75,0,0,0,7.3,6.37,43.3,43.3,0,0,0,8.65,3.67l.91.3v0a112.13,112.13,0,0,0-2.7,13c-.41,3.15-.72,6.06-1,8.92q-.22,2.89-.4,5.78c-.16,2.33-.31,4.73-.53,7.08-.35,3.88-.8,8.47-1.45,13.05a38.81,38.81,0,0,0,.1,12.91c.08.44.13.89.19,1.33l0,.37a6.13,6.13,0,0,1-.45,3.13c-.35.84-.72,1.65-1.12,2.39a28.78,28.78,0,0,0-3,9.58l-.5,3.36q-.56,3.69-1.08,7.38c-.2,1.43-.38,2.87-.56,4.3-.09.8-.19,1.59-.29,2.38a21.69,21.69,0,0,1-1.73,5.9c-.47,1.07-.94,2.13-1.42,3.19s-.93,2-1.38,3.08a10.79,10.79,0,0,1-4.35,4.93,9.2,9.2,0,0,1-4.89,1.43,10.29,10.29,0,0,1-2.76-.4,3.56,3.56,0,0,1-2.87-4.13A11.52,11.52,0,0,1,72.08,343a7.22,7.22,0,0,1,3.85-1.89L77,340.9l.95-.21-.17-.95a1.29,1.29,0,0,0-1.29-1.12h-.61a8.73,8.73,0,0,0-6.51,2.78,15.21,15.21,0,0,0-4.3,9,8.7,8.7,0,0,0,.18,2.95,8.5,8.5,0,0,1-4.74,1.59,6.16,6.16,0,0,1-1-.07,8.09,8.09,0,0,1-2.23-.58,4.23,4.23,0,0,1-2.74-4.91c.66-4.05,2.79-6.55,6.52-7.65.29-.09.58-.17.88-.24l.48-.1,1.83-.36-.87-1.26a2.35,2.35,0,0,0-2-1.06,2.75,2.75,0,0,0-.4,0,8.64,8.64,0,0,0-3.4,1A12.2,12.2,0,0,0,51,349.93a7.3,7.3,0,0,0,.84,4,5.75,5.75,0,0,1-4.88-4.2,6,6,0,0,1,0-2.8A12.11,12.11,0,0,1,51.4,340,5.88,5.88,0,0,1,54,338.8l.32-.07.17,0a10.54,10.54,0,0,0,7.74-5,27.19,27.19,0,0,0,2.88-5.23,155,155,0,0,0,5.65-15.86,33.82,33.82,0,0,0,1.15-12.32c-.25-3.11-.82-6.19-1.36-9.17l-.25-1.37a60.29,60.29,0,0,1-.91-9.26c0-1.35,0-2.7,0-4V275a50.11,50.11,0,0,0-.68-7.66l.1.08V265.1a2,2,0,0,0,0-.54l-.44-2.39c-.51-2.8-1-5.61-1.55-8.41a128.9,128.9,0,0,1-1.86-14.17c-.39-5.14-.74-9.37-1.11-13.29a50.33,50.33,0,0,0-4-15.24q-1.05-2.42-2.11-4.81l-1.75-4a58.93,58.93,0,0,1-3.77-11.1,35.1,35.1,0,0,1-.53-11c.25-2.46.59-5,.92-7.38.13-1,.27-2,.4-2.94a41.86,41.86,0,0,0,.05-9.4l-.27-2.56c-.15-1.4-.31-2.84-.41-4.25a53.38,53.38,0,0,1,1.72-17.36c.31-1.19.62-2.37.94-3.55s.58-2.16.86-3.24a53.82,53.82,0,0,0,6,14.76c.39.65.79,1.29,1.19,1.94l.68,1.1.61,0,1.63.17-.54-1.52-.38-1-.85-2.19c-1.76-4.41-3.13-8.37-4.21-12.09a67.08,67.08,0,0,1-1.94-10.22l-.29-2.24c-.23-1.8-.46-3.6-.72-5.4a24.6,24.6,0,0,0-3.35-9.06,56.82,56.82,0,0,0-7-9.56c3.25.42,6.53.52,9.72.62l1.5,0h.62A27.87,27.87,0,0,0,62,94.59a17.27,17.27,0,0,0,8.68-3.83A48.66,48.66,0,0,0,76.61,85a32.24,32.24,0,0,1,4.84-4.56c.22-.16.45-.33.7-.49a79.21,79.21,0,0,0-5.23,11.53,41.71,41.71,0,0,0-2.58,13.05,25.35,25.35,0,0,0,4.4,15.81,33.34,33.34,0,0,0,4.55,5.41,25.11,25.11,0,0,0,9,5.14,41,41,0,0,0,10.17,2.07c1.44.12,2.89.19,4.31.19s2.73-.06,4.08-.17a36.62,36.62,0,0,0,17.67-6.11,51,51,0,0,0,8.67-7.49,70.51,70.51,0,0,0,7.53-9.67,42.79,42.79,0,0,0,3.38-6.31l.11-.24a22.34,22.34,0,0,1,3.71,1.21c1.14.47,2.26,1,3.1,1.36a68.66,68.66,0,0,0,17.67,5.37,25.18,25.18,0,0,0,3.83.37A64.05,64.05,0,0,1,189,112.9a37.24,37.24,0,0,0,7.28.79l2.92,0c4.67,0,9.45-.16,14.59-.5q4.74-.3,9.46-.65a93.61,93.61,0,0,0,25.88-5.24l.57-.21a17.18,17.18,0,0,0,1.82-.72c2.43-1.17,5-2.2,7.47-3.2,1.77-.72,3.6-1.46,5.39-2.25,4.42-2,8.33-3.81,11.95-5.7a93.76,93.76,0,0,0,26.11-20.19c2.42-2.67,4.78-5.47,7.06-8.17q1.39-1.66,2.8-3.31c1.09-1.28,2.18-2.58,3.26-3.87,2.93-3.47,5.95-7.07,9.11-10.43a123.14,123.14,0,0,1,14.13-13.18,59.76,59.76,0,0,1,16-9.12,27.74,27.74,0,0,1,6.27-1.63,7.75,7.75,0,0,1,1-.07,4.11,4.11,0,0,1,1.21.17,1.21,1.21,0,0,1,.29.1s0,.1,0,.25a4.12,4.12,0,0,1-.44,2.46l-.35.55A16.33,16.33,0,0,1,361,31.24c-1.61,1.71-3.4,3.48-5.32,5.24-1.16,1.06-2.39,2.09-3.59,3.09l-1.82,1.52a89.44,89.44,0,0,0-18.52,21.29l-.91,1.49q-1.22,2-2.39,3.91-1.37,2.31-2.72,4.62c-1.44,2.44-2.92,5-4.41,7.42a140,140,0,0,1-12.7,17.72,74.33,74.33,0,0,1-14.49,13.18c-3.42,2.37-7.23,4.78-11.65,7.39q-4,2.33-7.94,4.63c-.57.33-1.2.65-1.86,1a3.31,3.31,0,0,1-1.42.29h-.14a1.71,1.71,0,0,1-1.13-.43,42.82,42.82,0,0,0-6.42-4.3,4.11,4.11,0,0,0-.42-.21l-1.18-.56-.34,1.1a1.37,1.37,0,0,0,.81,1.74,66.12,66.12,0,0,1,7.68,6.23,54.64,54.64,0,0,1,10.19,13.86,107.54,107.54,0,0,1,10.84,31.08c.51,2.74.84,5.57,1.16,8.31.09.79.19,1.58.28,2.37.47,3.78.87,7.52,1.25,11,.17,1.54.32,3.09.48,4.64s.31,3.19.48,4.78c.11,1,.22,2.06.32,3.08a113.07,113.07,0,0,0,1.62,11.85A36.68,36.68,0,0,0,300.53,229a31.51,31.51,0,0,0,6.42,8.06c1.39,1.26,3,2.76,4.58,4.29a25.28,25.28,0,0,1,4.44,5.73,14.1,14.1,0,0,1,1.86,6.46,164.15,164.15,0,0,0,2,19.64c.67,4.2,1.73,8.35,2.76,12.37l.17.66c.39,1.51.78,3,1.15,4.55a56.94,56.94,0,0,0,3.21,9.52,39.85,39.85,0,0,1,2.7,7.84,21.5,21.5,0,0,1,.45,6.65,11.49,11.49,0,0,1-1.63,4.88,7.25,7.25,0,0,1-1.32,1.44l-.48.43a10.39,10.39,0,0,1-3.35,2.16,6,6,0,0,1-2.24.43,6.77,6.77,0,0,1-.89-.06,3.32,3.32,0,0,1-3-3.24,9.41,9.41,0,0,1,1-4.57c.41-.87.9-1.69,1.42-2.56.19-.32.38-.63.56-.95s.43-.7.69-1.11l1.8-2.89-2.48.69-.36.09a2.31,2.31,0,0,0-.73.27,4.24,4.24,0,0,0-.81.71,16.46,16.46,0,0,0-4.51,9,7.53,7.53,0,0,0,.67,4.59,9.87,9.87,0,0,1-2.95,1.25,9.6,9.6,0,0,1-5.88-.36,5.93,5.93,0,0,1-1.46-.77,2.83,2.83,0,0,1-1.25-2.47,7,7,0,0,1,.47-2.35,22.35,22.35,0,0,1,3.82-6.25c.24-.3.46-.61.69-.92l.39-.53-.2-.58-.07-.26-.17-.14a1.28,1.28,0,0,0-.88-.38,1.38,1.38,0,0,0-.9.38,19.2,19.2,0,0,0-5.93,7.57,13.29,13.29,0,0,0-.79,2.85,5.92,5.92,0,0,0,.45,3.29,8.37,8.37,0,0,1-2.85.54,6.82,6.82,0,0,1-1.36-.14,2.32,2.32,0,0,1-1.86-2.71,8.87,8.87,0,0,1,.41-2.05,13.72,13.72,0,0,1,2.9-5.07l.3-.33a7.08,7.08,0,0,0,.88-1l.07-.11a7.43,7.43,0,0,0,1.07-2.08c1.26-4.51,2.53-9.19,3.78-13.92a33.55,33.55,0,0,0,1.22-9.79,32,32,0,0,0-1.76-9.44,84.38,84.38,0,0,1-2.71-9.09,3.12,3.12,0,0,0-.14-.5l-.09-.31a15.7,15.7,0,0,0-6.53-9.4c-1.18-.81-2.36-1.61-3.56-2.38-4.44-2.9-9-5.89-13.24-9.19a59.88,59.88,0,0,1-12.52-13,67.65,67.65,0,0,0-8.21-9.84,42.28,42.28,0,0,0-9.38-7.09l.46-.95-.34-.28a2.23,2.23,0,0,0-.53-.38,15.55,15.55,0,0,0-6.59-1.77c-.46,0-.92,0-1.38,0a35.61,35.61,0,0,0-10.71,1.88,77.24,77.24,0,0,0-9,3.63c-1.14.52-2.27,1.06-3.41,1.59-3,1.4-6.08,2.84-9.17,4.14a107.87,107.87,0,0,1-22.47,6.81c-3.44.62-6.89,1.08-10.13,1.49-1.85.23-3.74.4-5.58.56l-1.89.17,1.08-4.68c1.29-5.55,2.57-11.11,3.89-16.66a94.45,94.45,0,0,0,2.26-27.42,101.33,101.33,0,0,0-1.6-14c-.23-1.19-.51-2.38-.79-3.53l-.32-1.32a1.59,1.59,0,0,0-.91-1.1l-1.54-.75.13,2.09c0,.3,0,.6.05.9,0,.46.08.93.13,1.39a171.65,171.65,0,0,1,1.28,25.48A91.08,91.08,0,0,1,167,211.75q-1.94,8.37-3.9,16.74l-2.11,9a49.13,49.13,0,0,0-1.32,10.55q-.18,12.9-.34,25.82c-.06,4.63-.37,9.48-.92,14.42a71.87,71.87,0,0,1-1.9,10.51,18.06,18.06,0,0,0,0,8.77c.19.81.35,1.62.51,2.44.09.48.19,1,.29,1.43a6.24,6.24,0,0,1-.26,3.39c-.47,1.35-1,2.65-1.57,3.87a35.44,35.44,0,0,0-2,5.44,19.35,19.35,0,0,0-.22,9,59.65,59.65,0,0,0,2.61,9.4,32.82,32.82,0,0,1,1.46,4.42,22.81,22.81,0,0,1,.68,7.57,10.53,10.53,0,0,1-2.23,5.77,8,8,0,0,1-6.58,3.26c-.32,0-.66,0-1-.05a4.47,4.47,0,0,1-.7-.11,17.24,17.24,0,0,0,2.1-6.3,8.89,8.89,0,0,0-2.17-7.47l-2.4-2.76.74,4c.05.23.08.41.11.59s0,.29.05.43.05.46.09.69a13.11,13.11,0,0,1-1.35,8.18,10.4,10.4,0,0,1-1.23,1.89,4.65,4.65,0,0,1-2.63,1.67,4.12,4.12,0,0,0-.67.24l0,0Z" transform="translate(-1 -1)"/><path class="cls-1" d="M138.85,364.69l-.07,0a4.26,4.26,0,0,0-.67-.2c-3-.61-4.37-2.28-4.42-5.28a20.52,20.52,0,0,1,1.68-8.41l.19-.44a16.56,16.56,0,0,0,.9-2.41l.84-3.21-2.63,2.34c-.14.13-.29.26-.42.4a14.46,14.46,0,0,0-3.36,6.62c-.32,1.17-.51,2.37-.71,3.54l-.07.45a9.78,9.78,0,0,0,.27,3.77l0,.13-.52.11-.32.05a7.58,7.58,0,0,1-1.56.16c-3.7,0-6.36-2.57-6.81-6.55.11-3.14.34-6.44,1.74-9.45l.93-1.95c.33-.67.65-1.34,1-2l.37-.81c.7-1.49,1.42-3,2.09-4.58a32.74,32.74,0,0,0,2.45-10.28l.13-1.39c.15-1.57.31-3.19.4-4.8A34.71,34.71,0,0,0,128.8,308c-.54-1.76-1.25-4.08-1.85-6.4a20.67,20.67,0,0,1-.54-6.64l.26-4q.26-3.84.5-7.68,0-.73.06-1.47c0-.38,0-.76,0-1.15l.15-2.55c.07-1.25.14-2.5.2-3.76A83.27,83.27,0,0,0,127,260a33.76,33.76,0,0,0-7.91-18.43c-2.88-3.33-5.81-6.62-8.69-9.77-4.12-4.51-7.69-8.58-10.92-12.46A67.46,67.46,0,0,1,90.39,205c-.17-.35-.34-.69-.52-1a1.33,1.33,0,0,0-.5-.49l-.14-.09-2.37-1.63,1,3.23c.09.29.16.55.25.8a50.35,50.35,0,0,0,8.06,14.82c2.45,3.18,5.26,6.54,8.61,10.26l9.37,10.44a139.25,139.25,0,0,1-13.8-3.47c-2-.67-3.69-1.27-5.19-1.91a31.18,31.18,0,0,1-9-5.79c-.25-.23-.52-.45-.78-.67l-.48-.39h-.52l-.31.09-1.31.33.82,1.37a4.52,4.52,0,0,0,.32.52,22.75,22.75,0,0,0,7.3,6.37,43.3,43.3,0,0,0,8.65,3.67l.91.3v0a112.13,112.13,0,0,0-2.7,13c-.41,3.15-.72,6.06-1,8.92q-.22,2.89-.4,5.78c-.16,2.33-.31,4.73-.53,7.08-.35,3.88-.8,8.47-1.45,13.05a38.81,38.81,0,0,0,.1,12.91c.08.44.13.89.19,1.33l0,.37a6.13,6.13,0,0,1-.45,3.13c-.35.84-.72,1.65-1.12,2.39a28.78,28.78,0,0,0-3,9.58l-.5,3.36q-.56,3.69-1.08,7.38c-.2,1.43-.38,2.87-.56,4.3-.09.8-.19,1.59-.29,2.38a21.69,21.69,0,0,1-1.73,5.9c-.47,1.07-.94,2.13-1.42,3.19s-.93,2-1.38,3.08a10.79,10.79,0,0,1-4.35,4.93,9.2,9.2,0,0,1-4.89,1.43,10.29,10.29,0,0,1-2.76-.4,3.56,3.56,0,0,1-2.87-4.13A11.52,11.52,0,0,1,72.08,343a7.22,7.22,0,0,1,3.85-1.89L77,340.9l.95-.21-.17-.95a1.29,1.29,0,0,0-1.29-1.12h-.61a8.73,8.73,0,0,0-6.51,2.78,15.21,15.21,0,0,0-4.3,9,8.7,8.7,0,0,0,.18,2.95,8.5,8.5,0,0,1-4.74,1.59,6.16,6.16,0,0,1-1-.07,8.09,8.09,0,0,1-2.23-.58,4.23,4.23,0,0,1-2.74-4.91c.66-4.05,2.79-6.55,6.52-7.65.29-.09.58-.17.88-.24l.48-.1,1.83-.36-.87-1.26a2.35,2.35,0,0,0-2-1.06,2.75,2.75,0,0,0-.4,0,8.64,8.64,0,0,0-3.4,1A12.2,12.2,0,0,0,51,349.93a7.3,7.3,0,0,0,.84,4,5.75,5.75,0,0,1-4.88-4.2,6,6,0,0,1,0-2.8A12.11,12.11,0,0,1,51.4,340,5.88,5.88,0,0,1,54,338.8l.32-.07.17,0a10.54,10.54,0,0,0,7.74-5,27.19,27.19,0,0,0,2.88-5.23,155,155,0,0,0,5.65-15.86,33.82,33.82,0,0,0,1.15-12.32c-.25-3.11-.82-6.19-1.36-9.17l-.25-1.37a60.29,60.29,0,0,1-.91-9.26c0-1.35,0-2.7,0-4V275a50.11,50.11,0,0,0-.68-7.66l.1.08V265.1a2,2,0,0,0,0-.54l-.44-2.39c-.51-2.8-1-5.61-1.55-8.41a128.9,128.9,0,0,1-1.86-14.17c-.39-5.14-.74-9.37-1.11-13.29a50.33,50.33,0,0,0-4-15.24q-1.05-2.42-2.11-4.81l-1.75-4a58.93,58.93,0,0,1-3.77-11.1,35.1,35.1,0,0,1-.53-11c.25-2.46.59-5,.92-7.38.13-1,.27-2,.4-2.94a41.86,41.86,0,0,0,.05-9.4l-.27-2.56c-.15-1.4-.31-2.84-.41-4.25a53.38,53.38,0,0,1,1.72-17.36c.31-1.19.62-2.37.94-3.55s.58-2.16.86-3.24a53.82,53.82,0,0,0,6,14.76c.39.65.79,1.29,1.19,1.94l.68,1.1.61,0,1.63.17-.54-1.52-.38-1-.85-2.19c-1.76-4.41-3.13-8.37-4.21-12.09a67.08,67.08,0,0,1-1.94-10.22l-.29-2.24c-.23-1.8-.46-3.6-.72-5.4a24.6,24.6,0,0,0-3.35-9.06,56.82,56.82,0,0,0-7-9.56c3.25.42,6.53.52,9.72.62l1.5,0h.62A27.87,27.87,0,0,0,62,94.59a17.27,17.27,0,0,0,8.68-3.83A48.66,48.66,0,0,0,76.61,85a32.24,32.24,0,0,1,4.84-4.56c.22-.16.45-.33.7-.49a79.21,79.21,0,0,0-5.23,11.53,41.71,41.71,0,0,0-2.58,13.05,25.35,25.35,0,0,0,4.4,15.81,33.34,33.34,0,0,0,4.55,5.41,25.11,25.11,0,0,0,9,5.14,41,41,0,0,0,10.17,2.07c1.44.12,2.89.19,4.31.19s2.73-.06,4.08-.17a36.62,36.62,0,0,0,17.67-6.11,51,51,0,0,0,8.67-7.49,70.51,70.51,0,0,0,7.53-9.67,42.79,42.79,0,0,0,3.38-6.31l.11-.24a22.34,22.34,0,0,1,3.71,1.21c1.14.47,2.26,1,3.1,1.36a68.66,68.66,0,0,0,17.67,5.37,25.18,25.18,0,0,0,3.83.37A64.05,64.05,0,0,1,189,112.9a37.24,37.24,0,0,0,7.28.79l2.92,0c4.67,0,9.45-.16,14.59-.5q4.74-.3,9.46-.65a93.61,93.61,0,0,0,25.88-5.24l.57-.21a17.18,17.18,0,0,0,1.82-.72c2.43-1.17,5-2.2,7.47-3.2,1.77-.72,3.6-1.46,5.39-2.25,4.42-2,8.33-3.81,11.95-5.7a93.76,93.76,0,0,0,26.11-20.19c2.42-2.67,4.78-5.47,7.06-8.17q1.39-1.66,2.8-3.31c1.09-1.28,2.18-2.58,3.26-3.87,2.93-3.47,5.95-7.07,9.11-10.43a123.14,123.14,0,0,1,14.13-13.18,59.76,59.76,0,0,1,16-9.12,27.74,27.74,0,0,1,6.27-1.63,7.75,7.75,0,0,1,1-.07,4.11,4.11,0,0,1,1.21.17,1.21,1.21,0,0,1,.29.1s0,.1,0,.25a4.12,4.12,0,0,1-.44,2.46l-.35.55A16.33,16.33,0,0,1,361,31.24c-1.61,1.71-3.4,3.48-5.32,5.24-1.16,1.06-2.39,2.09-3.59,3.09l-1.82,1.52a89.44,89.44,0,0,0-18.52,21.29l-.91,1.49q-1.22,2-2.39,3.91-1.37,2.31-2.72,4.62c-1.44,2.44-2.92,5-4.41,7.42a140,140,0,0,1-12.7,17.72,74.33,74.33,0,0,1-14.49,13.18c-3.42,2.37-7.23,4.78-11.65,7.39q-4,2.33-7.94,4.63c-.57.33-1.2.65-1.86,1a3.31,3.31,0,0,1-1.42.29h-.14a1.71,1.71,0,0,1-1.13-.43,42.82,42.82,0,0,0-6.42-4.3,4.11,4.11,0,0,0-.42-.21l-1.18-.56-.34,1.1a1.37,1.37,0,0,0,.81,1.74,66.12,66.12,0,0,1,7.68,6.23,54.64,54.64,0,0,1,10.19,13.86,107.54,107.54,0,0,1,10.84,31.08c.51,2.74.84,5.57,1.16,8.31.09.79.19,1.58.28,2.37.47,3.78.87,7.52,1.25,11,.17,1.54.32,3.09.48,4.64s.31,3.19.48,4.78c.11,1,.22,2.06.32,3.08a113.07,113.07,0,0,0,1.62,11.85A36.68,36.68,0,0,0,300.53,229a31.51,31.51,0,0,0,6.42,8.06c1.39,1.26,3,2.76,4.58,4.29a25.28,25.28,0,0,1,4.44,5.73,14.1,14.1,0,0,1,1.86,6.46,164.15,164.15,0,0,0,2,19.64c.67,4.2,1.73,8.35,2.76,12.37l.17.66c.39,1.51.78,3,1.15,4.55a56.94,56.94,0,0,0,3.21,9.52,39.85,39.85,0,0,1,2.7,7.84,21.5,21.5,0,0,1,.45,6.65,11.49,11.49,0,0,1-1.63,4.88,7.25,7.25,0,0,1-1.32,1.44l-.48.43a10.39,10.39,0,0,1-3.35,2.16,6,6,0,0,1-2.24.43,6.77,6.77,0,0,1-.89-.06,3.32,3.32,0,0,1-3-3.24,9.41,9.41,0,0,1,1-4.57c.41-.87.9-1.69,1.42-2.56.19-.32.38-.63.56-.95s.43-.7.69-1.11l1.8-2.89-2.48.69-.36.09a2.31,2.31,0,0,0-.73.27,4.24,4.24,0,0,0-.81.71,16.46,16.46,0,0,0-4.51,9,7.53,7.53,0,0,0,.67,4.59,9.87,9.87,0,0,1-2.95,1.25,9.6,9.6,0,0,1-5.88-.36,5.93,5.93,0,0,1-1.46-.77,2.83,2.83,0,0,1-1.25-2.47,7,7,0,0,1,.47-2.35,22.35,22.35,0,0,1,3.82-6.25c.24-.3.46-.61.69-.92l.39-.53-.2-.58-.07-.26-.17-.14a1.28,1.28,0,0,0-.88-.38,1.38,1.38,0,0,0-.9.38,19.2,19.2,0,0,0-5.93,7.57,13.29,13.29,0,0,0-.79,2.85,5.92,5.92,0,0,0,.45,3.29,8.37,8.37,0,0,1-2.85.54,6.82,6.82,0,0,1-1.36-.14,2.32,2.32,0,0,1-1.86-2.71,8.87,8.87,0,0,1,.41-2.05,13.72,13.72,0,0,1,2.9-5.07l.3-.33a7.08,7.08,0,0,0,.88-1l.07-.11a7.43,7.43,0,0,0,1.07-2.08c1.26-4.51,2.53-9.19,3.78-13.92a33.55,33.55,0,0,0,1.22-9.79,32,32,0,0,0-1.76-9.44,84.38,84.38,0,0,1-2.71-9.09,3.12,3.12,0,0,0-.14-.5l-.09-.31a15.7,15.7,0,0,0-6.53-9.4c-1.18-.81-2.36-1.61-3.56-2.38-4.44-2.9-9-5.89-13.24-9.19a59.88,59.88,0,0,1-12.52-13,67.65,67.65,0,0,0-8.21-9.84,42.28,42.28,0,0,0-9.38-7.09l.46-.95-.34-.28a2.23,2.23,0,0,0-.53-.38,15.55,15.55,0,0,0-6.59-1.77c-.46,0-.92,0-1.38,0a35.61,35.61,0,0,0-10.71,1.88,77.24,77.24,0,0,0-9,3.63c-1.14.52-2.27,1.06-3.41,1.59-3,1.4-6.08,2.84-9.17,4.14a107.87,107.87,0,0,1-22.47,6.81c-3.44.62-6.89,1.08-10.13,1.49-1.85.23-3.74.4-5.58.56l-1.89.17,1.08-4.68c1.29-5.55,2.57-11.11,3.89-16.66a94.45,94.45,0,0,0,2.26-27.42,101.33,101.33,0,0,0-1.6-14c-.23-1.19-.51-2.38-.79-3.53l-.32-1.32a1.59,1.59,0,0,0-.91-1.1l-1.54-.75.13,2.09c0,.3,0,.6.05.9,0,.46.08.93.13,1.39a171.65,171.65,0,0,1,1.28,25.48A91.08,91.08,0,0,1,167,211.75q-1.94,8.37-3.9,16.74l-2.11,9a49.13,49.13,0,0,0-1.32,10.55q-.18,12.9-.34,25.82c-.06,4.63-.37,9.48-.92,14.42a71.87,71.87,0,0,1-1.9,10.51,18.06,18.06,0,0,0,0,8.77c.19.81.35,1.62.51,2.44.09.48.19,1,.29,1.43a6.24,6.24,0,0,1-.26,3.39c-.47,1.35-1,2.65-1.57,3.87a35.44,35.44,0,0,0-2,5.44,19.35,19.35,0,0,0-.22,9,59.65,59.65,0,0,0,2.61,9.4,32.82,32.82,0,0,1,1.46,4.42,22.81,22.81,0,0,1,.68,7.57,10.53,10.53,0,0,1-2.23,5.77,8,8,0,0,1-6.58,3.26c-.32,0-.66,0-1-.05a4.47,4.47,0,0,1-.7-.11,17.24,17.24,0,0,0,2.1-6.3,8.89,8.89,0,0,0-2.17-7.47l-2.4-2.76.74,4c.05.23.08.41.11.59s0,.29.05.43.05.46.09.69a13.11,13.11,0,0,1-1.35,8.18,10.4,10.4,0,0,1-1.23,1.89,4.65,4.65,0,0,1-2.63,1.67,4.12,4.12,0,0,0-.67.24l0,0Z" transform="translate(-1 -1)"/><path class="cls-1" d="M106.83,129.32a49,49,0,0,1-4.92-.25,41.7,41.7,0,0,1-7.36-1.4,23.51,23.51,0,0,1-12-7.93A19.89,19.89,0,0,1,78.1,108.9a35.73,35.73,0,0,1,2.09-15.63,74.59,74.59,0,0,1,8.94-17.73c2.18-3.21,4.56-6.38,6.87-9.45l1.12-1.49A75.85,75.85,0,0,0,102.94,56a39.65,39.65,0,0,0,4.71-13,32.72,32.72,0,0,0,.4-3.8,62.51,62.51,0,0,0-.23-9.2,21.15,21.15,0,0,0-1.17-5.18,3.58,3.58,0,0,0-.24-.48l-.43-.77-1.8.4.1.93.15,1c.12.72.23,1.44.3,2.16a63.46,63.46,0,0,1,0,10.4,32.88,32.88,0,0,1-2.69,11.07,52.31,52.31,0,0,1-5.91,10.25q-1.32,1.77-2.67,3.52c-1.06,1.39-2.16,2.82-3.21,4.27C88.49,70,86.73,72.59,85,75.09l-.3.46a1.41,1.41,0,0,1-.8.67,18.08,18.08,0,0,0-6.86,4c-.83.73-1.61,1.51-2.37,2.27l-1.21,1.2-1,1c-1,1-2,2-3,2.9a15.66,15.66,0,0,1-10.77,4h-.19c-1.53,0-3.11-.11-4.64-.22l-.44,0A66.33,66.33,0,0,1,42.17,89.7,56.92,56.92,0,0,1,36.35,88,32.88,32.88,0,0,1,19,73.37c-.73-1.22-1.37-2.54-2-3.83l-.48-1a19,19,0,0,0-2.52-4,9.19,9.19,0,0,0-2.83-2.34,4.31,4.31,0,0,0-2-.5A3.89,3.89,0,0,0,6,63.43a7,7,0,0,0-1.26,3.9c0,.52,0,1,0,1.58,0,.31,0,.62,0,.93,0,.48,0,1,0,1.43l0,.31c0,.13,0,.3-.35.55l-.08.07,0,0A8.89,8.89,0,0,1,3,70.67a13.82,13.82,0,0,1-1.85-5.28,24.53,24.53,0,0,1,.9-9.65,47.48,47.48,0,0,1,2.12-6.22A14.18,14.18,0,0,0,9.4,56a2.88,2.88,0,0,0,1.7.56,3.05,3.05,0,0,0,.6-.06l.38-.07L14.39,56l1.26-.22c1.69-.3,3.39-.6,5.08-.88a14.85,14.85,0,0,0,9.21-5.6,7.46,7.46,0,0,0,1-8,11.14,11.14,0,0,0-2.62-3.66,24.69,24.69,0,0,0-8-5.1L18.89,32l-.79-.28a10.12,10.12,0,0,0-1.56-.44,31,31,0,0,1,3.59-.88c3.48-.67,7-1.28,10.48-1.87l.31-.06a59.31,59.31,0,0,0,12-3.1,24.77,24.77,0,0,0,8.9-5.82,2.28,2.28,0,0,0,.63-1.18l.4-2.28-1.94,1.27-1.55,1C48.21,19.19,47,20,45.83,20.7a17.58,17.58,0,0,1-1.61.85,32.39,32.39,0,0,0,2-2.64l2.51-3.78A27.18,27.18,0,0,1,54,9.44,34.87,34.87,0,0,1,69.39,2.11a47.31,47.31,0,0,1,6.5-1C76.5,1,77.12,1,77.73,1a27.61,27.61,0,0,1,9.46,1.77c2.28.82,4.57,1.78,6.7,2.68q2.2.94,4.4,1.92c2.1.93,4.28,1.89,6.45,2.77A29.59,29.59,0,0,1,115.79,18c.79.87,1.6,1.82,2.49,2.88a46,46,0,0,0,4.47,4.65l.32.29c1.31,1.19,2.68,2.43,3.91,3.73a24.69,24.69,0,0,1,6.18,11.16,13.49,13.49,0,0,0-4.68-2.51l-.95,1.7.13.13a4.65,4.65,0,0,0,.48.42c5,3.59,8.53,8.43,11.57,13.14a19,19,0,0,1,2.65,7.58c.09.62.18,1.24.26,1.87.21,1.49.42,3,.75,4.56.43,2,.95,4,1.45,5.91l.72,2.77a48.54,48.54,0,0,1,1.76,12.62,33,33,0,0,1-3.84,15.37A57.3,57.3,0,0,1,128.71,122,32.6,32.6,0,0,1,113,128.88,43.19,43.19,0,0,1,106.83,129.32ZM81.27,44.82,83,44.64l.09-.8c0-.22.06-.45.09-.68a7.56,7.56,0,0,0,.14-1.8A14.76,14.76,0,0,0,79,31.83a7.33,7.33,0,0,0-1.48-1l-.18-.11a2.12,2.12,0,0,0-1.1-.3,2.51,2.51,0,0,0-1,.21,9.61,9.61,0,0,0-5.57,6.26,2.29,2.29,0,0,0,.53,2.37c2.85,3.07,6,4.56,9.66,4.56l.93,0Z" transform="translate(-1 -1)"/><path class="cls-1" d="M106.83,129.32a49,49,0,0,1-4.92-.25,41.7,41.7,0,0,1-7.36-1.4,23.51,23.51,0,0,1-12-7.93A19.89,19.89,0,0,1,78.1,108.9a35.73,35.73,0,0,1,2.09-15.63,74.59,74.59,0,0,1,8.94-17.73c2.18-3.21,4.56-6.38,6.87-9.45l1.12-1.49A75.85,75.85,0,0,0,102.94,56a39.65,39.65,0,0,0,4.71-13,32.72,32.72,0,0,0,.4-3.8,62.51,62.51,0,0,0-.23-9.2,21.15,21.15,0,0,0-1.17-5.18,3.58,3.58,0,0,0-.24-.48l-.43-.77-1.8.4.1.93.15,1c.12.72.23,1.44.3,2.16a63.46,63.46,0,0,1,0,10.4,32.88,32.88,0,0,1-2.69,11.07,52.31,52.31,0,0,1-5.91,10.25q-1.32,1.77-2.67,3.52c-1.06,1.39-2.16,2.82-3.21,4.27C88.49,70,86.73,72.59,85,75.09l-.3.46a1.41,1.41,0,0,1-.8.67,18.08,18.08,0,0,0-6.86,4c-.83.73-1.61,1.51-2.37,2.27l-1.21,1.2-1,1c-1,1-2,2-3,2.9a15.66,15.66,0,0,1-10.77,4h-.19c-1.53,0-3.11-.11-4.64-.22l-.44,0A66.33,66.33,0,0,1,42.17,89.7,56.92,56.92,0,0,1,36.35,88,32.88,32.88,0,0,1,19,73.37c-.73-1.22-1.37-2.54-2-3.83l-.48-1a19,19,0,0,0-2.52-4,9.19,9.19,0,0,0-2.83-2.34,4.31,4.31,0,0,0-2-.5A3.89,3.89,0,0,0,6,63.43a7,7,0,0,0-1.26,3.9c0,.52,0,1,0,1.58,0,.31,0,.62,0,.93,0,.48,0,1,0,1.43l0,.31c0,.13,0,.3-.35.55l-.08.07,0,0A8.89,8.89,0,0,1,3,70.67a13.82,13.82,0,0,1-1.85-5.28,24.53,24.53,0,0,1,.9-9.65,47.48,47.48,0,0,1,2.12-6.22A14.18,14.18,0,0,0,9.4,56a2.88,2.88,0,0,0,1.7.56,3.05,3.05,0,0,0,.6-.06l.38-.07L14.39,56l1.26-.22c1.69-.3,3.39-.6,5.08-.88a14.85,14.85,0,0,0,9.21-5.6,7.46,7.46,0,0,0,1-8,11.14,11.14,0,0,0-2.62-3.66,24.69,24.69,0,0,0-8-5.1L18.89,32l-.79-.28a10.12,10.12,0,0,0-1.56-.44,31,31,0,0,1,3.59-.88c3.48-.67,7-1.28,10.48-1.87l.31-.06a59.31,59.31,0,0,0,12-3.1,24.77,24.77,0,0,0,8.9-5.82,2.28,2.28,0,0,0,.63-1.18l.4-2.28-1.94,1.27-1.55,1C48.21,19.19,47,20,45.83,20.7a17.58,17.58,0,0,1-1.61.85,32.39,32.39,0,0,0,2-2.64l2.51-3.78A27.18,27.18,0,0,1,54,9.44,34.87,34.87,0,0,1,69.39,2.11a47.31,47.31,0,0,1,6.5-1C76.5,1,77.12,1,77.73,1a27.61,27.61,0,0,1,9.46,1.77c2.28.82,4.57,1.78,6.7,2.68q2.2.94,4.4,1.92c2.1.93,4.28,1.89,6.45,2.77A29.59,29.59,0,0,1,115.79,18c.79.87,1.6,1.82,2.49,2.88a46,46,0,0,0,4.47,4.65l.32.29c1.31,1.19,2.68,2.43,3.91,3.73a24.69,24.69,0,0,1,6.18,11.16,13.49,13.49,0,0,0-4.68-2.51l-.95,1.7.13.13a4.65,4.65,0,0,0,.48.42c5,3.59,8.53,8.43,11.57,13.14a19,19,0,0,1,2.65,7.58c.09.62.18,1.24.26,1.87.21,1.49.42,3,.75,4.56.43,2,.95,4,1.45,5.91l.72,2.77a48.54,48.54,0,0,1,1.76,12.62,33,33,0,0,1-3.84,15.37A57.3,57.3,0,0,1,128.71,122,32.6,32.6,0,0,1,113,128.88,43.19,43.19,0,0,1,106.83,129.32ZM81.27,44.82,83,44.64l.09-.8c0-.22.06-.45.09-.68a7.56,7.56,0,0,0,.14-1.8A14.76,14.76,0,0,0,79,31.83a7.33,7.33,0,0,0-1.48-1l-.18-.11a2.12,2.12,0,0,0-1.1-.3,2.51,2.51,0,0,0-1,.21,9.61,9.61,0,0,0-5.57,6.26,2.29,2.29,0,0,0,.53,2.37c2.85,3.07,6,4.56,9.66,4.56l.93,0Z" transform="translate(-1 -1)"/><path class="cls-1" d="M245.56,319.74a7.43,7.43,0,0,1-3.39-.85c-2.17-1.1-3.11-3-2.94-6a9.58,9.58,0,0,1,.5-2.42,6.42,6.42,0,0,1,4.12-4.36l.9-.34,3.26-1.26-2.88-.82a5.12,5.12,0,0,0-1.39-.19,6,6,0,0,0-2,.37,7,7,0,0,0-3.12,2.16A11.68,11.68,0,0,0,236,316.4a8.11,8.11,0,0,0,.89,2.33,6.4,6.4,0,0,1-5.64-8.12,7.92,7.92,0,0,1,5.43-6.14l.48-.17a5.21,5.21,0,0,1,1.69-.41h.34a2.91,2.91,0,0,0,1.34-.43c.12-.06.24-.13.36-.18l2.1-.86-1.94-.92a1.59,1.59,0,0,1,.12-.27,28.65,28.65,0,0,0,2.5-8c.39-2.22.89-4.62,1.52-7.34a28.16,28.16,0,0,0,.34-10.46c-.17-1.24-.37-2.57-.68-3.87a9.39,9.39,0,0,0-3.37-5.35,10.55,10.55,0,0,1-2.91-3.58c-.52-1-1-2-1.52-3L236,257.52c-.28-.58-.57-1.17-.88-1.74a9.52,9.52,0,0,0-4.35-4.16l-.63-.31c-.87-.42-1.78-.85-2.63-1.32l-1.43-.8c-2.39-1.33-4.87-2.71-7.24-4.15a34.94,34.94,0,0,1-7.92-6.7,32,32,0,0,1-5.55-8.82c4.41-1.7,8.62-3.73,12.56-5.66a76.65,76.65,0,0,1,11-4.62,46.86,46.86,0,0,1,6.38-1.59,8.54,8.54,0,0,1,1.39-.13,4.3,4.3,0,0,1,1.28.18c1.11.33,2.08.59,3,.8.25.06.37.13.44.52s.11.67.16,1c.08.53.15,1.06.26,1.59l.18.93c.25,1.3.51,2.65.86,4a12,12,0,0,0,4.54,6.67c1.07.8,2.26,1.63,3.66,2.54A57.2,57.2,0,0,1,259,242c.39.37.77.75,1.15,1.14a6.36,6.36,0,0,1,1.92,4.25,54.05,54.05,0,0,1-.07,7.69c-.21,3.14-.34,5.68-.41,8a23,23,0,0,0,1,7.07c.24.86.55,2,.8,3.13a5.51,5.51,0,0,1-.19,3.44c-1.72,3.92-1.44,7.93-.94,11.34.15,1,.31,2.08.47,3.11.31,2,.63,4.07.88,6.1a40.73,40.73,0,0,1-.16,12l-.19,1.09c-.18,1-.37,2.09-.51,3.15a6,6,0,0,1-2.3,4,10.41,10.41,0,0,1-2.22,1.37,3.24,3.24,0,0,1-3.43-.39,5.11,5.11,0,0,1-2.19-3.53,8,8,0,0,1,2-6.58,4.58,4.58,0,0,1,1.71-1.26,4.6,4.6,0,0,0,.5-.25l3-1.57-2.91-.51-.41-.08a2.89,2.89,0,0,0-.59-.08h-.2a5.16,5.16,0,0,0-3,1.37,10.66,10.66,0,0,0-3.45,10.49,9.66,9.66,0,0,0,.64,1.78l0,.09a3.05,3.05,0,0,1-.32.22A8.06,8.06,0,0,1,245.56,319.74Z" transform="translate(-1 -1)"/><path class="cls-1" d="M245.56,319.74a7.43,7.43,0,0,1-3.39-.85c-2.17-1.1-3.11-3-2.94-6a9.58,9.58,0,0,1,.5-2.42,6.42,6.42,0,0,1,4.12-4.36l.9-.34,3.26-1.26-2.88-.82a5.12,5.12,0,0,0-1.39-.19,6,6,0,0,0-2,.37,7,7,0,0,0-3.12,2.16A11.68,11.68,0,0,0,236,316.4a8.11,8.11,0,0,0,.89,2.33,6.4,6.4,0,0,1-5.64-8.12,7.92,7.92,0,0,1,5.43-6.14l.48-.17a5.21,5.21,0,0,1,1.69-.41h.34a2.91,2.91,0,0,0,1.34-.43c.12-.06.24-.13.36-.18l2.1-.86-1.94-.92a1.59,1.59,0,0,1,.12-.27,28.65,28.65,0,0,0,2.5-8c.39-2.22.89-4.62,1.52-7.34a28.16,28.16,0,0,0,.34-10.46c-.17-1.24-.37-2.57-.68-3.87a9.39,9.39,0,0,0-3.37-5.35,10.55,10.55,0,0,1-2.91-3.58c-.52-1-1-2-1.52-3L236,257.52c-.28-.58-.57-1.17-.88-1.74a9.52,9.52,0,0,0-4.35-4.16l-.63-.31c-.87-.42-1.78-.85-2.63-1.32l-1.43-.8c-2.39-1.33-4.87-2.71-7.24-4.15a34.94,34.94,0,0,1-7.92-6.7,32,32,0,0,1-5.55-8.82c4.41-1.7,8.62-3.73,12.56-5.66a76.65,76.65,0,0,1,11-4.62,46.86,46.86,0,0,1,6.38-1.59,8.54,8.54,0,0,1,1.39-.13,4.3,4.3,0,0,1,1.28.18c1.11.33,2.08.59,3,.8.25.06.37.13.44.52s.11.67.16,1c.08.53.15,1.06.26,1.59l.18.93c.25,1.3.51,2.65.86,4a12,12,0,0,0,4.54,6.67c1.07.8,2.26,1.63,3.66,2.54A57.2,57.2,0,0,1,259,242c.39.37.77.75,1.15,1.14a6.36,6.36,0,0,1,1.92,4.25,54.05,54.05,0,0,1-.07,7.69c-.21,3.14-.34,5.68-.41,8a23,23,0,0,0,1,7.07c.24.86.55,2,.8,3.13a5.51,5.51,0,0,1-.19,3.44c-1.72,3.92-1.44,7.93-.94,11.34.15,1,.31,2.08.47,3.11.31,2,.63,4.07.88,6.1a40.73,40.73,0,0,1-.16,12l-.19,1.09c-.18,1-.37,2.09-.51,3.15a6,6,0,0,1-2.3,4,10.41,10.41,0,0,1-2.22,1.37,3.24,3.24,0,0,1-3.43-.39,5.11,5.11,0,0,1-2.19-3.53,8,8,0,0,1,2-6.58,4.58,4.58,0,0,1,1.71-1.26,4.6,4.6,0,0,0,.5-.25l3-1.57-2.91-.51-.41-.08a2.89,2.89,0,0,0-.59-.08h-.2a5.16,5.16,0,0,0-3,1.37,10.66,10.66,0,0,0-3.45,10.49,9.66,9.66,0,0,0,.64,1.78l0,.09a3.05,3.05,0,0,1-.32.22A8.06,8.06,0,0,1,245.56,319.74Z" transform="translate(-1 -1)"/><path class="cls-1" d="M10.49,52.86a20.83,20.83,0,0,1-1.94-2.69A11,11,0,0,1,8.92,38a7.64,7.64,0,0,1,5.46-3.54,4.71,4.71,0,0,1,.74-.06,4,4,0,0,1,1.35.23,26.42,26.42,0,0,1,9,5.18,11.22,11.22,0,0,1,1.94,2.3,4.26,4.26,0,0,1-.46,5.3,11.51,11.51,0,0,1-7.8,4.28,26.7,26.7,0,0,0-8,2Z" transform="translate(-1 -1)"/><path class="cls-1" d="M10.49,52.86a20.83,20.83,0,0,1-1.94-2.69A11,11,0,0,1,8.92,38a7.64,7.64,0,0,1,5.46-3.54,4.71,4.71,0,0,1,.74-.06,4,4,0,0,1,1.35.23,26.42,26.42,0,0,1,9,5.18,11.22,11.22,0,0,1,1.94,2.3,4.26,4.26,0,0,1-.46,5.3,11.51,11.51,0,0,1-7.8,4.28,26.7,26.7,0,0,0-8,2Z" transform="translate(-1 -1)"/><path class="cls-1" d="M27.92,88A46.69,46.69,0,0,1,17.7,83.23,43.59,43.59,0,0,1,7.12,73.55a10.92,10.92,0,0,0,.76-4.7,14.86,14.86,0,0,1,.21-2.29,2.34,2.34,0,0,1,.64-1.27.76.76,0,0,1,.4-.25.46.46,0,0,1,.23.09A7.69,7.69,0,0,1,11,66.41a11.07,11.07,0,0,1,2,3.18c.18.39.35.79.53,1.18.34.77.69,1.57,1.08,2.35A37.27,37.27,0,0,0,27.92,88Z" transform="translate(-1 -1)"/><path class="cls-1" d="M27.92,88A46.69,46.69,0,0,1,17.7,83.23,43.59,43.59,0,0,1,7.12,73.55a10.92,10.92,0,0,0,.76-4.7,14.86,14.86,0,0,1,.21-2.29,2.34,2.34,0,0,1,.64-1.27.76.76,0,0,1,.4-.25.46.46,0,0,1,.23.09A7.69,7.69,0,0,1,11,66.41a11.07,11.07,0,0,1,2,3.18c.18.39.35.79.53,1.18.34.77.69,1.57,1.08,2.35A37.27,37.27,0,0,0,27.92,88Z" transform="translate(-1 -1)"/><path class="cls-1" d="M138.85,364.69l-.07,0a4.26,4.26,0,0,0-.67-.2c-3-.61-4.37-2.28-4.42-5.28a20.52,20.52,0,0,1,1.68-8.41l.19-.44a16.56,16.56,0,0,0,.9-2.41l.84-3.21-2.63,2.34c-.14.13-.29.26-.42.4a14.46,14.46,0,0,0-3.36,6.62c-.32,1.17-.51,2.37-.71,3.54l-.07.45a9.78,9.78,0,0,0,.27,3.77l0,.13-.52.11-.32.05a7.58,7.58,0,0,1-1.56.16c-3.7,0-6.36-2.57-6.81-6.55.11-3.14.34-6.44,1.74-9.45l.93-1.95c.33-.67.65-1.34,1-2l.37-.81c.7-1.49,1.42-3,2.09-4.58a32.74,32.74,0,0,0,2.45-10.28l.13-1.39c.15-1.57.31-3.19.4-4.8A34.71,34.71,0,0,0,128.8,308c-.54-1.76-1.25-4.08-1.85-6.4a20.67,20.67,0,0,1-.54-6.64l.26-4q.26-3.84.5-7.68,0-.73.06-1.47c0-.38,0-.76,0-1.15l.15-2.55c.07-1.25.14-2.5.2-3.76A83.27,83.27,0,0,0,127,260a33.76,33.76,0,0,0-7.91-18.43c-2.88-3.33-5.81-6.62-8.69-9.77-4.12-4.51-7.69-8.58-10.92-12.46A67.46,67.46,0,0,1,90.39,205c-.17-.35-.34-.69-.52-1a1.33,1.33,0,0,0-.5-.49l-.14-.09-2.37-1.63,1,3.23c.09.29.16.55.25.8a50.35,50.35,0,0,0,8.06,14.82c2.45,3.18,5.26,6.54,8.61,10.26l9.37,10.44a139.25,139.25,0,0,1-13.8-3.47c-2-.67-3.69-1.27-5.19-1.91a31.18,31.18,0,0,1-9-5.79c-.25-.23-.52-.45-.78-.67l-.48-.39h-.52l-.31.09-1.31.33.82,1.37a4.52,4.52,0,0,0,.32.52,22.75,22.75,0,0,0,7.3,6.37,43.3,43.3,0,0,0,8.65,3.67l.91.3v0a112.13,112.13,0,0,0-2.7,13c-.41,3.15-.72,6.06-1,8.92q-.22,2.89-.4,5.78c-.16,2.33-.31,4.73-.53,7.08-.35,3.88-.8,8.47-1.45,13.05a38.81,38.81,0,0,0,.1,12.91c.08.44.13.89.19,1.33l0,.37a6.13,6.13,0,0,1-.45,3.13c-.35.84-.72,1.65-1.12,2.39a28.78,28.78,0,0,0-3,9.58l-.5,3.36q-.56,3.69-1.08,7.38c-.2,1.43-.38,2.87-.56,4.3-.09.8-.19,1.59-.29,2.38a21.69,21.69,0,0,1-1.73,5.9c-.47,1.07-.94,2.13-1.42,3.19s-.93,2-1.38,3.08a10.79,10.79,0,0,1-4.35,4.93,9.2,9.2,0,0,1-4.89,1.43,10.29,10.29,0,0,1-2.76-.4,3.56,3.56,0,0,1-2.87-4.13A11.52,11.52,0,0,1,72.08,343a7.22,7.22,0,0,1,3.85-1.89L77,340.9l.95-.21-.17-.95a1.29,1.29,0,0,0-1.29-1.12h-.61a8.73,8.73,0,0,0-6.51,2.78,15.21,15.21,0,0,0-4.3,9,8.7,8.7,0,0,0,.18,2.95,8.5,8.5,0,0,1-4.74,1.59,6.16,6.16,0,0,1-1-.07,8.09,8.09,0,0,1-2.23-.58,4.23,4.23,0,0,1-2.74-4.91c.66-4.05,2.79-6.55,6.52-7.65.29-.09.58-.17.88-.24l.48-.1,1.83-.36-.87-1.26a2.35,2.35,0,0,0-2-1.06,2.75,2.75,0,0,0-.4,0,8.64,8.64,0,0,0-3.4,1A12.2,12.2,0,0,0,51,349.93a7.3,7.3,0,0,0,.84,4,5.75,5.75,0,0,1-4.88-4.2,6,6,0,0,1,0-2.8A12.11,12.11,0,0,1,51.4,340,5.88,5.88,0,0,1,54,338.8l.32-.07.17,0a10.54,10.54,0,0,0,7.74-5,27.19,27.19,0,0,0,2.88-5.23,155,155,0,0,0,5.65-15.86,33.82,33.82,0,0,0,1.15-12.32c-.25-3.11-.82-6.19-1.36-9.17l-.25-1.37a60.29,60.29,0,0,1-.91-9.26c0-1.35,0-2.7,0-4V275a50.11,50.11,0,0,0-.68-7.66l.1.08V265.1a2,2,0,0,0,0-.54l-.44-2.39c-.51-2.8-1-5.61-1.55-8.41a128.9,128.9,0,0,1-1.86-14.17c-.39-5.14-.74-9.37-1.11-13.29a50.33,50.33,0,0,0-4-15.24q-1.05-2.42-2.11-4.81l-1.75-4a58.93,58.93,0,0,1-3.77-11.1,35.1,35.1,0,0,1-.53-11c.25-2.46.59-5,.92-7.38.13-1,.27-2,.4-2.94a41.86,41.86,0,0,0,.05-9.4l-.27-2.56c-.15-1.4-.31-2.84-.41-4.25a53.38,53.38,0,0,1,1.72-17.36c.31-1.19.62-2.37.94-3.55s.58-2.16.86-3.24a53.82,53.82,0,0,0,6,14.76c.39.65.79,1.29,1.19,1.94l.68,1.1.61,0,1.63.17-.54-1.52-.38-1-.85-2.19c-1.76-4.41-3.13-8.37-4.21-12.09a67.08,67.08,0,0,1-1.94-10.22l-.29-2.24c-.23-1.8-.46-3.6-.72-5.4a24.6,24.6,0,0,0-3.35-9.06,56.82,56.82,0,0,0-7-9.56c3.25.42,6.53.52,9.72.62l1.5,0h.62A27.87,27.87,0,0,0,62,94.59a17.27,17.27,0,0,0,8.68-3.83A48.66,48.66,0,0,0,76.61,85a32.24,32.24,0,0,1,4.84-4.56c.22-.16.45-.33.7-.49a79.21,79.21,0,0,0-5.23,11.53,41.71,41.71,0,0,0-2.58,13.05,25.35,25.35,0,0,0,4.4,15.81,33.34,33.34,0,0,0,4.55,5.41,25.11,25.11,0,0,0,9,5.14,41,41,0,0,0,10.17,2.07c1.44.12,2.89.19,4.31.19s2.73-.06,4.08-.17a36.62,36.62,0,0,0,17.67-6.11,51,51,0,0,0,8.67-7.49,70.51,70.51,0,0,0,7.53-9.67,42.79,42.79,0,0,0,3.38-6.31l.11-.24a22.34,22.34,0,0,1,3.71,1.21c1.14.47,2.26,1,3.1,1.36a68.66,68.66,0,0,0,17.67,5.37,25.18,25.18,0,0,0,3.83.37A64.05,64.05,0,0,1,189,112.9a37.24,37.24,0,0,0,7.28.79l2.92,0c4.67,0,9.45-.16,14.59-.5q4.74-.3,9.46-.65a93.61,93.61,0,0,0,25.88-5.24l.57-.21a17.18,17.18,0,0,0,1.82-.72c2.43-1.17,5-2.2,7.47-3.2,1.77-.72,3.6-1.46,5.39-2.25,4.42-2,8.33-3.81,11.95-5.7a93.76,93.76,0,0,0,26.11-20.19c2.42-2.67,4.78-5.47,7.06-8.17q1.39-1.66,2.8-3.31c1.09-1.28,2.18-2.58,3.26-3.87,2.93-3.47,5.95-7.07,9.11-10.43a123.14,123.14,0,0,1,14.13-13.18,59.76,59.76,0,0,1,16-9.12,27.74,27.74,0,0,1,6.27-1.63,7.75,7.75,0,0,1,1-.07,4.11,4.11,0,0,1,1.21.17,1.21,1.21,0,0,1,.29.1s0,.1,0,.25a4.12,4.12,0,0,1-.44,2.46l-.35.55A16.33,16.33,0,0,1,361,31.24c-1.61,1.71-3.4,3.48-5.32,5.24-1.16,1.06-2.39,2.09-3.59,3.09l-1.82,1.52a89.44,89.44,0,0,0-18.52,21.29l-.91,1.49q-1.22,2-2.39,3.91-1.37,2.31-2.72,4.62c-1.44,2.44-2.92,5-4.41,7.42a140,140,0,0,1-12.7,17.72,74.33,74.33,0,0,1-14.49,13.18c-3.42,2.37-7.23,4.78-11.65,7.39q-4,2.33-7.94,4.63c-.57.33-1.2.65-1.86,1a3.31,3.31,0,0,1-1.42.29h-.14a1.71,1.71,0,0,1-1.13-.43,42.82,42.82,0,0,0-6.42-4.3,4.11,4.11,0,0,0-.42-.21l-1.18-.56-.34,1.1a1.37,1.37,0,0,0,.81,1.74,66.12,66.12,0,0,1,7.68,6.23,54.64,54.64,0,0,1,10.19,13.86,107.54,107.54,0,0,1,10.84,31.08c.51,2.74.84,5.57,1.16,8.31.09.79.19,1.58.28,2.37.47,3.78.87,7.52,1.25,11,.17,1.54.32,3.09.48,4.64s.31,3.19.48,4.78c.11,1,.22,2.06.32,3.08a113.07,113.07,0,0,0,1.62,11.85A36.68,36.68,0,0,0,300.53,229a31.51,31.51,0,0,0,6.42,8.06c1.39,1.26,3,2.76,4.58,4.29a25.28,25.28,0,0,1,4.44,5.73,14.1,14.1,0,0,1,1.86,6.46,164.15,164.15,0,0,0,2,19.64c.67,4.2,1.73,8.35,2.76,12.37l.17.66c.39,1.51.78,3,1.15,4.55a56.94,56.94,0,0,0,3.21,9.52,39.85,39.85,0,0,1,2.7,7.84,21.5,21.5,0,0,1,.45,6.65,11.49,11.49,0,0,1-1.63,4.88,7.25,7.25,0,0,1-1.32,1.44l-.48.43a10.39,10.39,0,0,1-3.35,2.16,6,6,0,0,1-2.24.43,6.77,6.77,0,0,1-.89-.06,3.32,3.32,0,0,1-3-3.24,9.41,9.41,0,0,1,1-4.57c.41-.87.9-1.69,1.42-2.56.19-.32.38-.63.56-.95s.43-.7.69-1.11l1.8-2.89-2.48.69-.36.09a2.31,2.31,0,0,0-.73.27,4.24,4.24,0,0,0-.81.71,16.46,16.46,0,0,0-4.51,9,7.53,7.53,0,0,0,.67,4.59,9.87,9.87,0,0,1-2.95,1.25,9.6,9.6,0,0,1-5.88-.36,5.93,5.93,0,0,1-1.46-.77,2.83,2.83,0,0,1-1.25-2.47,7,7,0,0,1,.47-2.35,22.35,22.35,0,0,1,3.82-6.25c.24-.3.46-.61.69-.92l.39-.53-.2-.58-.07-.26-.17-.14a1.28,1.28,0,0,0-.88-.38,1.38,1.38,0,0,0-.9.38,19.2,19.2,0,0,0-5.93,7.57,13.29,13.29,0,0,0-.79,2.85,5.92,5.92,0,0,0,.45,3.29,8.37,8.37,0,0,1-2.85.54,6.82,6.82,0,0,1-1.36-.14,2.32,2.32,0,0,1-1.86-2.71,8.87,8.87,0,0,1,.41-2.05,13.72,13.72,0,0,1,2.9-5.07l.3-.33a7.08,7.08,0,0,0,.88-1l.07-.11a7.43,7.43,0,0,0,1.07-2.08c1.26-4.51,2.53-9.19,3.78-13.92a33.55,33.55,0,0,0,1.22-9.79,32,32,0,0,0-1.76-9.44,84.38,84.38,0,0,1-2.71-9.09,3.12,3.12,0,0,0-.14-.5l-.09-.31a15.7,15.7,0,0,0-6.53-9.4c-1.18-.81-2.36-1.61-3.56-2.38-4.44-2.9-9-5.89-13.24-9.19a59.88,59.88,0,0,1-12.52-13,67.65,67.65,0,0,0-8.21-9.84,42.28,42.28,0,0,0-9.38-7.09l.46-.95-.34-.28a2.23,2.23,0,0,0-.53-.38,15.55,15.55,0,0,0-6.59-1.77c-.46,0-.92,0-1.38,0a35.61,35.61,0,0,0-10.71,1.88,77.24,77.24,0,0,0-9,3.63c-1.14.52-2.27,1.06-3.41,1.59-3,1.4-6.08,2.84-9.17,4.14a107.87,107.87,0,0,1-22.47,6.81c-3.44.62-6.89,1.08-10.13,1.49-1.85.23-3.74.4-5.58.56l-1.89.17,1.08-4.68c1.29-5.55,2.57-11.11,3.89-16.66a94.45,94.45,0,0,0,2.26-27.42,101.33,101.33,0,0,0-1.6-14c-.23-1.19-.51-2.38-.79-3.53l-.32-1.32a1.59,1.59,0,0,0-.91-1.1l-1.54-.75.13,2.09c0,.3,0,.6.05.9,0,.46.08.93.13,1.39a171.65,171.65,0,0,1,1.28,25.48A91.08,91.08,0,0,1,167,211.75q-1.94,8.37-3.9,16.74l-2.11,9a49.13,49.13,0,0,0-1.32,10.55q-.18,12.9-.34,25.82c-.06,4.63-.37,9.48-.92,14.42a71.87,71.87,0,0,1-1.9,10.51,18.06,18.06,0,0,0,0,8.77c.19.81.35,1.62.51,2.44.09.48.19,1,.29,1.43a6.24,6.24,0,0,1-.26,3.39c-.47,1.35-1,2.65-1.57,3.87a35.44,35.44,0,0,0-2,5.44,19.35,19.35,0,0,0-.22,9,59.65,59.65,0,0,0,2.61,9.4,32.82,32.82,0,0,1,1.46,4.42,22.81,22.81,0,0,1,.68,7.57,10.53,10.53,0,0,1-2.23,5.77,8,8,0,0,1-6.58,3.26c-.32,0-.66,0-1-.05a4.47,4.47,0,0,1-.7-.11,17.24,17.24,0,0,0,2.1-6.3,8.89,8.89,0,0,0-2.17-7.47l-2.4-2.76.74,4c.05.23.08.41.11.59s0,.29.05.43.05.46.09.69a13.11,13.11,0,0,1-1.35,8.18,10.4,10.4,0,0,1-1.23,1.89,4.65,4.65,0,0,1-2.63,1.67,4.12,4.12,0,0,0-.67.24l0,0Z" transform="translate(-1 -1)"/><path class="cls-1" d="M106.83,129.32a49,49,0,0,1-4.92-.25,41.7,41.7,0,0,1-7.36-1.4,23.51,23.51,0,0,1-12-7.93A19.89,19.89,0,0,1,78.1,108.9a35.73,35.73,0,0,1,2.09-15.63,74.59,74.59,0,0,1,8.94-17.73c2.18-3.21,4.56-6.38,6.87-9.45l1.12-1.49A75.85,75.85,0,0,0,102.94,56a39.65,39.65,0,0,0,4.71-13,32.72,32.72,0,0,0,.4-3.8,62.51,62.51,0,0,0-.23-9.2,21.15,21.15,0,0,0-1.17-5.18,3.58,3.58,0,0,0-.24-.48l-.43-.77-1.8.4.1.93.15,1c.12.72.23,1.44.3,2.16a63.46,63.46,0,0,1,0,10.4,32.88,32.88,0,0,1-2.69,11.07,52.31,52.31,0,0,1-5.91,10.25q-1.32,1.77-2.67,3.52c-1.06,1.39-2.16,2.82-3.21,4.27C88.49,70,86.73,72.59,85,75.09l-.3.46a1.41,1.41,0,0,1-.8.67,18.08,18.08,0,0,0-6.86,4c-.83.73-1.61,1.51-2.37,2.27l-1.21,1.2-1,1c-1,1-2,2-3,2.9a15.66,15.66,0,0,1-10.77,4h-.19c-1.53,0-3.11-.11-4.64-.22l-.44,0A66.33,66.33,0,0,1,42.17,89.7,56.92,56.92,0,0,1,36.35,88,32.88,32.88,0,0,1,19,73.37c-.73-1.22-1.37-2.54-2-3.83l-.48-1a19,19,0,0,0-2.52-4,9.19,9.19,0,0,0-2.83-2.34,4.31,4.31,0,0,0-2-.5A3.89,3.89,0,0,0,6,63.43a7,7,0,0,0-1.26,3.9c0,.52,0,1,0,1.58,0,.31,0,.62,0,.93,0,.48,0,1,0,1.43l0,.31c0,.13,0,.3-.35.55l-.08.07,0,0A8.89,8.89,0,0,1,3,70.67a13.82,13.82,0,0,1-1.85-5.28,24.53,24.53,0,0,1,.9-9.65,47.48,47.48,0,0,1,2.12-6.22A14.18,14.18,0,0,0,9.4,56a2.88,2.88,0,0,0,1.7.56,3.05,3.05,0,0,0,.6-.06l.38-.07L14.39,56l1.26-.22c1.69-.3,3.39-.6,5.08-.88a14.85,14.85,0,0,0,9.21-5.6,7.46,7.46,0,0,0,1-8,11.14,11.14,0,0,0-2.62-3.66,24.69,24.69,0,0,0-8-5.1L18.89,32l-.79-.28a10.12,10.12,0,0,0-1.56-.44,31,31,0,0,1,3.59-.88c3.48-.67,7-1.28,10.48-1.87l.31-.06a59.31,59.31,0,0,0,12-3.1,24.77,24.77,0,0,0,8.9-5.82,2.28,2.28,0,0,0,.63-1.18l.4-2.28-1.94,1.27-1.55,1C48.21,19.19,47,20,45.83,20.7a17.58,17.58,0,0,1-1.61.85,32.39,32.39,0,0,0,2-2.64l2.51-3.78A27.18,27.18,0,0,1,54,9.44,34.87,34.87,0,0,1,69.39,2.11a47.31,47.31,0,0,1,6.5-1C76.5,1,77.12,1,77.73,1a27.61,27.61,0,0,1,9.46,1.77c2.28.82,4.57,1.78,6.7,2.68q2.2.94,4.4,1.92c2.1.93,4.28,1.89,6.45,2.77A29.59,29.59,0,0,1,115.79,18c.79.87,1.6,1.82,2.49,2.88a46,46,0,0,0,4.47,4.65l.32.29c1.31,1.19,2.68,2.43,3.91,3.73a24.69,24.69,0,0,1,6.18,11.16,13.49,13.49,0,0,0-4.68-2.51l-.95,1.7.13.13a4.65,4.65,0,0,0,.48.42c5,3.59,8.53,8.43,11.57,13.14a19,19,0,0,1,2.65,7.58c.09.62.18,1.24.26,1.87.21,1.49.42,3,.75,4.56.43,2,.95,4,1.45,5.91l.72,2.77a48.54,48.54,0,0,1,1.76,12.62,33,33,0,0,1-3.84,15.37A57.3,57.3,0,0,1,128.71,122,32.6,32.6,0,0,1,113,128.88,43.19,43.19,0,0,1,106.83,129.32ZM81.27,44.82,83,44.64l.09-.8c0-.22.06-.45.09-.68a7.56,7.56,0,0,0,.14-1.8A14.76,14.76,0,0,0,79,31.83a7.33,7.33,0,0,0-1.48-1l-.18-.11a2.12,2.12,0,0,0-1.1-.3,2.51,2.51,0,0,0-1,.21,9.61,9.61,0,0,0-5.57,6.26,2.29,2.29,0,0,0,.53,2.37c2.85,3.07,6,4.56,9.66,4.56l.93,0Z" transform="translate(-1 -1)"/><path class="cls-1" d="M245.56,319.74a7.43,7.43,0,0,1-3.39-.85c-2.17-1.1-3.11-3-2.94-6a9.58,9.58,0,0,1,.5-2.42,6.42,6.42,0,0,1,4.12-4.36l.9-.34,3.26-1.26-2.88-.82a5.12,5.12,0,0,0-1.39-.19,6,6,0,0,0-2,.37,7,7,0,0,0-3.12,2.16A11.68,11.68,0,0,0,236,316.4a8.11,8.11,0,0,0,.89,2.33,6.4,6.4,0,0,1-5.64-8.12,7.92,7.92,0,0,1,5.43-6.14l.48-.17a5.21,5.21,0,0,1,1.69-.41h.34a2.91,2.91,0,0,0,1.34-.43c.12-.06.24-.13.36-.18l2.1-.86-1.94-.92a1.59,1.59,0,0,1,.12-.27,28.65,28.65,0,0,0,2.5-8c.39-2.22.89-4.62,1.52-7.34a28.16,28.16,0,0,0,.34-10.46c-.17-1.24-.37-2.57-.68-3.87a9.39,9.39,0,0,0-3.37-5.35,10.55,10.55,0,0,1-2.91-3.58c-.52-1-1-2-1.52-3L236,257.52c-.28-.58-.57-1.17-.88-1.74a9.52,9.52,0,0,0-4.35-4.16l-.63-.31c-.87-.42-1.78-.85-2.63-1.32l-1.43-.8c-2.39-1.33-4.87-2.71-7.24-4.15a34.94,34.94,0,0,1-7.92-6.7,32,32,0,0,1-5.55-8.82c4.41-1.7,8.62-3.73,12.56-5.66a76.65,76.65,0,0,1,11-4.62,46.86,46.86,0,0,1,6.38-1.59,8.54,8.54,0,0,1,1.39-.13,4.3,4.3,0,0,1,1.28.18c1.11.33,2.08.59,3,.8.25.06.37.13.44.52s.11.67.16,1c.08.53.15,1.06.26,1.59l.18.93c.25,1.3.51,2.65.86,4a12,12,0,0,0,4.54,6.67c1.07.8,2.26,1.63,3.66,2.54A57.2,57.2,0,0,1,259,242c.39.37.77.75,1.15,1.14a6.36,6.36,0,0,1,1.92,4.25,54.05,54.05,0,0,1-.07,7.69c-.21,3.14-.34,5.68-.41,8a23,23,0,0,0,1,7.07c.24.86.55,2,.8,3.13a5.51,5.51,0,0,1-.19,3.44c-1.72,3.92-1.44,7.93-.94,11.34.15,1,.31,2.08.47,3.11.31,2,.63,4.07.88,6.1a40.73,40.73,0,0,1-.16,12l-.19,1.09c-.18,1-.37,2.09-.51,3.15a6,6,0,0,1-2.3,4,10.41,10.41,0,0,1-2.22,1.37,3.24,3.24,0,0,1-3.43-.39,5.11,5.11,0,0,1-2.19-3.53,8,8,0,0,1,2-6.58,4.58,4.58,0,0,1,1.71-1.26,4.6,4.6,0,0,0,.5-.25l3-1.57-2.91-.51-.41-.08a2.89,2.89,0,0,0-.59-.08h-.2a5.16,5.16,0,0,0-3,1.37,10.66,10.66,0,0,0-3.45,10.49,9.66,9.66,0,0,0,.64,1.78l0,.09a3.05,3.05,0,0,1-.32.22A8.06,8.06,0,0,1,245.56,319.74Z" transform="translate(-1 -1)"/><path class="cls-1" d="M10.49,52.86a20.83,20.83,0,0,1-1.94-2.69A11,11,0,0,1,8.92,38a7.64,7.64,0,0,1,5.46-3.54,4.71,4.71,0,0,1,.74-.06,4,4,0,0,1,1.35.23,26.42,26.42,0,0,1,9,5.18,11.22,11.22,0,0,1,1.94,2.3,4.26,4.26,0,0,1-.46,5.3,11.51,11.51,0,0,1-7.8,4.28,26.7,26.7,0,0,0-8,2Z" transform="translate(-1 -1)"/><path class="cls-1" d="M27.92,88A46.69,46.69,0,0,1,17.7,83.23,43.59,43.59,0,0,1,7.12,73.55a10.92,10.92,0,0,0,.76-4.7,14.86,14.86,0,0,1,.21-2.29,2.34,2.34,0,0,1,.64-1.27.76.76,0,0,1,.4-.25.46.46,0,0,1,.23.09A7.69,7.69,0,0,1,11,66.41a11.07,11.07,0,0,1,2,3.18c.18.39.35.79.53,1.18.34.77.69,1.57,1.08,2.35A37.27,37.27,0,0,0,27.92,88Z" transform="translate(-1 -1)"/></g></g></svg>