<?xml version="1.0" encoding="UTF-8"?>
<svg id="Layer_2" data-name="Layer 2" xmlns="http://www.w3.org/2000/svg" viewBox="0 0 2206.4 1402.9">
  <defs>
    <style>
      .cls-1 {
        stroke-width: 0px;
      }
    </style>
  </defs>
  <g id="OBJECT">
    <g>
      <path class="cls-1" d="M1588.93,19.78c.94,3.02-1.2,4.49-3.05,6.14-7.64,6.78-15.2,13.65-22.91,20.35-13.75,11.95-24.1,26.57-33.03,42.23-15.88,27.85-26.3,57.75-32.3,89.17-4.28,22.42-4.98,44.98-1.47,67.63,4.03,26.01,14.78,49.06,30.61,69.82,16.74,21.95,33.54,43.85,50.71,65.45,13.74,17.29,28.06,34.12,42.13,51.15,47.14,57.06,93.12,114.97,132.97,177.51,43.35,68.02,79.7,139.42,105.78,215.89,21.25,62.32,35.25,126.15,38.39,192.02,1.37,28.69.75,57.46,1.14,86.2.34,24.59.57,49.19,1.35,73.76.56,17.74,5.12,34.38,16.44,48.61,8.79,11.05,19.66,19.46,32.76,24.58,9.49,3.71,19.27,6.76,29.06,9.64,27.54,8.1,55.27,15.57,82.7,24.03,29.97,9.24,58.07,22.8,84.26,40.04,24.94,16.41,44.89,37.44,57.38,64.92,2,4.41,4.22,8.85,4.54,13.94-.99-.03-1.67.17-2.02-.08-13.01-9.6-27.96-15.53-42.42-22.32-22-10.33-44.5-19.47-67.86-26.36-32.67-9.63-66.08-13.2-99.98-11.52-17.37.86-34.72,2.64-51.97,4.85-15.19,1.95-30.18,2.38-45.4.27-21.07-2.93-42.23-5.17-63.36-7.59-10.18-1.16-20.39-1.64-30.58.05-17.91,2.98-33.44,11.03-47.38,22.41-7.12,5.81-13.58,12.18-17.09,21.3-1.23-.81-2.28-1.26-3-2.01-8.88-9.47-17.73-18.98-24.67-30.04-4.62-7.35-7.94-15.18-8.39-23.98-.84-16.46,6.2-29.38,18.24-39.95,11.33-9.95,24.4-17.05,38.12-23.06,7.34-3.21,14.78-6.18,22.04-9.57,4.98-2.32,9.71-5.16,15.19-8.1,1.47,1.89,3.21,3.91,4.7,6.1,10.75,15.86,23.24,30.18,37.76,42.7,1.24,1.07,2.57,2.03,4.61,3.63-1.02-4.61-3.97-6.76-6.21-9.32-10.74-12.28-20.82-25.03-29.6-38.81-13.67-21.45-25.49-43.91-36.65-66.73-16.14-32.99-33.17-65.48-51.77-97.17-24.83-42.3-53.53-81.68-86.9-117.68-29.19-31.49-60.62-60.46-94.45-86.89-77.76-60.75-163.01-108.56-253.76-146.84-104.99-44.29-214.31-72.42-327.17-87.2-15.88-2.08-31.77-3.98-48.19-6.03-1.08-3.26-2.26-6.59-3.28-9.97-6.44-21.33-15.73-41.24-29.14-59.13-10.72-14.3-23.25-26.61-39.17-35.11-7.2-3.84-14.88-5.87-23.09-5.5-.99.04-1.97.41-4.03.86,1.55.88,2.12,1.46,2.72,1.5,12.76.85,23.04,7.15,32.63,14.89,12.63,10.19,22.4,22.81,30.68,36.65,7.98,13.34,13.97,27.55,18.47,42.42,5.05,16.69,8.6,33.72,11.82,50.84,8.54,45.34,25.99,87.16,50.2,126.28,7.46,12.05,17.07,22.36,26.41,32.89,1.59,1.79,2.92,3.81,4.6,6.02-3.62,2.67-7.23,2.83-10.67,3.24-13.63,1.64-27.03.18-40.22-3.39-19.54-5.29-38.13-12.96-55.99-22.45-29.44-15.64-56.41-34.75-80.87-57.4-23.62-21.87-44.03-46.49-62.26-72.96-27.44-39.84-51.42-81.74-74.3-124.32-9.14-17.02-18.55-33.9-28.13-50.67-3.68-6.45-7.98-12.58-12.37-18.58-8.89-12.14-21.4-19.83-34.35-26.77-4.99-2.67-9.82-5.91-16.06-6.21,3.46,2.45,7.01,4.8,10.36,7.39,3.27,2.54,6.44,5.23,9.48,8.04,3.24,2.99,6.32,6.17,9.42,9.33,2.82,2.87,5.57,5.82,9.37,9.81-3.85.18-6.21.42-8.57.38-36.87-.73-73.22-5.34-109.16-13.72-56.62-13.2-111.39-31.93-165.14-53.92-24.52-10.03-49.14-19.83-73.95-29.12-27.76-10.4-56.63-16.71-85.82-21.65-26.42-4.47-52.82-9-79.22-13.59-15.53-2.7-30.82-6.37-45.76-11.46-8.41-2.86-16.31-6.66-23.78-11.5-5.93-3.84-10.79-8.71-14.54-14.54-2.04-3.17-3.71-6.94-4.26-10.64-1.5-10.02,3.41-18.86,15.59-20.2,3.49-.38,7.16.27,10.67.89,22.29,3.98,44.53,8.3,66.85,12.1,33.1,5.64,66.48,7.51,99.95,4.8,28.37-2.3,56.63-5.81,84.99-8.24,22.29-1.92,44.64-3.51,66.99-4.33,20.2-.74,40.34.51,59.72,7.32.71.25,1.6-.02,3.39-.09-1.55-1.03-2.34-1.69-3.24-2.14-8.49-4.22-17.54-6.56-26.87-8-17.28-2.67-34.69-3.29-52.09-2.3-21.79,1.24-43.56,2.99-65.31,4.76-20.66,1.68-41.27,3.93-61.94,5.48-39.36,2.96-78.39.34-117.12-7.36-20.58-4.09-41.25-7.78-61.87-11.67-.5-.09-.94-.5-2.05-1.11,1.23-3.76,2.94-7.13,6.21-9.94,7.45-6.4,15.77-11.19,25.09-14.14,7.63-2.42,15.41-4.39,23.09-6.65,6.36-1.86,12.76-3.62,19-5.83,10.28-3.64,17.24-10.7,20.46-21.23,1.45-4.75,2.93-9.5,4.12-14.32,4.26-17.22,13.76-31.07,26.7-42.96,13.07-12.01,27.5-22.16,42.29-31.85,13.48-8.84,28.19-15.21,43.18-20.87,11.1-4.2,22.37-7.98,33.69-11.57,85.59-27.16,173.9-39.42,262.92-47.54,44.03-4.01,88.13-7.34,132.21-10.89,33.05-2.66,66.09-5.69,99.19-7.62,44.99-2.63,90.05-2.41,135.09-.7,28.8,1.09,57.24,5.01,85.32,11.35,22.35,5.05,44.54,10.85,66.92,15.78,19.41,4.28,38.88,8.4,58.5,11.55,38.99,6.27,77.67,3.89,115.94-5.78,21.74-5.49,42.94-12.58,63.83-20.64,23.45-9.05,46.79-18.38,70.26-27.37,32.1-12.28,64.95-21.74,99.13-26.25,27.53-3.63,55.09-4.55,82.68-1.24,9.84,1.18,19.61,3.19,29.29,5.39,7.56,1.71,14.71,4.71,20.93,9.59,1.05.82,2.49,1.13,3.75,1.67.42.36.83.73,1.25,1.09ZM466.9,295.35c7.95,7.01,19.87,6.37,26.77-1.42,7.18-8.12,6.25-21.04-2.05-28.24-8.03-6.97-19.57-6.04-26.57,2.15-7.06,8.26-6.25,20.38,1.85,27.51Z"/>
      <path class="cls-1" d="M715.67,724.83c-4.53,3.34-9.55,2.63-14.29,1.14-7.88-2.48-15.75-5.15-23.36-8.36-41.5-17.49-77.93-42.54-109.59-74.49-17.56-17.72-32.41-37.59-45.45-58.85-15.63-25.5-29.11-52-38.49-80.47-.94-2.84-1.78-5.72-2.88-9.28,2.68.5,4.51.77,6.3,1.2,39.94,9.64,80.48,14.03,121.53,14.08,1.38,0,2.78.14,4.14-.02,3.22-.37,5.22,1.21,6.73,3.81,2.78,4.77,5.74,9.43,8.39,14.27,15.67,28.54,30.91,57.32,47.02,85.61,12.55,22.05,26.07,43.55,39.39,65.15,2.16,3.51,3.08,6.75,2.82,10.83-.5,7.71-.4,15.45-.62,23.18-.12,4.1.41,8.32-1.62,12.21Z"/>
    </g>
  </g>
</svg>