<?xml version="1.0" encoding="UTF-8"?>
<svg id="Layer_2" data-name="Layer 2" xmlns="http://www.w3.org/2000/svg" viewBox="0 0 1243.43 1191.71">
  <defs>
    <style>
      .cls-1 {
        stroke-width: 0px;
      }
    </style>
  </defs>
  <g id="OBJECT">
    <g>
      <path class="cls-1" d="M607.41,1191.71h-95.73c-1.79-.27-3.57-.72-5.37-.8-10.62-.47-21.26-.72-31.87-1.3-20.32-1.12-40.65-2.13-60.93-3.73-25.03-1.97-49.99-4.7-74.86-8.26-28.68-4.11-57.12-9.37-85.26-16.25-32.09-7.85-63.46-17.94-93.97-30.63-18.62-7.75-36.82-16.37-54.09-26.86-15.91-9.67-30.43-21.14-43.6-34.22-11.99-11.92-22.53-25.11-31.23-39.67-7.83-13.1-14.11-26.89-18.63-41.51-5.61-18.14-8.68-36.69-9.92-55.6-.29-4.35-1.28-8.65-1.95-12.97v-18.71c.67-4.51,1.5-9,1.98-13.53.78-7.47,1.15-14.99,2.02-22.45,1.53-13.11,3.19-26.2,5.01-39.27.88-6.32,1.5-12.67,3.79-18.8,4.24-11.38,9.43-22.3,15.22-32.9,12.32-22.53,25.97-44.25,40.84-65.21,15.18-21.4,31.43-41.96,48.03-62.27,24.03-29.4,48.59-58.33,74.5-86.1,35.28-37.81,70.61-75.58,105.81-113.47,16.73-18.01,32.79-36.6,46.96-56.75,7.92-11.27,15.21-22.94,21.18-35.34,11.79-24.5,19.06-50.27,21.33-77.46,2.45-29.29-1.78-57.4-13.98-84.18-6.08-13.34-14.46-25.08-25.98-34.33-11.61-9.32-24.43-16.16-39.32-18.58-1.18-.19-2.31-.69-4.01-1.22,4.92-4.27,10.63-5.46,16.45-7.21-.84-.52-1.15-.87-1.42-.85-5.72.52-11.14,2.05-16.14,4.95-8.17,4.74-15.19,10.87-21.61,17.71-6.52,6.94-12.75,14.16-19.97,20.43-5.42,4.71-11.05,9.1-17.32,12.59-13.25,7.37-27.4,12.25-42.28,15.1-.83.16-1.72.02-3.01.02.69-1.29,1.1-2.31,1.72-3.17,3.44-4.79,6.32-9.87,8.29-15.45.36-1.03.98-1.96,1.46-2.96,2.43-5.12,5.08-10.16,7.23-15.4,4.97-12.12,7.74-24.8,9.15-37.81.81-7.52-1.47-13.71-7.66-18.21-2.07-1.5-4.31-2.78-6.56-4-7.14-3.86-14.85-6.22-22.61-8.41-25.8-7.29-52.09-12.13-78.68-15.43-1.59-.2-3.33-.12-4.5-1.74,2.08-7.19,4.51-14.31,8.12-20.93,13.95-25.58,35.07-42.38,62.89-50.76,13.23-3.98,26.85-5.78,40.59-6.77,2.34-.17,4.66-.71,6.99-1.07h11c1.96.35,3.92.91,5.89,1.01,12.3.67,24.48,2.33,36.36,5.52,12.55,3.38,25.05,7.02,37.42,11.01,19,6.12,37.95,12.45,56.8,19.04,22.78,7.97,42.18,20.99,58,39.38,15.03,17.47,27.63,36.53,38.2,56.95,10.56,20.42,18.63,41.83,24.53,64.03,5.24,19.71,8.57,39.77,9.95,60.12.87,12.8,1.2,25.62.23,38.46-.82,10.79-1.83,21.56-3.75,32.21-5.08,28.13-14.51,54.85-26.78,80.6-14.32,30.03-31.61,58.3-50.71,85.5-14.25,20.29-30.11,39.3-46.43,57.91-25.15,28.67-50.54,57.14-75.75,85.76-16.87,19.15-32.7,39.11-46.14,60.85-13.43,21.73-25.09,44.34-32.95,68.73-7.14,22.15-11.21,44.72-9.2,68.17,1.65,19.3,7.58,36.91,19.5,52.28,4.04,5.21,8.45,10.13,12.75,15.14.62.72,1.53,1.2,2.31,1.79-4.51-7.16-9.62-13.74-14.24-20.64-4.67-6.98-8.11-14.59-9.98-22.73.44-.3.59-.49.74-.5.54-.03,1.12-.11,1.63.02,9.12,2.45,17.82.48,26.39-2.56,8.18-2.91,15.47-7.51,22.61-12.37,16.46-11.2,30.85-24.83,44.94-38.73,12.79-12.62,25.12-25.71,37.59-38.64,22.55-23.39,46.33-45.45,71.21-66.34,26.36-22.12,54.78-41.19,85.2-57.24,20.79-10.97,42.33-20.19,64.74-27.34,22.77-7.27,46.01-12.3,69.84-14.42,10.22-.91,20.46-1.62,30.7-2.39.78-.06,1.57.08,2.83.16-8.41,4.58-16.33,8.65-24.02,13.13-8.89,5.19-18.67,13.73-20.7,17.86,2.41-1.56,4.38-2.79,6.31-4.08,7.3-4.91,14.62-9.79,22.54-13.68,13.54-6.65,27.64-11.77,42.16-15.76,28.66-7.89,57.74-9.84,87.17-5.84,25.54,3.47,50.26,10.27,74.12,19.96,13.91,5.65,27.53,12,41.27,18.08,4.15,1.84,8.23,3.82,12.34,5.74-40.35-9.08-79.83-6.89-119.35,7.03,1.08.3,1.44.52,1.76.47,12.3-1.93,24.58-4.02,36.91-5.81,16.06-2.33,32.17-2.18,48.27-.36,14.79,1.67,29.24,5.04,43.54,9.06,19.58,5.49,39.12,11.17,58.77,16.41,15.23,4.06,30.7,7.18,46.44,8.53,10.95.94,21.94,1.53,32.91,2.23,5.12.33,10.26.44,15.38.86,3.52.29,4.39,1.37,4.72,4.86.32,3.37-.37,6.59-1.68,9.66-1.79,4.21-3.69,8.38-5.57,12.55-5.57,12.35-10.86,24.85-16.82,37.02-10.32,21.11-22.58,41.11-35.88,60.47-24.49,35.62-52.29,68.52-82.8,99.05-30.53,30.55-63.7,57.99-100.16,81.34-20.25,12.97-41.21,24.65-63.1,34.6-22.38,10.17-45.36,18.78-68.97,25.63-23.61,6.85-47.53,12.34-71.92,15.55-15.44,2.03-30.93,3.73-46.45,5.02-11.68.97-23.46,1.69-35.16,1.38-16.11-.43-32.24-.89-48.29-2.95-18.75-2.4-37.36-5.4-55.6-10.37-21.84-5.95-43.01-13.53-61.97-26.3-.39-.26-.92-.32-1.56-.54.19.52.2.89.4,1.05,6.86,5.84,14.22,10.93,22.24,15.08,16.2,8.39,33.31,14.29,50.91,18.87,19.37,5.04,39.05,8.38,59.01,9.96,16.27,1.29,32.54,2.38,48.88,1.74,16.68-.65,33.35-1.43,49.93-3.32,27.16-3.09,54.02-7.81,80.47-14.87,38.04-10.15,74.57-24.09,109.37-42.56,24.83-13.18,48.42-28.28,70.88-45.15,29.38-22.08,56.63-46.56,81.83-73.32,23.03-24.47,44.65-50.09,63.81-77.73,2.08-3,4.2-5.97,6.45-9.17,3.53.2,7,.25,10.43.62,7.37.81,14.69.08,21.93-.92,12.57-1.73,24.67-5.42,36.49-10.02,14.9-5.81,28.78-13.66,42.75-21.34,11.4-6.26,22.88-12.38,34.38-18.46,7.01-3.7,14.49-6.18,22.31-7.52,3.6-.62,7.32-1.52,10.89-1.2,7.1.62,14.13,2.01,21.2,3.04,2,.29,3.18,1.64,4.34,3.06v6.6c-2.91,5.26-5.57,10.68-8.79,15.73-7.15,11.21-12.63,23.14-16.28,35.91-1.56,5.46-3.2,10.89-4.7,16.36-5.21,18.92-13.34,36.45-25.04,52.24-3.05,4.12-6.35,8.07-9.79,11.86-5.79,6.37-11.48,12.89-17.77,18.75-12.64,11.76-26.55,21.93-40.95,31.46-11.62,7.69-23.14,15.52-34.69,23.31-1.28.86-2.47,1.84-3.7,2.76,2.57.54,4.33-.84,6.25-1.71,2.17-.99,4.27-2.11,6.4-3.18,1.96-.99,3.93-1.97,5.88-2.99,1.94-1.02,3.86-2.1,5.8-3.14,1.93-1.04,3.88-2.07,5.81-3.12,2.09-1.14,4.18-2.28,6.24-3.48,1.9-1.1,3.76-2.28,5.63-3.44,1.87-1.16,3.73-2.33,5.57-3.54,1.99-1.31,3.95-2.67,5.93-3.99,1.7-1.13,3.21-2.64,5.98-3.33-.73,1.34-1.01,2.01-1.42,2.58-10.81,15.13-19.28,31.55-26.58,48.61-4.04,9.43-7.81,18.99-12.32,28.19-8.24,16.8-19.86,31.21-33.13,44.27-15.09,14.84-31.97,27.46-49.71,38.94-14.15,9.16-28.56,17.92-43.43,25.89-17.48,9.37-35.47,17.5-54.51,23.23-35.48,10.68-71.58,18.72-107.95,25.59-24.13,4.56-48.41,8.18-72.77,11.32-24.01,3.09-48.08,5.46-72.21,7.13-17.92,1.24-35.88,1.82-53.82,2.74-1.98.1-3.95.53-5.92.81ZM256.53,91.95c-.53-1.78-1.19-4.43-2.11-6.98-.65-1.8-2.12-2.88-3.99-3.46-4.07-1.27-7.93-.98-11.5,1.44-1.51,1.02-3.05,2.07-4.3,3.37-4.03,4.21-8.13,8.39-9.24,14.52-.86,4.72.55,8.36,4.82,10.47,2.24,1.11,4.79,1.67,7.26,2.22,4.91,1.1,9.17-.72,12.34-4.19,4.17-4.57,5.98-10.36,6.72-17.4Z"/>
      <path class="cls-1" d="M97.32,155.2c-1.52-.69-2.48-1.18-3.47-1.55-1.89-.71-3.84-1.24-5.69-2.02-10.42-4.4-15.08-11.45-14.66-22.75.49-13.34,6.02-24.45,16.02-33.17,4.54-3.96,9.66-7.25,14.46-10.92,1.29-.98,2.58-1.17,4.11-.95,30.86,4.35,61.56,9.49,91.18,19.59,4.65,1.59,9.15,3.78,13.47,6.14,2.51,1.37,4.67,3.51,6.74,5.55,2.53,2.48,3.3,5.61,2.49,9.11-3.43,14.81-6.56,29.72-12.98,43.64-7.1,15.4-16.12,29.62-27.2,42.44-6.38,7.38-14.29,13.14-22.29,18.67-14.02,9.7-28.33,18.95-43.25,27.2-13.65,7.55-27.7,14.23-42.91,18.15-6.58,1.7-13.23,2.91-20.04,3.18-5.86.23-11.72.64-17.58.8-3.89.1-7.6.58-11.18,2.33-3.15,1.54-5.26.69-6.49-2.56-1.09-2.89-1.71-5.84-.93-9.11,1.51-6.29,4.76-11.46,9.15-16.02,8.51-8.86,17.13-17.61,25.57-26.53,13.41-14.16,25.14-29.6,34.69-46.65,4.3-7.68,7.47-15.84,10.79-24.58Z"/>
    </g>
  </g>
</svg>