<?xml version="1.0" encoding="UTF-8"?><svg id="Layer_1" xmlns="http://www.w3.org/2000/svg" viewBox="0 0 1808.16 1080"><defs><style>.cls-1{stroke-width:0px;}</style></defs><path class="cls-1" d="m570.57,1080c-3.84-1.7-7.92-1.08-11.91-1.22-7.07-.24-14.17.4-21.2-1.11-6.1-1.31-11.59-3.85-16.76-7.25-4.38-2.88-6.56-6.8-6.37-12.08.1-2.81.02-5.63.02-9.56-3.78,4.45-4.16,8.85-4.23,13.34-.06,4.01-.58,4.49-4.56,3.88-4.8-.74-7.59-3.66-8.26-8.92-.67-5.22.24-10.3,1.77-15.3,2.79-9.13,7.82-17.02,13.62-24.46,6.62-8.49,13.81-16.55,21.97-23.48,10.3-8.76,13.82-19.19,12.92-32.55-1.46-21.69,3.15-42.73,10.16-63.16,10.45-30.44,20.39-61.02,28.53-92.17,4.89-18.73,9.12-37.58,12.46-56.64,5.06-28.82,14.02-56.48,25.35-83.38,8.1-19.24,16.6-38.31,24.96-57.44,1.91-4.36,2-4.39,6.7-3.15,7.47,1.96,14.84,1,22.17-.72,8.6-2.02,16.92-4.97,24.98-8.52,17.13-7.55,35-11.03,53.68-10.5,29.85.85,57.56-7.07,83.97-20.44,13.08-6.62,25.16-14.64,35.93-24.6,2.25-2.08,4.56-4.1,6.77-6.23,10.93-10.54,23.4-18.33,38.06-22.85,15.18-4.68,28.45-13.16,41.15-22.52,1.84-1.36,3.53-2.95,5.19-4.54,7.12-6.81,9.45-15.1,7.38-24.66-2.73-12.58-7.16-24.63-11.51-36.7-8.51-23.61-18.56-46.62-27.6-70.02-3.17-8.22-6.28-16.46-9.44-24.68-8.91-23.18-23.54-42.16-43.41-56.8-31.81-23.42-66.42-41.06-105.61-48.57-1.69-.32-3.37-.72-5.04-1.14-.51-.13-.98-.44-1.45-.67.16-.44.2-.98.42-1.07,10.34-4.1,20.76-7.93,31.96-8.93,10.46-.94,20.62.83,30.65,3.58,10.38,2.85,20.23,7.11,30.03,11.48,15.74,7.03,31.48,14.03,48.29,18.27,27.52,6.96,55.26,7.86,83.25,3.56,32.58-5.01,64.56-13.03,96.82-19.6,32.47-6.61,65.03-12.74,98-16.34,28.06-3.06,56.21-4.12,84.35-1.11,45.13,4.84,86.78,19.99,125.57,43.26,31.79,19.08,60.31,42.08,84.14,70.66,5.9,7.07,11.27,14.52,16.58,22.04,9.36,13.26,17.24,27.45,26.11,41.03,23.89,36.58,44.56,75.14,66.9,112.67,11.86,19.93,23.97,39.7,37.66,58.45,31.02,42.49,69.86,76.05,115.77,101.56,8.88,4.93,17.85,9.69,26.74,14.59,5.55,3.05,10.95,6.36,15.77,10.5,9.88,8.49,15.69,19.14,16.94,32.19.15,1.51.04,3.1,1.27,4.29v17.25c-2.18,3.13-.5,7.09-1.91,10.31-1.49.05-1.95-.86-2.46-1.61-5.54-8.22-13.26-13.65-22.13-17.76-4.86-2.25-9.6-4.79-14.27-7.42-9.73-5.5-17.43-13.11-22.88-22.9-2.89-5.19-5.86-10.35-8.39-15.71-6.82-14.42-17-25.64-30.3-34.51-26.41-17.62-50.11-38.52-72.13-61.37-23.05-23.92-43.92-49.67-64.39-75.77-9.34-11.92-18.55-23.94-28.46-35.4-2.12-2.46-4.35-4.91-6.89-6.89-3.72-2.91-7.14-1.16-7.45,3.61-.16,2.52.74,4.91,1.34,7.32,2.51,10.03,5.5,19.96,7.49,30.09,3.7,18.82,4.79,37.99,6.81,57.03,2.73,25.74,6.53,51.27,12.81,76.43,13.63,54.6,40.76,100.93,83.8,137.6,3.94,3.36,7.71,6.9,11.54,10.39,13.24,12.05,23.58,26.11,30.12,42.89,4.74,12.17,10.71,23.73,17.83,34.71,2.08,3.21,3.8,6.65,5.65,10,5.52,9.98,4.92,19.77-.84,29.47-4.04,6.8-8.86,13-14.29,18.69-11,11.5-22.11,22.88-33.27,34.22-4.3,4.37-8.99,8.35-14.02,11.89-5.2,3.66-10.75,6.57-16.83,8.56-6.6,2.16-12.02,1.03-16.34-4.63-.88-1.15-1.4-2.83-3.53-2.99.06,6.55,3.33,11.03,9.59,14.43-8.75,5.02-17.12,8.99-26.62,7.35-12.4-2.14-19.75-10.27-23.04-22.18-3.11-11.26-3.22-22.82-2.01-34.26,2.8-26.54-.62-52.3-7.84-77.83-6.05-21.41-14.17-41.68-28.11-59.3-6.32-7.98-13.04-15.57-20.18-22.82-9.7-9.85-20.22-18.78-30.61-27.86-10.55-9.23-20.36-19.2-29.59-29.73-3.16-3.61-3.11-3.62-.37-7.71,5.86-8.76,11.77-17.49,17.55-26.3,25.43-38.81,43.52-80.85,55.51-125.61,4.75-17.74,7.21-35.66,5.16-54.02-.45-4.02-1.01-8.03-1.58-12.46-2.21,1.58-1.38,2.99-1.37,4.21.25,17.3-.7,34.46-4.97,51.33-12.14,47.97-31.53,92.74-58.65,134.17-10.82,16.52-22.23,32.62-33.53,48.81-9.11,13.05-17.78,26.37-24.82,40.69-9.31,18.92-13.99,38.81-13.44,59.95.51,19.46,4.07,38.45,8.77,57.25,4.51,18.03,9.01,36.04,11.53,54.49,2.26,16.51,3.14,33.18,6.07,49.6.1.56.18,1.13.9,1.24.66-.17.74-.72.85-1.26.14-.72.05-1.63,1.17-1.51,9.21,11.67,13.77,24.44,11.16,39.59-1.82,10.56-6.97,17.59-17.3,20.65-2.02.6-4.06,1.15-6.11,1.62-15.5,3.54-30.86,7.62-46.2,11.76-13.95,3.77-28.11,5.85-42.61,5.24-10.05-.42-19.75-2.35-29.13-5.99-7.57-2.94-12.35-8.16-13.82-16.25-.27-1.51-.6-3.01-.96-4.49-.24-.99-.01-2.34-2.18-2.53-1.65,5.34-.47,10.72.4,16.51-7.51-.52-13.04-3.16-16.26-9.65-1.81-3.65-2.64-7.55-2.86-11.63-.47-8.86,2.02-17.05,5.37-25.07,4.22-10.11,9.7-19.56,15.22-28.98,9.4-16.02,14.13-33.36,15.43-51.83,1.36-19.36.56-38.7.38-58.05-.21-22.42-4.46-44.15-10.65-65.58-.36-1.23-.31-3.66-1.46-3.38-3.49.83-3.27-1.91-3.97-3.56-4.42-10.46-9.7-20.42-16.42-29.58-14.13-19.26-32.57-32.19-55.94-37.77-9.7-2.32-19.57-3.86-29.47-4.79-33.41-3.14-66.46-8.69-99.44-14.64-31.74-5.73-63.74-8.87-95.97-9.64-30.65-.73-61.35.5-91.94-2.33-15.29-1.41-30.35-4.14-45.24-7.87-3.67-.92-3.78-1.11-2.25-4.63,3.65-8.44,7.46-16.81,11.2-25.21,3.66-8.23,7.22-16.5,9.62-25.21.49-1.76,1.73-3.51.52-5.67-2.33,1.17-2.73,3.59-3.64,5.59-10.69,23.54-22.5,46.57-32.59,70.39-1.34,3.17-3.02,6.2-4.58,9.28-6.6,13.03-15.6,24.09-27.16,33.04-6.37,4.93-12.79,9.77-19.23,14.61-.95.71-1.78,1.92-3.75,1.65,2.73-5.07,7.01-8.68,9.44-13.88-2.47.04-3.35,1.45-4.46,2.42-6.41,5.6-11.45,12.35-16.03,19.46-6.78,10.5-12.09,21.76-17.26,33.1-7.49,16.4-15.32,32.67-25.48,47.58-16.2,23.78-31.12,48.31-45.39,73.28-6.82,11.94-14.69,23.35-16.67,37.68-2.4-1.15-2.09-4.25-4.35-5.06-.57,1.09-.28,1.83-.03,2.53,4.8,13.33,8.78,26.95,14.11,40.1,3.46,8.53,6.41,17.24,8.24,26.28,2.7,13.36-5,28.56-19.62,31.89-8.39,1.91-16.64,4.48-24.92,6.86-5.19,1.48-10.43,2.52-15.84,2.48-1.37-.01-3.04.49-3.99-1.13,1.43-2.74,3.96-4.69,4.71-7.53-.72-.74-1.25-.48-1.76-.21-3.02,1.65-6.17,3.12-9.02,5.03-5.7,3.8-12.22,5.29-18.64,7.11h-5.75Z"/><path class="cls-1" d="m419.96,464.37c15.71-8.64,32.39-14.94,50.08-19.44-1.48-1.71-2.83-1.12-3.99-.88-7.31,1.5-14.64,2.96-21.9,4.68-10.13,2.41-19.61,6.5-28.58,11.79-8.25,4.87-16.43,9.87-24.82,14.48-9.75,5.35-20.17,7.06-31.12,4.39-1.48-.36-2.97-.81-4.36-1.42-5.82-2.56-8.31-6.96-7.65-13.34.3-2.91,1.26-5.66,2.66-8.15,7.75-13.8,12.83-28.62,17.12-43.77,1.38-4.88,1.56-4.97,6.29-3.54,5.24,1.58,10.56,1.79,15.94,1.45,2.69-.17,3.94.83,3.82,3.57-.09,2.11-.21,4.19-.81,6.25-2.03,6.9-5.32,13.14-9.9,18.65-3.89,4.68-8.9,7.63-15.66,8.64,3.41,3.08,6.46,3.83,10.05,2.48,2-.76,3.88-1.77,5.41-3.21,9.85-9.29,16.52-20.18,15.84-34.25-.16-3.37,1.48-3.74,3.85-4.37,15.93-4.2,28.3-14.07,39.8-25.27.41-.4.66-.9.16-1.89-1.95.55-3.24,2.23-4.73,3.47-14.11,11.7-30.23,18.61-48.47,20.55-4.97.53-9.81.13-15.02-1.45,1.5-2.48,2.87-4.5,3.99-6.66,3.77-7.25,2.68-13.16-3.51-18.51-9.5-8.22-20.89-11.8-33.15-13.03-5.54-.55-11.15-.72-16.65.07-9.67,1.38-19.13-.18-28.53-1.79-34.39-5.9-64.1-21.73-89.99-44.57-26.19-23.11-35.54-52.92-31.33-87.09,3.47-28.14,16.42-51.51,37.37-70.57,14.12-12.84,29.6-23.69,46.37-32.75,18.04-9.75,36.57-18.53,54.94-27.62,9.8-4.84,19.57-9.71,28.12-16.67,3.28-2.67,6.38-5.51,9.01-8.84,3.18-4.03,4.77-8.68,5.24-14.32,15.56,6.55,18.97,19.46,19.04,34.27,2.12-.48,1.8-2.07,2.01-3.15,3.61-18.51-6.71-34.89-25.42-39.72-12.85-3.32-26.09-4.12-39.31-4.6-6.32-.23-12.66.05-18.97-.22-11.41-.49-14.34-4.05-12.2-15.34,1.28-6.78,2.45-13.56,3.4-20.39,1.06-7.61,5.3-11.41,12.99-12.17,4.33-.42,8.54.32,12.25,2.39,13.19,7.34,27.46,11.43,41.94,15.3,13.79,3.69,26.39,10.59,38.17,18.43,8.01,5.33,11.92,14.25,13.79,23.8,1.61,8.21,1.37,16.4-.15,24.57-4.73,25.47-16.59,46.73-37.22,62.8-9.09,7.08-18.82,13.19-28.67,19.14-11.65,7.03-23.31,14.04-34.42,21.91-6.74,4.77-13.23,9.84-18.82,15.97-4.69,5.14-8.59,10.79-10.53,17.59-2.99,10.49-.16,19.35,7.81,26.51,7.71,6.93,17.39,8.7,27.3,9.91-10.97-4.85-21.99-9.43-28.2-20.73,5.88,4.46,12.02,3.46,18.04,1.02,13.67-5.54,27.29-11.23,39.69-19.39,2.88-1.9,5.8-3.75,8.58-5.78,13.59-9.9,28.43-17.29,44.39-22.55,12.4-4.08,24.55-8.88,35.56-15.98,19.37-12.5,40.74-19.24,63.27-22.94,17.99-2.96,35.58-7.37,52.75-13.62,25.35-9.23,51.23-10.5,77.41-3.7,6.89,1.79,13.43,4.52,19.8,7.65,11.71,5.75,23.62,11.02,35.97,15.19,17.86,6.03,32.23,16.53,43.03,32.02,3.5,5.02,7.51,9.69,11.34,14.48,11.53,14.45,26.66,23.4,44.73,25.87,35.59,4.85,66.14,21.09,95.35,40.49,24.32,16.15,41.95,37.78,52.03,65.46,11.92,32.76,26.69,64.4,38.19,97.33,2.9,8.31,5.62,16.68,7.78,25.24,2.62,10.41-.54,18.45-8.92,24.71-11.86,8.85-24.09,17.32-38.25,21.91-17.75,5.75-32.66,15.58-46.22,28.13-24.7,22.86-54.24,36.25-86.9,43.22-11.7,2.49-23.64,2.58-35.49,2.58-17.73,0-34.58,3.45-50.87,10.31-8.64,3.64-17.45,6.89-26.67,8.89-3.21.7-6.44.98-9.68,1.18-9.85.59-16.87-3.83-21.72-12.22-4.47-7.72-5.75-16.3-6.02-24.9-.99-31.04-1.52-62.08,3.15-92.94,4.93-32.58,18.29-60.59,43.53-82.54,17.51-15.23,35.2-30.21,54.44-43.23,14.65-9.92,30.08-18.3,46.87-24.13,13.59-4.72,27.25-5.87,41.25-2.35.73.18,1.46.49,2.46-.15-.28-1.43-1.56-1.68-2.69-2.17-12.37-5.38-24.92-5.03-37.67-1.48-14.88,4.13-28.79,10.48-41.95,18.45-26.84,16.25-51.24,35.68-74.04,57.16-19.93,18.77-31.45,42.15-37.19,68.66-3.49,16.16-5.23,32.53-5.69,49.02-.34,12.45-.25,24.91-.38,37.37-.02,1.83.42,3.76-.61,5.85-20.91-23.53-37.67-50.17-63.14-70.81,15.9-1.49,29.74-5.6,42.88-12.65-1.22-1.27-2.19-.83-3.01-.51-16.95,6.64-34.78,7.48-52.62,7.36-20.3-.14-40.62-.77-60.73-4.1-10.01-1.66-19.94-3.77-30.04-4.94-13.42-1.55-26.76-1.43-40.04,1.23-.73.15-1.5.11-2.24.16-.13-.39-.27-.79-.4-1.18Zm104.13-179.99c.93-1.15,1.8-2.36,2.8-3.44,6.18-6.71,17.66-8.03,24.08-2.91,1.82,1.45,2.21,2.78,1.04,4.87-2.71,4.82-6.63,7.16-12.22,6.98-2.28-.07-4.57-1.24-7.25-.55,5.56,6.63,14.43,6.97,19.76,1.09,1.27-1.4,2.14-3.16,3.21-4.73.28-.41.63-.43.91-.14,1.22,1.04.47,3.29,2.49,4.44,1.28-6.77.39-12.38-5.07-16.38-7.07-5.16-14.66-5.13-22.26-1.37-4.74,2.34-8.65,5.55-7.5,12.14Z"/><path class="cls-1" d="m101.7,378.13c5.71-.53,10.19.37,14.65,1.07,19.66,3.06,39.17,6.99,58.99,9.07,28.78,3.02,57.31,2.07,85.75-3.33,16.37-3.11,32.3-8.08,48.6-11.43,13.17-2.71,26.45-4.42,39.88-1.78,6.24,1.23,12.2,3.27,17.66,6.6,6.99,4.26,8.37,11.53,3.44,18.14-3.81,5.1-9.18,8.03-14.89,10.4-11,4.55-22.41,7.82-34.04,10.24-32.26,6.71-64.85,8.3-97.7,6.3-24.03-1.47-47.48-5.62-70.07-14.11-14.94-5.62-29.02-12.92-42.09-22.1-3.42-2.4-6.9-4.78-10.18-9.05Z"/><path class="cls-1" d="m238.52,350.61c-6.09,2.06-12.2,2.68-18.22,3.2-51.03,4.46-100.46-3.32-148.35-20.8-23.61-8.62-44.52-22.16-62.86-39.45-2.78-2.62-5.27-5.55-7.87-8.36-.64-.7-1.24-1.47-1.22-2.88,1.55-.72,3.1-.08,4.68.33,11.86,3.11,23.3,7.53,34.94,11.34,20.76,6.8,41.7,12.85,63.34,16.14,22.45,3.41,44.98,4.06,67.59,2.16,4.96-.42,9.91-.91,14.87-1.39,2.14-.21,3.96-.19,5.62,1.78,12.28,14.55,27.74,25.14,43.87,34.88,1.12.68,2.47,1.07,3.62,3.05Z"/><path class="cls-1" d="m918.13,918.97c-2.85-1.3-4.03-3.54-7.49-4.3,4.31,5.65,7.63,10.77,11.71,15.18,13,14.09,17.15,31.37,18.18,49.67.82,14.66-5.53,22.35-19.93,25.67-6.34,1.46-12.63,3.13-18.94,4.72-2.23.56-4.42,1.31-6.68,1.7-2.62.45-5.82,1.8-7.84.39-3.11-2.16,2.05-4.3,1.01-6.9-.29-.09-.81-.37-.91-.26-7.17,7.76-16.57,9.88-26.53,10.51-8.25.52-16.45-.07-24.65-1.07-6.27-.77-12.6-1.06-18.87-1.8-10.66-1.26-10.65-1.34-16.01-9.83-1.78,1.4-.39,3.66-1.46,5.14-8.64-.72-14.15-6.52-14.95-15.71-.37-4.28.44-8.42,1.64-12.46,4.15-14.05,10.59-27.08,18.06-39.62,2.07-3.47,4.7-6.55,7.72-9.24,5.05-4.5,7-10.1,7.32-16.81.69-14.6-1.56-28.67-6.81-42.23-5.53-14.28-11.5-28.4-17.12-42.65-7.35-18.65-12.06-37.92-13.13-58.02-.16-3.04.18-5.4,3.06-7.35,18.23-12.34,30.31-29.52,38.57-49.64,1.16-2.83,2.41-5.63,3.66-8.43,1.73-3.88,1.76-3.93,5.9-2.87,12.44,3.17,24.93,6.08,37.69,7.63,5.89.72,11.8,1.26,17.72,1.78,2.15.19,3.74.68,3.66,3.3-.36,12.81,3.42,24.99,5.78,37.38,2.74,14.35,4.21,28.78,4.26,43.39.04,12.07-.14,24.12.83,36.19,1.18,14.59,4.51,28.74,7.87,42.89,3.36,14.18,5.13,28.57,6.69,43.63Z"/></svg>