<svg xmlns="http://www.w3.org/2000/svg" viewBox="0 0 566.57 626.59"><g id="Layer_2" data-name="Layer 2"><g id="OBJECT"><path d="M258,506.29c-4.12,0-7.61-1.71-10.67-5.23l-.21-.23a1.71,1.71,0,0,1-.18-.2A201.53,201.53,0,0,0,230.16,483a51.86,51.86,0,0,1-11.28-16.51l-.26-.58c-.94-2.16-1.93-4.39-2.72-6.63-3.79-10.75-9.58-21.55-17.69-33a39.33,39.33,0,0,0-11.46-10.62l-.21-.13a5.6,5.6,0,0,0-2.88-1.06l-1.94-.09,1.05,1.63a8.16,8.16,0,0,0,2.2,2.2l.43.33a45.21,45.21,0,0,1,9.7,9.73c8.38,12.29,13.66,22.3,17.14,32.45.09.27.27.79.33,1.08-.28.1-.8.21-1,.26A48.1,48.1,0,0,1,201,463.21a46.93,46.93,0,0,1-10-1.09,146.12,146.12,0,0,1-17.51-5.41l-2.32-.82c-5.2-1.83-10.23-3.73-14.74-6.85a43.19,43.19,0,0,0-16.86-7.1,29,29,0,0,1-12.41-5.79c-1-.81-2.11-1.6-3.18-2.39-.82-.61-1.65-1.22-2.46-1.84a52.85,52.85,0,0,1-10.57-11,81.16,81.16,0,0,0,10.15,7.32l.17.11a5.49,5.49,0,0,0,2.61,1l2.53.1-1.78-1.81a40.26,40.26,0,0,0-3.64-3.27,137.59,137.59,0,0,1-13.2-11.76,94.84,94.84,0,0,1-21.5-35c-.63-1.83-1.22-3.72-1.79-5.54-.91-2.92-1.85-5.93-3-8.85,0-.13-.11-.26-.18-.41s-.08-.18-.12-.29a5.47,5.47,0,0,1,.62.51,11.27,11.27,0,0,1,.95,1.07l.19.23a63.42,63.42,0,0,0,5.14,5.55,12.45,12.45,0,0,0,1,.81l.4.33L91,369.63c-1.1-1.6-2.24-3.17-3.34-4.7-1.45-2-3-4.07-4.31-6.15-4.38-6.7-7.07-12.55-8.48-18.42a71.08,71.08,0,0,1-1.8-16.82c0-1.38,0-2.77,0-4.15a113,113,0,0,0-.27-11.46c0-.16,0-.29,0-.39l.44.21c.4.22.8.42,1.21.63a16.9,16.9,0,0,1,4.82,3.18l1.67-1a12.53,12.53,0,0,0-1.26-2.79,60.26,60.26,0,0,1-4.77-9.45,6.51,6.51,0,0,0-.39-.8,3.43,3.43,0,0,1-.35-.77,4.78,4.78,0,0,1,.68.25c.29.11.58.23.84.3a82.61,82.61,0,0,0,20.86,3.05l1.71,0,.18-2c-3.23-.71-6.52-1.38-9.7-2l-2.55-.53c-10.66-2.19-18.46-5-25.28-9.09A34.42,34.42,0,0,0,53,283.07a6.24,6.24,0,0,0,2.31-2.47,3,3,0,0,1,.46-.85c.19,0,.71.18,1.09.29l1.15.33c1.13.33,2.3.68,3.48,1a57.62,57.62,0,0,0,13.29,1.3c1.56,0,3.12,0,4.68-.07a50.63,50.63,0,0,0,8.06-.92l-.09-2c-3.41-.29-6.69-.36-9.86-.43-1.25,0-2.49-.05-3.73-.09a54.4,54.4,0,0,1-14.6-2.39,27.35,27.35,0,0,1-13.35-9,17.63,17.63,0,0,0,6.62,1.7l.54-1.86c-.94-.55-1.91-1-2.85-1.5l-.66-.34a29.11,29.11,0,0,1-15.14-17.34c-.57-1.73-1.07-3.54-1.55-5.29-.16-.61-.33-1.22-.5-1.83-1.11-4-2.54-8.12-5.44-11.74-.57-.71-.63-1-.61-1.15s.2-.48,1-1.07a16.48,16.48,0,0,1,3.77-2c.4-.16.79-.33,1.18-.51a8.07,8.07,0,0,1,3.26-.8,5.83,5.83,0,0,1,2.92.82,15.89,15.89,0,0,0,3.7,1.37c.4.11.8.22,1.18.34l.14.05a2.28,2.28,0,0,0,1,.24,1.9,1.9,0,0,0,1.33-.57l.91-.87-1-.69a52.76,52.76,0,0,0-7-3.9,23.83,23.83,0,0,1-11.39-11c-1.44-2.72-2.73-5.48-3.69-7.58l-.37-.81A39.11,39.11,0,0,0,17.59,192a2.59,2.59,0,0,1-.42-.6,3.5,3.5,0,0,1,.68-.42,51.11,51.11,0,0,1,6.32-2.59,10.28,10.28,0,0,1,3.56-.66,12.19,12.19,0,0,1,6.8,2.32l.35.23a51.06,51.06,0,0,0,7.64,4.46,31.38,31.38,0,0,0,9.55,2.45l2.46.26-1.59-1.89a3.24,3.24,0,0,0-1.8-1.08l-.25-.08c-7.54-2.55-14.58-7.26-22.16-14.81a21.66,21.66,0,0,1-6.35-13.75A102.81,102.81,0,0,1,22,155a50.74,50.74,0,0,0-1-11.77c0-.13-.05-.24-.07-.33l.34.1c.61.2,1.21.44,1.82.67a23,23,0,0,0,2.93,1,6.08,6.08,0,0,1,3,1.83l1.61,1.7c2.42,2.55,4.93,5.19,7.46,7.72A42.63,42.63,0,0,0,54.5,166.23l1.34.42.7.21,2.19.67-1-2.06a1.43,1.43,0,0,1-.09-.2,1.15,1.15,0,0,0-.54-.63l-.13-.07c-.45-.24-.91-.48-1.38-.7a44.5,44.5,0,0,1-12.39-8.67c-3.25-3.21-5.9-5.94-8.33-8.59a93.69,93.69,0,0,0-10.29-9.83,42.85,42.85,0,0,1-5.11-4.6,12.2,12.2,0,0,1-2.88-4.7,3.67,3.67,0,0,1,1.26-4.18,10,10,0,0,1,3.63-1.94,22.68,22.68,0,0,1,7-1.08,26.06,26.06,0,0,1,4.83.47,48.69,48.69,0,0,1,13.29,4.91,41.15,41.15,0,0,0,8.53,2.91c1.34.35,2.72.71,4.06,1.13l2.22.71-1-2.1c-.82-1.69-1.47-2.32-3.66-2.74a34.2,34.2,0,0,1-8.29-3,85.34,85.34,0,0,0-10.22-4.34,30.6,30.6,0,0,0-9.7-1.58,32.49,32.49,0,0,0-5.08.4,3.63,3.63,0,0,1-.64.06,2.81,2.81,0,0,1-2-.79,66.48,66.48,0,0,1-7.69-7.87A33.54,33.54,0,0,1,9,102.29a8.46,8.46,0,0,1-1.05-3.71c0-1.33.38-1.78,1.66-2a6.3,6.3,0,0,1,.89-.07,8.69,8.69,0,0,1,1.82.23c1.64.36,3.29.89,4.88,1.4.86.28,1.72.55,2.59.81a6.9,6.9,0,0,1,3.3,2.12A94.24,94.24,0,0,0,41.56,116.7c.34.21.69.41,1,.6l.46.26,2.81,1.61-1.42-2.92a4.64,4.64,0,0,0-1.2-1.47,226.91,226.91,0,0,1-18-17.31A111.24,111.24,0,0,1,8.69,74.1a21.41,21.41,0,0,1-2-4.74,3.41,3.41,0,0,1,.18-2.61,3,3,0,0,1,2-1.13,17.09,17.09,0,0,1,3.35-.36,11.46,11.46,0,0,1,5.46,1.3A170.17,170.17,0,0,1,43.06,82.69c.53.42,1.09.81,1.64,1.21l.72.52L46.77,83A65.65,65.65,0,0,0,31.12,69.6c-3-1.8-6.08-3.53-9.07-5.19l-.92-.51A101.08,101.08,0,0,1,9.67,56.84a36.36,36.36,0,0,1-6.94-6.4,7.46,7.46,0,0,1-.6-.93A7.81,7.81,0,0,0,1,47.94v-.82a9.39,9.39,0,0,1,4.76-2.46,38.68,38.68,0,0,1,9.42-1H16.4a88.49,88.49,0,0,1,11.82,1c9.91,1.52,17.54,4.46,24,9.28.34.25.7.49,1.06.72a8.77,8.77,0,0,1,1.77,1.37C60.19,61.64,65.69,67,71,72.17c2.67,2.6,5.42,5.28,8.09,8a1.46,1.46,0,0,1,.16.19,2.22,2.22,0,0,0,1.81,1,1.23,1.23,0,0,0,.27,0l1.81-.21L82,79.71c-3.27-4-6.89-8.12-11-12.53C63.28,59,55.2,50.33,48.06,41.1A168.2,168.2,0,0,1,33.91,19.63a13,13,0,0,1-1.44-3.34c-.5-2.24.28-3.49,2.53-4A11,11,0,0,1,37.66,12a23.59,23.59,0,0,1,2.55.16c3.64.42,6.89.9,9.95,1.5,10.5,2,18.51,5.07,25.22,9.54a99.24,99.24,0,0,1,21.5,19.49c8.72,10.58,15.88,22.15,21.74,32.08q1.89,3.23,3.76,6.47c3.87,6.71,7.88,13.65,12.45,20.12,1.28,1.82,2.51,3.74,3.75,5.86a47.59,47.59,0,0,0,8.25,10.41,67.38,67.38,0,0,0,23,14.08c4.43,1.69,9,3,13.51,4.28l1.19.33a56,56,0,0,1,15,6.61c3.43,2.2,6.48,4.3,9.32,6.42,12.29,9.2,24.71,15.19,38,18.33l1.65.4a50.64,50.64,0,0,0,6.81,1.35,110.24,110.24,0,0,0-15.14,13.07l-4,4.06c-3.63,3.71-7.39,7.55-11.16,11.23-4.75,4.62-9.63,9.27-14.36,13.76-2.29,2.19-4.6,4.37-6.89,6.57-.41.39-.8.81-1.19,1.22l-.51.55,1.23,1.55a35.54,35.54,0,0,0,4.33-3.18l.86-.7a323.86,323.86,0,0,0,33-30.36c1.4-1.48,2.91-2.93,4.38-4.33l.9-.86A93.57,93.57,0,0,1,284,160.26c12.32-3.86,25.83-6,43.8-6.91,4.39-.23,8.87-.3,13.2-.38l5.61-.1.69,0c1.18,0,2.4,0,3.63-.18l.11,1c.67.05,1.38.07,2.11.07a59.9,59.9,0,0,0,6.51-.46c1.05-.12,2.1-.3,3.11-.49l.63-.11c8.84-1.57,17.31-5.53,25.87-12.12,7.56-5.81,14.17-12.79,20.29-19.44a159.34,159.34,0,0,0,23.61-32.46c1.68-3.12,3.44-6.27,5.14-9.32q1.39-2.49,2.78-5a204.38,204.38,0,0,1,40.55-51.41,53.62,53.62,0,0,1,12.72-9,22.15,22.15,0,0,1,10-2.43c.55,0,1.12,0,1.68.06a1.89,1.89,0,0,1,1.76,1,12.66,12.66,0,0,0,7,5.32,66,66,0,0,0,11.69,2.52,44.91,44.91,0,0,0,4.73.32,34.46,34.46,0,0,1,5.34.44l3.24.58.8-1.77a10.46,10.46,0,0,0-5.66-2.15c-1.1-.14-2.21-.26-3.32-.37-1.43-.15-2.85-.31-4.28-.49a57.93,57.93,0,0,1-11.68-2.68,9,9,0,0,1-6.11-7,11.9,11.9,0,0,1,.09-5.87l0-.12a12.12,12.12,0,0,0,1.32.72,7.39,7.39,0,0,1,2.4,1.56,17.83,17.83,0,0,0,9.24,5.13,47,47,0,0,0,11.32,1.31A20,20,0,0,1,541.08,11l.15.07a3.28,3.28,0,0,0,1.27.31,2.32,2.32,0,0,0,1.08-.28l.56-.31,0-.64a3.35,3.35,0,0,1,.41-1.48A8,8,0,0,0,545,7.37,8.57,8.57,0,0,0,545.18,6c0-.18,0-.35,0-.51a8.77,8.77,0,0,1,.86,1.38c.16.29.32.58.49.85.66,1.08,1.75,2.52,3.48,2.52a4.83,4.83,0,0,0,2.69-1,1.33,1.33,0,0,1,.7-.29,1.27,1.27,0,0,1,.76.34,3.42,3.42,0,0,1,1.32,1.6A9.42,9.42,0,0,0,557,13.51c2.25,2.63,3.61,6,4.29,10.45.49,3.24-.34,5.2-2.76,6.53a6.44,6.44,0,0,0-3.28,4.86,17.5,17.5,0,0,0-.2,7.25,46.76,46.76,0,0,0-7.67-2.1c-1.83-.39-3.71-.79-5.5-1.35a5.57,5.57,0,0,0-1.71-.29,4.73,4.73,0,0,0-2.77.93l-2.06,1.42,2.47.39c.42.07.8.11,1.16.15a6.22,6.22,0,0,1,1.52.27,45.54,45.54,0,0,0,6,1.68c1.35.32,2.74.65,4.07,1,9.38,2.87,15,8.44,17.07,17V65a19.83,19.83,0,0,0-10.33-7.88,46.89,46.89,0,0,0-7.58-1.9,55.08,55.08,0,0,0-9.82-1.09,28.44,28.44,0,0,0-3.25.18l.1,2a53.13,53.13,0,0,1,8.68.89l.37.07A53.88,53.88,0,0,1,557,60.06a17.1,17.1,0,0,1,7.13,5.19A28.91,28.91,0,0,0,550,61.55a31.06,31.06,0,0,0-5,.4,62.85,62.85,0,0,0-10.92,3.12l-.18.07-.52.19-.59.22,0-.06a2.55,2.55,0,0,0,0-2.19l-.51-1-.93.62a4.54,4.54,0,0,0-1.84,2.88,17.62,17.62,0,0,0-.49,4.74s0,2,0,2.85c0,2.93,0,6-.27,8.93a41.17,41.17,0,0,1-4.59,16.23,24.25,24.25,0,0,1-5.13,6.8,7.92,7.92,0,0,1-5.35,2.28,9.15,9.15,0,0,1-3.9-1A15,15,0,0,1,502,97.91a25,25,0,0,1-1.34-7.82c0-.7-.07-1.4-.12-2.1,0-.41-.06-.82-.08-1.23,0-.75-.07-1.5-.11-2.25l-.05-1-2-.17a33.94,33.94,0,0,0-.47,12.13,18.07,18.07,0,0,0,9.49,13.92,13.1,13.1,0,0,0,6.35,1.76,11.5,11.5,0,0,0,8.47-3.88,31,31,0,0,0,2.9-3.42c.3-.43.46-.43.52-.43a1.21,1.21,0,0,1,.51.16,8.23,8.23,0,0,0,3.59.81,9.77,9.77,0,0,0,2.35-.3,6.37,6.37,0,0,1,.63-.11c-.86,5.79,0,11.48.94,17.28a317.83,317.83,0,0,0,7.81,33.36c2.73,9.66,5.58,20.08,7.86,30.84a84.17,84.17,0,0,1,1.26,28.08,141.09,141.09,0,0,1-9.62,35.22c-5.26,13.06-11.95,25.79-18.34,37.7a248,248,0,0,0-14.29,30.48c-1.24,3.33-2.35,6.75-3.42,10.06-.57,1.76-1.14,3.53-1.74,5.29A73.75,73.75,0,0,1,498,344.08a112,112,0,0,0,4.47-16.79l.13-.63a11.82,11.82,0,0,0,.29-4.27l-.57-3.51-1.34,3.3a30,30,0,0,0-1.3,4.06,135.41,135.41,0,0,1-5.55,18.08A132.68,132.68,0,0,1,462,390.78a72.1,72.1,0,0,1-24.82,15.06A169.54,169.54,0,0,1,420.46,411a322.48,322.48,0,0,0-45.93,15.13,98.86,98.86,0,0,1-13,4.45,23.85,23.85,0,0,1-5.69.76h-.56A41.79,41.79,0,0,1,342.77,429l-3.07-1-.9,1.75a22.48,22.48,0,0,0,5.62,2.92c-1.16.07-2.38.11-3.67.11-2.63,0-5.3-.15-7.89-.29-2.23-.13-4.53-.25-6.81-.29l-.3,2a64.72,64.72,0,0,0,16.57,2.48c.94,0,1.87.05,2.81.05a71.18,71.18,0,0,0,23.81-4.1c3.61-1.28,7.22-2.72,10.71-4.1,1.53-.6,3.05-1.21,4.58-1.8h0l-1.09,1.44c-1.51,2-3.07,4.08-4.68,6-4.9,6-11.24,11.3-20,16.77-7.59,4.76-15.51,8.78-23.18,12.67a280.19,280.19,0,0,0-26.16,14.52c-4.07,2.64-8.11,5.45-12,8.16-2,1.38-4,2.76-6,4.12a175.85,175.85,0,0,1-18.05,11.12,52.91,52.91,0,0,1-10.59,4.09A17.51,17.51,0,0,1,258,506.29ZM197.64,351.68a1.69,1.69,0,0,0-1.23.52l-1.27,1.28,1.75.4a39,39,0,0,0,8.71,1.17h.25a66.67,66.67,0,0,0,12.68-1.45,155.12,155.12,0,0,0,17.64-4.95l2.56-.83a136.39,136.39,0,0,1,21.09-5.38c5.32-.79,10.88-1.12,15.78-1.41.55,0,1.11-.05,1.66-.05a31.57,31.57,0,0,1,6.5.7A62.8,62.8,0,0,0,294.19,343c2.26.09,4.51.14,6.67.14A125.22,125.22,0,0,0,324.92,341c14.58-2.83,26.54-8.6,36.58-17.65l3.24-2.91c6.32-5.69,12.85-11.56,18.92-17.76a82.48,82.48,0,0,1,15.15-12.44,35.19,35.19,0,0,0,5.29-4,47.12,47.12,0,0,1-6,9.45c-1.08,1.3-2.23,2.6-3.34,3.85l-2,2.22-.17.18a3,3,0,0,0-.93,1.69l-.24,1.7,1.6-.62a39.79,39.79,0,0,0,16.69-12A80.43,80.43,0,0,0,420.81,275a135.13,135.13,0,0,0,10.9-74.15c-1.63-12.73-4.41-25.45-7.11-37.75l-.61-2.8c-.15-.68-.33-1.34-.51-2-.09-.3-.17-.6-.25-.9l-.79-3-1.11,2.91a5.57,5.57,0,0,0-.17,2.88l0,.15c.8,5.93,1.95,11.88,3.06,17.63.53,2.7,1.05,5.39,1.53,8.1a191.68,191.68,0,0,1,3.37,27.78,132.09,132.09,0,0,1-2.77,31c-2.74,13.15-6.4,23.66-11.51,33.06a81.13,81.13,0,0,1-9.35,13.72,69.09,69.09,0,0,0,5.76-12.9c2.74-8.24,5-19.3,4.08-22.64l-.68-2.39-1.17,2.2a11.28,11.28,0,0,0-1,3.57c-.05.32-.11.64-.17,1-1,5-2.17,10.32-4.79,15.26s-5.77,8.5-9.72,10.86c-6.1,3.65-11.89,8.37-18.76,15.31s-14,13.2-20.87,19.11a66.28,66.28,0,0,1-17.1,11c-9.9,4.23-21.06,6.6-34.11,7.24-.85.05-1.74.08-2.68.1a34.13,34.13,0,0,0,8.24-2,14,14,0,0,0,5.38-3.95l1.56-1.78-2.37.13a4.49,4.49,0,0,0-2.34.83l-.27.17a21.67,21.67,0,0,1-7.58,2.78,100.83,100.83,0,0,1-12.43,1.25l-2.93.11c-5.27.21-10.72.43-16.08.44-3,0-6.08.24-8.76.45a108.09,108.09,0,0,0-23.92,4.79c-2.25.7-4.49,1.43-6.73,2.15-5.21,1.69-10.6,3.44-16,4.82s-11,2.64-16.73,2.64a36.52,36.52,0,0,1-5.18-.36A2.68,2.68,0,0,0,197.64,351.68Zm-17-108.81a7.64,7.64,0,0,0-3,2.37l-.08.09c-15.47,17.41-27.83,34.34-37.8,51.75-6.27,10.95-10.18,19.82-12.68,28.77a29.94,29.94,0,0,0-1.13,5.88c-.26,3.68,1.14,6.31,4.16,7.82.66.33.77.56.76,1a3.77,3.77,0,0,0,2.08,3.38,31.63,31.63,0,0,0,3.21,1.69c6.59,3,13.93,4.38,23.78,4.38h1.13a169.55,169.55,0,0,0,27.73-2.75,120.42,120.42,0,0,0,26.64-7.57l.17-.07a6.07,6.07,0,0,0,.69-.31,1.35,1.35,0,0,0,.86-.79,1.29,1.29,0,0,0-.16-1.13l-.29-.48h-.86l-.22.05a215.74,215.74,0,0,1-42.59,8.3c-5.37.5-9.7.74-13.63.74a80.28,80.28,0,0,1-9.29-.5,47.09,47.09,0,0,1-13.16-3.2,13.67,13.67,0,0,1-2.42-1.21,1.54,1.54,0,0,1-.46-.39h0a2.11,2.11,0,0,1,.34-.59,18.91,18.91,0,0,1,3.69-3.5A143.5,143.5,0,0,1,155,325.61c.72-.41,1.42-.85,2.13-1.29l1-.59-.66-1.85a12.62,12.62,0,0,0-4.06,1.34,101,101,0,0,0-10.33,6,86.56,86.56,0,0,0-9.12,6.68,1.66,1.66,0,0,1-1.14.52,2.27,2.27,0,0,1-1-.27,3.38,3.38,0,0,1-2.12-3,17.38,17.38,0,0,1,.73-5.4c2.17-8.23,5.65-16.43,11.27-26.59a293.77,293.77,0,0,1,23.8-35.94c4.1-5.38,8.64-11,13.89-17.2l.27-.32a11.58,11.58,0,0,0,2.29-3.47l.77-2.06ZM500,39.93a8.54,8.54,0,0,0,6.7,3.33,9.81,9.81,0,0,0,6.42-2.54l.22-.2a5.39,5.39,0,0,0,2-3c.7-3.62-.1-6.4-2.45-8.52a11.94,11.94,0,0,0-6.22-3,9.57,9.57,0,0,0-1.5-.12,8.48,8.48,0,0,0-8.4,6.5l1.74.89.15-.18a5.58,5.58,0,0,0,.39-.46c.09-.11.17-.22.25-.34l.24-.31A6.84,6.84,0,0,1,505,29.31a8.12,8.12,0,0,1,1.59.17c3.17.67,5.17,2.3,6.11,5a2.59,2.59,0,0,1-.3,2.46,7.87,7.87,0,0,1-6.08,3.11,5.33,5.33,0,0,1-2.52-.6l-.44-.24a6.17,6.17,0,0,0-2.43-.92L498.43,38Z" transform="translate(-1 -1.15)"/><path d="M336.92,627.75a14.67,14.67,0,0,0-6.43-3.52,42.91,42.91,0,0,1-10.22-4.35c-9-5.52-19.28-9.6-33.23-13.25-1.74-.45-3.51-.86-5.22-1.25-1.29-.29-2.58-.58-3.86-.9a22,22,0,0,1-6.28-2.39,13.06,13.06,0,0,1-6-7,7,7,0,0,0-6.69-4.91,7.4,7.4,0,0,0-3,.64,20,20,0,0,0-2.84,1.6c-1.8,1.16-3.75,2.14-5.63,3.1l-.45.23A24.06,24.06,0,0,1,236,598.35l-1,0q-.54,0-1.08,0a7.39,7.39,0,0,0-3.27.63l.06-.41a12.26,12.26,0,0,1,6.53-9.43c5.89-3.2,11.23-6.33,16.32-9.56l.2-.13a4.64,4.64,0,0,1,.44-.26c4.44-2.35,6.26-6.21,5.56-11.82a83,83,0,0,0-2.29-11.93c-1.79-6.43-3.41-13-5-19.41-1.2-4.88-2.44-9.94-3.75-14.89a142.83,142.83,0,0,0-6.37-19.81c.34.41.69.82,1,1.22a27,27,0,0,0,5.36,4.94,14.13,14.13,0,0,0,8.07,2.66c.31,0,.63,0,.94,0l.34,0a34.5,34.5,0,0,0,8.68-1.37c.2-.06.67-.22,1-.27a7.74,7.74,0,0,1,.25,1,90.64,90.64,0,0,0,3.46,11.85c2.81,8.07,5.23,16.42,7.57,24.5.93,3.18,1.85,6.36,2.79,9.53.35,1.16.69,2.33,1,3.5a144.48,144.48,0,0,0,5.63,16.66,34.22,34.22,0,0,0,4.15,7.43,9.19,9.19,0,0,0,4.25,3,31.21,31.21,0,0,0,9.23,1.63c5.55.3,11.15.84,16.87,1.41a127.32,127.32,0,0,0,13.11.75h.21a53.4,53.4,0,0,0,6.63-.55c1.76-.22,3.57-.45,5.35-.51l.81,0c2.84-.11,5.78-.22,8.66-.22a65.91,65.91,0,0,1,11.39.85,13,13,0,0,1,3.65,1.18A10.23,10.23,0,0,0,367,592.5a15.22,15.22,0,0,1-6,3,37.7,37.7,0,0,1-4.19.58c-9.3.72-17.87,1.18-26.2,1.4-1.23,0-2.46.09-3.69.14-1.81.09-3.69.17-5.53.17h-1.28l-10.61-.29-5.32-.16a4,4,0,0,1-1.63-.28c-3.55-1.64-7.56-3.69-10.29-7.32-.2-.26-.42-.5-.64-.74l-.11-.12a1.21,1.21,0,0,0-.71-.35l-.21,0-1.89-.42.75,1.79a14,14,0,0,0,3,4.44,21.47,21.47,0,0,0,5.65,4c3.62,1.88,7.39,4.11,12.22,7.22a105.09,105.09,0,0,0,15.55,8.11l.34.16a8.36,8.36,0,0,0,.87.36c5.58,2,8.78,6.18,9.8,12.9C336.87,627.3,336.9,627.52,336.92,627.75Z" transform="translate(-1 -1.15)"/><path d="M165.24,567.21a6.55,6.55,0,0,0-2.87-3.94c-3.17-2-5.16-4.93-6.46-9.6a30.4,30.4,0,0,0-3.26-7.67c-3.11-5.08-4.92-10.88-5.88-18.81a39.61,39.61,0,0,1-.13-9.87,19.76,19.76,0,0,0-.33-7.58,12.91,12.91,0,0,0-3.49-6.16,4.2,4.2,0,0,0-3-1.33,5.49,5.49,0,0,0-1,.11,31.88,31.88,0,0,1-5.38.54c-1,0-1.93.06-2.89.08-1.85,0-3.76.06-5.66.28a12,12,0,0,1-1.36.07,21.86,21.86,0,0,1-4.49-.56,12.87,12.87,0,0,0-2.64-.3,7.81,7.81,0,0,0-5.11,1.75,9.69,9.69,0,0,1,7-6.41c3.69-1,7.77-1.84,12.47-2.66a72.15,72.15,0,0,0,10.63-2.4,19.64,19.64,0,0,0,13.3-13.53,134.47,134.47,0,0,0,3.71-16.68c.18-1.06.33-2.13.48-3.19s.32-2.24.52-3.36a4.71,4.71,0,0,1,.13-.62,4.37,4.37,0,0,1,.49.21,138.38,138.38,0,0,0,13.6,5.3l3.7,1.3c.39.14.78.28,1.17.45-2,4.81-2.86,9.85-3.67,14.72-.15.9-.3,1.8-.46,2.7l-.25,1.44c-1.18,6.74-2.39,13.7-3.89,20.48a24,24,0,0,0,.74,13.81c.57,1.56,1,3.13,1.37,4.47A46.35,46.35,0,0,0,181.08,537a27.89,27.89,0,0,0,12,8.79,148.16,148.16,0,0,0,18,5.31A104.89,104.89,0,0,1,226.67,556a19.89,19.89,0,0,1,6.5,4.23h0l-.58-.15a11.28,11.28,0,0,0-2.4-.28,8.68,8.68,0,0,0-3.72.82,11.22,11.22,0,0,1-4.92,1.15,14.35,14.35,0,0,1-5.66-1.28A74.23,74.23,0,0,0,204.68,557c-1.79-.44-3.64-.91-5.43-1.42l-3.43-1c-4.73-1.35-9.63-2.75-14.34-4.43a23.18,23.18,0,0,1-8.4-5.15c-3.35-3.24-6.56-6.67-9.57-10.2a10,10,0,0,1-2.28-5.67,78.1,78.1,0,0,1-.37-8,31.12,31.12,0,0,0-.41-4.37l-.09-.62a2.73,2.73,0,0,0-1-2l-.5-.38-.56.29a1.58,1.58,0,0,0-.81,1.86,34.78,34.78,0,0,1,.25,6.91,54.35,54.35,0,0,0,2.54,18.29c.39,1.29.79,2.57,1.19,3.85,1,3.2,2,6.5,2.79,9.8.91,4,1.67,7.89,1,11.92C165.29,566.91,165.27,567.06,165.24,567.21Z" transform="translate(-1 -1.15)"/><path d="M529.36,100.91c-1.58,0-1.79-.36-1.8-.37s-.19-.34.46-1.73A41.9,41.9,0,0,0,532.27,81V76.26h0V75.11c0-1.48,0-3,0-4.43,0-1.89,0-1.89,1.74-2.39l1.48-.44a65.09,65.09,0,0,1,11.41-2.61l.5-.07a4,4,0,0,1,.48-.07h.72a4.36,4.36,0,0,1,0,.61,73.83,73.83,0,0,1-7.95,26.65,22.11,22.11,0,0,1-3,4.41,12.23,12.23,0,0,1-6.83,4,7.22,7.22,0,0,1-1.31.16Z" transform="translate(-1 -1.15)"/><path d="M297.5,582.14a2.1,2.1,0,0,1-1.49-.73,14.44,14.44,0,0,1-3.33-4.86h.71a57.66,57.66,0,0,0,6.36-.47c1.24-.14,2.53-.28,3.8-.37a9.27,9.27,0,0,1,5.16,1.54c.12.08.26.2.37.29H309l-.31.07a42.83,42.83,0,0,0-9.94,4.13A2.74,2.74,0,0,1,297.5,582.14Z" transform="translate(-1 -1.15)"/></g></g></svg>