<?xml version="1.0" encoding="UTF-8"?><svg id="Layer_1" xmlns="http://www.w3.org/2000/svg" viewBox="0 0 1920 842.56"><defs><style>.cls-1{stroke-width:0px;}</style></defs><path class="cls-1" d="m839.77,0h5.59c3.18.31,6.36.79,9.55.89,14.2.46,28.17,2.42,41.66,6.89,14.72,4.88,29.35,10.03,43.92,15.35,33.72,12.31,68.2,22,103.18,29.88,13.3,3,26.9,4.64,40.34,7.06,22.11,3.99,44.45,4.66,66.82,4.64,19.74-.02,39.41-1.36,58.97-4.1,16.9-2.37,33.89-4.3,50.68-7.31,15.58-2.8,31.07-5.95,46.89-7.19,10.59-.83,21.09-.73,31.55,1.21,11.97,2.22,23.31,6.46,34.61,10.78,16.52,6.32,33.09,12.45,50.13,17.28,21.16,6.01,42.49,10.41,64.71,8.51,6.49-.55,13.06-.09,19.55-.64,15.62-1.31,31.21-3.05,46.82-4.43,15.7-1.38,31.31-1.01,46.72,2.92,27.29,6.96,52.73,18.02,76.55,33.11,28.9,18.31,55.02,39.91,78.85,64.36,17.29,17.74,32.25,37.36,46.59,57.5,15.1,21.2,26.28,44.26,33.08,69.39.76,2.81,1.24,5.76,1.41,8.67.81,13.94,3.61,27.4,9.86,39.95,5.54,11.11,11.51,21.99,17.15,33.04,10.78,21.1,19.58,42.91,22.91,66.58.88,6.29,2.46,12.69,2,18.91-.83,11.12.24,21.98,1.68,32.92,1.05,7.98,2.45,15.99.52,24.08-1.47,6.14-3.87,11.83-8.25,16.45-2.11,2.23-4.4,4.51-8.62,4.34,4.55-6.36,4.37-12.61,1.73-19.01-.41-1-.66-2.07-1.06-3.08-2.92-7.48-.55-14.55,1.47-22.25.58,1.62.95,2.62,1.31,3.62,2.66-9.5,3.97-19.01,3.97-28.62,0-13.43-2.6-26.54-6.02-39.47-5.43-20.53-13.96-39.84-24.39-58.23-9.31-16.42-17.2-33.35-22.01-51.65-1.25-4.76-2.68-9.47-4.21-14.86-.32,1.39-.54,2.12-.64,2.87-.12.92-.24,1.86-.19,2.78.65,12.97,2.84,25.68,8.42,37.45,2.28,4.81,2.37,9.04.43,13.67-.48,1.14-.77,2.38-1.35,3.46-4.31,8.08-8.21,16.41-13.1,24.13-13.52,21.33-25.17,43.47-32.82,67.66-4.91,15.53-10.65,30.79-15.75,46.26-3.21,9.76-8.19,18.33-15,26-11.1,12.53-24.18,22.76-37.56,32.63-3.58,2.64-7.65,4.71-11.69,6.62-19.95,9.41-41.07,11.68-62.75,9.55-19.09-1.88-37.46-7.03-55.63-12.99-3.94-1.29-8.08-2.28-12.19-2.7-5.32-.54-7.25,1.15-8.76,6.25-.26.88-.54,1.75-.83,2.68-.41-.26-.77-.37-.91-.6-5.63-9.23-10.05-18.93-10.98-29.87-1.32-15.51-3.82-30.79-8.67-45.63-3.6-11.01-5.1-22.39-5.34-33.92-.29-13.89,1.88-27.54,4.25-41.17,4.71-26.99,14.25-52.3,26.17-76.85,5.89-12.13,11.79-24.27,15.8-37.24,6.42-20.73,8.81-41.85,6.97-63.44-.38-4.48-1.13-8.94-1.95-13.36-1.75-9.46-3.6-18.89-5.54-28.31-.39-1.91-1.39-3.7-2.11-5.54.38,5.23,1.56,10.23,2,15.29.96,10.98,1.74,21.98,2.25,32.99.99,21.43-1.48,42.43-8.25,62.89-4.64,14.06-11.46,27.15-17.7,40.48-9.31,19.89-17.12,40.26-21.56,61.83-4.65,22.55-8.73,45.16-5.09,68.33.35,2.23-.48,3.85-2.1,5.33-10.56,9.63-20.96,19.43-31.63,28.93-26.19,23.32-54.76,43.32-85.24,60.64-16.48,9.37-33.26,18.11-51.3,24.11-22.11,7.36-44.56,13.39-67.75,16.35-19.6,2.5-39.26,3.66-59.01,3.43-21.29-.24-42.52-1.48-63.67-4-19.43-2.31-38.76-5.23-57.77-9.95-34.49-8.57-68.25-19.66-102.23-29.97-37.44-11.36-75.36-19.63-114.69-20.1-.97-.01-1.95-.31-3.73-.61,2.34-1.58,3.96-2.74,5.63-3.8,17.48-11.08,32.81-24.51,45.17-41.21,7.88-10.64,16.56-20.56,27.03-28.79.8-.63,1.74-1.06,2.62-1.59-.31-.37-.61-.73-.92-1.1-.63.3-1.32.51-1.87.91-4.89,3.57-9.87,7.02-14.59,10.8-7.2,5.76-12.72,13.13-18.63,20.12-7.53,8.92-15.88,17.03-25.02,24.32-.75.6-1.63,1.05-2.45,1.56-.24-.19-.48-.38-.72-.56,5.97-8.99,9.4-18.82,10.49-29.45.99-9.71-3.2-25.53-8.34-30.33.28.97.51,1.51.6,2.08.97,6.59,2.84,13.21,2.68,19.77-.36,14.44-4.64,27.86-13.95,39.23-4.02,4.91-7.82,10.42-12.89,13.97-10.29,7.19-21.44,13.11-33.42,17.22-26.48,9.08-53.62,15.53-81.13,20.52-3.56.65-7.12,1.37-10.67,2.06,3.28,2.5,7,.82,11.12,1.62-10.85,8.96-21.79,16.25-33.45,22.5-5.06,2.71-10.57,4.85-15.03,8.33-8.66,6.78-17.16,13.89-24.93,21.66-17.6,17.63-30.27,38.38-38.23,62.11-4.46,13.29-8.77,26.51-9.36,40.65-.07,1.79-.43,3.63,1.96,4.9,2.86-7.72,3.41-15.8,6.45-24.03.35,1.28.53,1.58.5,1.87-1.19,12.42.22,24.8.4,37.19.04,2.82-.46,6.11-1.93,8.41-5.67,8.84-13.89,14.95-23.25,19.45-7.39,3.56-15.31,4.09-23.21,2.23-5.61-1.32-11.04-1.15-16.58.05-3.03.66-6.1,1.2-9.17,1.58-2.49.31-4.97.18-6.91-2.15,3.09-4.64,6.33-9.15,9.18-13.9,2.85-4.75,3.76-10.18,4.33-15.6.56-5.34,1.88-10.66.87-16.14-.91,1.33-1.36,2.74-1.64,4.18-.72,3.65-1.45,7.31-2.04,10.99-1.81,11.31-7.45,20.59-15.05,28.89-3,3.28-6.41,4.63-10.84,3.33-9.37-2.76-18.86-5.15-28.16-8.11-10.51-3.35-19.96-8.61-27.04-17.37-4.21-5.21-4.08-6.71-.71-10.54.7-.8,1.07-1.88,1.59-2.84,1.8-3.31,4.09-6.15,7.17-8.41,4.13-3.03,8.46-5.93,12.04-9.53,9.76-9.83,19.18-19.99,28.71-30-4.19,1.45-6.2,2.77-10.27,6.64-7.09,6.74-14.02,13.66-21.35,20.13-4.92,4.35-10.41,8.06-16.17,12.45-.21-1.73-.47-2.61-.4-3.47.4-5.73,3.12-10.19,7.32-14.06,7.93-7.32,16.89-13.14,25.95-18.87,5.76-3.65,11.67-7.17,16.9-11.5,4.62-3.84,8.54-8.58,12.49-13.16,5.25-6.09,8.52-13.14,9.58-21.22,1.42-10.77,2.9-21.53,4.69-32.24,1.59-9.5,3.51-18.99,8.49-27.43,3.39-5.74,6.95-11.41,10.76-16.88,8.17-11.72,16.56-23.28,24.83-34.93,5.14-7.25,9.6-14.88,12.3-23.4,2.74-8.64,6.56-16.74,11.44-24.37,3.6-5.62,7.2-11.24,10.72-16.91,11.12-17.92,25.17-33.5,39.31-48.98,3.78-4.14,8.3-7.41,13.34-10.02,12.5-6.48,26.01-8.27,39.74-8.08,9.44.13,18.9,1.26,28.29,2.41,33.23,4.04,63.27,16.09,89.96,36.39.91.69,1.9,1.28,2.85,1.91-5.67-6.49-11.97-12.15-19.25-16.55-36.29-21.9-75.81-30.27-117.8-27.14-16.25,1.21-30.66,7.53-42.04,19.71-5.3,5.67-10.63,11.32-15.89,17.04-.82.9-1.31,2.1-1.73,2.8-8.58-3.87-13.72-12.74-12.97-21.31,1.18-13.59,4.73-26.54,10.77-38.8,5.6-11.37,13.27-21.33,21.15-31.15.79-.99,1.48-2.06,2.21-3.09-.24-.2-.48-.39-.73-.59-1.44,1.32-3.02,2.51-4.28,3.98-4.84,5.67-9.81,11.24-14.3,17.18-11.28,14.92-18.27,31.65-20.21,50.34-1.24,12.01,2.89,21.39,13.31,27.11-7.46,10.81-15.26,21.47-22.32,32.59-3.45,5.43-7.2,5.62-12.74,4.96-2.45-.29-4.78-2.09-7.03-3.43-3.02-1.81-4.45-4.52-4.43-8.15.02-3.72-.2-7.45-.57-11.15-1.8-18.43-5.93-36.45-10.09-54.44-6.77-29.27-6.49-58.51-.07-87.74,4.67-21.24,10.88-42.05,17.74-62.68.96-2.88,1.68-5.84,2.51-8.77-2.28,3.26-3.71,6.8-5.29,10.28-11.05,24.46-18.81,49.95-23.4,76.35-4.14,23.82-3.36,47.63,1.96,71.25,4.46,19.84,9.05,39.65,11.03,59.94.24,2.49.36,4.89-.87,7.36-3.6-.34-7.03-.66-10.63-.99,1.03-3.25,1.94-6.14,2.85-9.03-.28-.1-.57-.2-.85-.3-1.06,2.5-2,5.05-3.2,7.48-1.96,3.96-4.24,7.63-9.24,8.34-12.02,1.7-24.05,2.78-36.12.45-1.67-.32-3.39-.54-5-1.06-3.57-1.15-4.49-2.64-3.66-6.27.51-2.25,1.39-4.43,2.21-6.6,1.79-4.79,3.99-9.46,5.39-14.36,4.28-14.91,2.83-29.82-.62-44.65-.74-3.16-1.64-6.28-2.47-9.41-.3.07-.6.15-.91.22.56,5.06,1.13,10.13,1.69,15.19,1.87,16.73,1.56,33.18-6.2,48.7-1.04,2.08-1.86,4.26-2.77,6.4-1.34,3.15-3.19,4.49-6.37,4.05-2.4-.34-4.73-1.15-7.15-1.76,10.08-24.45,15.29-51.7,11.39-61-.89,5.37-1.6,10.23-2.51,15.04-4.15,21.9-11.05,42.58-25.31,60.33-4.93,6.13-8.84,13.11-13.06,19.79-2.82,4.46-5.28,9.14-8.08,13.61-5.13,8.18-10.85,15.94-18.31,22.19-10.12,8.47-20.37,16.79-30.61,25.12-6.76,5.5-13.91,10.46-21.88,14.07-11.3,5.13-22.71,9.99-33.98,15.19-17.89,8.24-35.69,16.65-53.52,25.02-.6.28-1.03.91-1.94,1.75,3.88,1.42,6.72-.69,9.7-1.24,3.06-.56,6.02-1.65,10.01-2.79-1.9,2.55-3.22,4.09-4.27,5.79-3.62,5.85-8.98,9.29-15.37,11.37-9.7,3.16-19.5,3.34-29.41,1.15-18.05-3.99-36.22-5.23-54.6-2.53-4.44.65-9.09,1.59-13.41.9-8.88-1.42-17-5.36-23.26-11.85-7.6-7.87-13.31-17.08-16.61-27.71-4.14-13.33-8.13-26.72-14.13-39.4-.97-2.06-1.33-4.44-1.77-6.71-.41-2.07.3-3.57,2.57-4.22,5.05-1.43,9.34-4.33,13.01-7.9,6.23-6.05,12.15-12.42,18.16-18.69.42-.43.5-1.18.75-1.79-4.82,3.22-8.92,6.99-13.26,10.47-4.71,3.78-9.52,7.48-14.52,10.86-5.07,3.41-10.71,4.17-16.4,1.6-3.37-1.52-6.79-3.17-9.77-5.33-27.45-19.93-53.12-41.94-76.79-66.26-14.75-15.15-28.9-30.81-41.84-47.55-15.34-19.85-28.93-40.8-38.25-64.2-5.39-13.54-9.86-27.44-14.81-41.15-.98-2.7-.86-5.93-3.54-7.87v-.93c2.68-.98,3.98.89,5.37,2.58,8.78,10.68,17.46,21.43,26.36,32.01,5.49,6.53,10.8,13.34,17.08,19.06,18.4,16.75,39.44,29.5,62.21,39.51,28.3,12.44,57.59,18.19,88.5,14.21,6.46-.83,12.97-1.31,19.45-2.09,3.74-.45,7.22.32,10.19,2.42,2.75,1.95,5.47,4.16,7.58,6.76,6.11,7.51,9.58,16.33,11,25.83.98,6.59,1.24,13.28,1.86,19.93.1,1.07.34,2.14.52,3.2,1.32-2.76,1.77-5.45,2.15-8.16,1.19-8.53,1.56-16.99-1.47-25.29-4.3-11.81-9.92-22.5-22.52-27.48-.24-.1-.39-.44-.58-.67.71-1.86,1.42-3.71,2.13-5.57,19.09,13.13,46.15,1.96,55.4-12.63-1.12.65-1.76.96-2.34,1.36-3.61,2.42-7.08,5.07-10.84,7.24-9.44,5.47-19.58,7.81-30.42,5.62-6.38-1.29-11.58-4.24-13.68-11.04-1-3.26-2.25-6.45-3.53-9.61-9.76-24.09-15.49-49.08-17.04-75.03-.09-1.48.16-2.98.27-4.64.58.26.76.28.81.37.4.66.81,1.31,1.15,1.99,3.96,7.98,9.78,14.21,17.2,19.17,10.85,7.26,22.94,10.77,35.63,12.72,7.51,1.16,15.05,2.13,22.06,5.42,7.9,3.72,12.28,9.83,12.7,18.53.18,3.7-.23,7.43-.43,11.14-.09,1.7-.31,3.4-.47,5.09,7.4-16.25,5.71-22.28-.48-32.6.36-.44.68-.99,1.14-1.38,16.21-13.89,30.08-30.07,44.59-45.63,4.27-4.58,7.8-9.67,10.25-15.45,3.4-7.99,6.95-15.94,10.03-24.05,2.14-5.64,3.78-11.49,5.33-17.32,2.7-10.19,4.89-20.52,7.77-30.66,6-21.11,15.52-40.43,29.22-57.77,10.08-12.76,21.81-22.23,38.2-25.43,8.74-1.7,16.78-5.51,23.85-11.12.33-.26.83-.32,1.25-.47,4.3,12.49,2.05,39.2-4.32,45.85.33-4.4.61-8.18.89-11.97-.32-.27-.64-.54-.97-.81-.2.6-.33,1.24-.6,1.8-4.12,8.4-5.39,17.15-2.81,26.21,2.36,8.29,9.25,13.56,18.11,14.19.21.01.45-.37,1.2-1.02-1.16-1.13-2.23-2.27-3.4-3.3-2.77-2.43-6.27-4-8.17-7.47-3.19-5.85-4.51-11.29.74-16.94,7.6-8.19,7.77-18.76,7.61-28.96-.12-7.87-1.8-15.71-2.78-23.57-1.65-13.13-1.18-25.99,4.31-38.35,4.35-9.78,10.53-18.31,17.81-26.01,5.37-5.68,12.62-7.65,20.15-8.62,6.31-.82,11.71,1.03,15.85,5.87,12.4,14.54,17.57,32.08,17.31,50.51-.34,25.16-12.2,45.01-33.68,58.3-10.6,6.57-19.44,14.86-27.86,23.8-.46.49-.74,1.15-1.17,1.83.63.16,1,.37,1.17.27,1.06-.64,2.12-1.28,3.09-2.04,9.59-7.4,19.43-14.41,29.8-20.73,8.26-5.03,15.4-11.65,20.85-19.71,11.24-16.61,15.9-34.81,12.42-54.83-2.48-14.28-6.81-27.73-16.64-38.85-.39-.44-.61-1.04-.99-1.73,1.32-.98,2.51-1.97,3.79-2.81,19.03-12.33,38.44-24,58.93-33.79,15-7.16,30.24-13.69,46.54-17.39,8.97-2.04,18.06-3.48,27.23-2.9,7.71.49,15.54,1.33,23,3.25,15.16,3.9,30.37,4.52,45.68,2.1,15.01-2.38,29.91-5.46,44.91-7.98,16.83-2.82,33.6-6.2,50.77-6.26,1.18,0,2.36-.5,3.54-.77Zm117.52,532.56c.28.16.57.32.85.48,11.36-12.31,21.34-25.59,27.85-41.21,6.56-15.75,8.97-32.39,7.7-49.19-1.65-21.87-7.75-41.6-13.35-47.75,1.03,3.53,2.05,6.59,2.81,9.72,3.39,13.95,4.67,28.22,4.7,42.47.03,15.39-1.71,30.79-8.58,44.85-5.91,12.11-12.74,23.78-19.17,35.63-.91,1.68-1.88,3.34-2.82,5Zm-693.42,99.61c5.19-.13,9.59-1.99,13.26-5.73,2.06-2.1,4.36-3.97,6.59-5.89,3.99-3.42,8.34-5.16,13.7-3.38,1.85.61,3.96.69,5.93.58.8-.04,2.01-1.14,2.18-1.94.17-.8-.54-2-1.2-2.71-.58-.63-1.63-.83-2.47-1.22-2.81-1.31-5.75-2.41-8.39-3.99-5.19-3.11-10.39-3.15-16.03-1.31-8.1,2.65-13.32,8.01-15.22,16.1-1.29,5.48-1.47,11.23-2.14,16.86l.92.26c.95-2.52,1.89-5.04,2.87-7.63Zm83.35-181.26c.78,0,1.43.18,1.92-.03,4-1.69,7.27-.57,10.73,1.87,7.35,5.18,23.11,4.27,26.9-6.89.13-.37.54-.65.8-.95.9.48,1.66.88,2.44,1.3,1.61-3.83.83-6.45-2.47-8.85-6.94-5.02-16.68-5.28-24.04-.39-2.29,1.52-4.18,3.63-6.29,5.44-3.24,2.78-6.49,5.53-9.99,8.51ZM496.13,84.69c-1.15.77-1.54.93-1.78,1.21-.79.95-1.55,1.94-2.28,2.94-5.37,7.26-8.34,15.54-10.24,24.25-2.53,11.6-1.28,23.15.49,34.69,1.97,12.86,4.85,25.73-.91,38.45-.92,2.04.35,3.58,2.52,3.02,3.71-.95,7.66-1.87,10.81-3.89,8.21-5.26,16.23-10.88,23.95-16.83,3.37-2.59,5.87-6.33,8.71-9.59.44-.51.62-1.25.92-1.88-1.97.63-3.33,1.77-4.6,3-9.68,9.31-21.68,15.46-32.22,23.61-1.21.94-2.89,1.28-5.03,2.19,3.5-8.09,4.47-15.52,3.24-23.21-1.47-9.19-2.97-18.37-4.51-27.54-2.52-15.04-.47-29.35,6.77-42.84,1.21-2.26,2.47-4.51,4.16-7.58Zm77.06,261.76c.23.07.46.14.69.2,3.05-16.26,6.26-32.48,9.1-48.78,2.89-16.57,8.53-32.33,13.65-48.26,5.06-15.74,11.59-30.87,18.61-45.83-6.75,11.29-14.1,22.21-18.4,34.76-1.61,4.69-3.48,9.28-5.16,13.95-3.99,11.07-8.44,21.97-10.59,33.65-2.36,12.81-4.76,25.6-5.85,38.6-.6,7.24-1.36,14.47-2.05,21.7Zm-267.01,256.84c-.87-3.97-3.48-4.8-5.35-6.13-19.18-13.71-40.51-3.89-49.37,8.84-6.54,9.39-9.99,19.91-10.68,31.32-.04.73.45,1.5.69,2.25.7-.85.82-1.59.93-2.33,1.5-10.14,4.96-19.49,10.88-27.93,8.94-12.74,27.27-19.64,42.84-10.9,2.94,1.65,6.06,2.96,10.06,4.89Zm-5.67,46.93l.18.99c7.79.53,15.52.45,23.22-1.56,5.78-1.51,10.13-4.77,12.66-10.1,1.65-3.47,2.88-7.17,3.96-10.87,1.6-5.49,3.79-10.5,8.78-13.81.49-.33.75-1.01,1.65-2.29-5.71,1.7-8.78,5.05-10.98,9.2-1.66,3.13-2.95,6.48-4.25,9.79-2.94,7.48-8.1,12.32-16.06,14.05-4.39.95-8.76,2.02-13.13,3.06-2.01.48-4.01,1.02-6.02,1.53Zm94.2-217.78c-1.76-4.42-4.69-7.63-9.08-9.13-10.25-3.52-19.89-1.84-28.82,4.02-5.9,3.87-9.18,10.01-12.85,15.76-.38.6-.45,1.39-.66,2.1,3.35-3.27,6.35-6.63,9.09-10.18,9.59-12.38,30.97-14.32,40.59-3.72.45.5,1.16.77,1.74,1.15Zm1.45,19.92c-1.34.76-2.34,1.31-3.32,1.9-3.7,2.23-7.33,4.57-11.11,6.67-3.44,1.91-7.18,2.71-11.17,2.23-3.19-.39-6.41-.58-10.07-.9,12.5,8.1,31.43,2.89,35.67-9.9Z"/><path class="cls-1" d="m1920,759.61c-.3,1.95-.86,3.91-.84,5.86.07,7.33-1.84,14.12-5.17,20.56-5.92,11.43-11.99,22.79-17.75,34.3-2.44,4.89-6.05,7.06-11.36,8.35-7.14,1.74-13.88.65-20.69-.69-6.13-1.21-8.39-4.71-8.17-11.03.33-9.19,4.6-16.37,11.57-21.91,5.46-4.34,11.42-8.04,17.03-12.2,4.98-3.69,8.58-8.44,10.41-15.6-1.32,1.56-2.04,2.37-2.72,3.21-4.24,5.25-9.4,9.47-14.92,13.26-2.94,2.02-5.92,4-8.93,5.92-6.05,3.86-10.51,9.2-13.93,15.38-2.77,5-3.81,10.61-3.4,16.2.22,3.05,2.11,5.97,3.4,9.36-2.28,1.78-5.63,2.7-8.93,2.71-7.08.01-13.84-1.57-19.66-5.94-2.49-1.87-3.8-4.15-3.81-7.5-.01-7.46-.5-14.97,1.94-22.15.97-2.85,2.54-5.65,4.4-8.02,2.29-2.91,5.23-5.3,7.8-7.99,3.74-3.9,7.41-7.87,10.61-12.54-.7.25-1.46.4-2.1.75-7.13,3.93-13.22,9.26-19.11,14.78-6.4,5.99-8.36,13.98-9.01,22.35-.33,4.27-.23,8.58-.32,12.96-.93,0-1.45.15-1.81-.02-3.37-1.59-7.63-10.19-6.92-13.8,1.92-9.74,6.35-18.3,11.43-26.77,6.41-10.69,14.03-20.48,21.11-30.67,4.46-6.41,8.69-13.17,9.09-21.13.33-6.43-.31-12.99-1.33-19.37-.82-5.17-2.57-10.24-4.43-15.16-1.35-3.58-3.43-6.92-5.4-10.24-4.13-6.92-8.66-13.62-12.56-20.66-4.51-8.14-8.46-16.59-12.76-24.85-3.26-6.25-8.07-10.96-14.59-13.82-20.59-9.04-41.15-18.14-61.77-27.11-3.26-1.42-6.75-2.27-10.13-3.43-.95-.33-1.85-.81-2.79-1.59,11.39-.83,19.68-7.19,27.59-14.36,7.71-6.99,15.52-13.86,23.28-20.8.41-.36.73-.82.9-1.52-4.18,1.26-7.76,3.55-11.14,6.18-6.38,4.95-12.67,10.02-19.12,14.87-5.34,4.03-10.86,7.83-17.7,8.92-6.52,1.03-13.05,1.99-19.95,2.16,6.06-3.9,11.96-8.09,18.21-11.65,17.19-9.77,31.06-23.13,42.65-38.95,4.07-5.55,6.35-12.04,8.58-18.52,7.13-20.68,14.26-41.36,21.5-62,5.37-15.32,13.43-29.3,21.75-43.16,4.31-7.18,8.37-14.51,12.55-21.77.29-.5.66-.94,1.45-2.05.22,1.35.41,2.02.44,2.69.7,18.32,1.61,36.65-.21,54.94-1,10.03-2.63,20-3.86,30.01-.98,8.01-1.72,16.05-2.7,24.06-.39,3.22-1.15,6.4-1.74,9.6-.32,1.75-1.33,2.63-3.14,2.84-13.71,1.59-24.01,9.67-33.81,18.36-2.9,2.57-4.64,6.43-6.92,9.7.27.23.55.46.82.69.62-.68,1.27-1.34,1.85-2.06,6.29-7.73,14.34-13.32,22.95-17.98,4.87-2.64,10.43-3.72,16.1-3.41.81,3.55,1.37,6.75,2.27,9.86,2.25,7.71,6.47,14.51,11.15,20.85,7.37,9.98,15.27,19.57,23.15,29.17,4.73,5.76,9.5,11.56,14.86,16.69,4.67,4.47,10.07,8.22,15.39,11.94,5.33,3.74,10.95,7.07,16.46,10.55,7.68,4.84,10.64,11.99,11.01,20.83.41,9.85-.65,19.52-2.29,29.18-1.51,8.88-3.08,17.79-2.3,26.84.4,4.63.94,9.29,1.96,13.81,2.64,11.73,3.86,23.57,3.73,35.59-.02,1.95.52,3.9.81,5.86v10.25Z"/><path class="cls-1" d="m1548.12,842.56c-3.97-.62-7.92-1.57-11.91-1.81-10.14-.6-17.86-5.78-24.61-12.71-3.66-3.76-3.62-5.43-.46-9.77,10.45-14.38,23-26.45,38.92-34.71.96-.5,1.9-1.05,2.84-1.6.12-.07.17-.25.73-1.1-6.62,1.59-12.35,3.79-18.07,6.08-6.05,2.43-11,6.39-15.41,11.02-4.34,4.57-8.41,9.4-12.9,14.44-1.91-4.26-3.66-8.21-5.44-12.14-1.65-3.62-1.02-6.76,1.42-9.92,3.84-4.97,8.1-9.55,13.5-12.67,16.39-9.45,25.4-24.15,30.49-41.75,2.12-7.33,4.82-14.38,8.59-21.06,9.07-16.09,13.92-33.43,14.89-51.88.82-15.51,1.91-31,2.53-46.51.2-4.92-.76-9.88-1.18-14.83-.22-2.59-.35-5.19-.67-7.76-.13-1.03-.82-1.98-1.02-3.01-.5-2.56-1.31-5.16-1.21-7.71.17-4.51,3.84-6.78,8.1-5.34,2.05.69,4.06,1.54,6.03,2.43,25.54,11.5,52.22,17.71,80.33,17.06,11.08-.26,21.91-2.12,32.47-5.53,1.13-.36,2.29-.6,3.73-.97-.22.84-.24,1.31-.46,1.66-9.35,14.74-16.3,30.66-23.02,46.7-5.18,12.37-12.22,23.71-19.61,34.84-9.21,13.86-17.58,28.15-23.62,43.73-4.02,10.37-6.38,21.06-6.71,32.19-.2,6.83-.15,13.69-.88,20.47-.57,5.35-1.9,10.67-3.36,15.87-2.39,8.51-5.36,16.86-7.69,25.39-1.51,5.51-2.48,11.19-3.35,16.85-.41,2.66-1.34,4.31-3.7,5.87-4.75,3.14-9.77,4.6-15.38,4.34-4.34-.21-8.67-.4-13-.72-1.18-.09-2.32-.62-3.99-1.09,3.26-7.44,6.56-14.55,6.85-22.42-.3-.16-.59-.33-.88-.49-.65.68-1.51,1.25-1.92,2.06-2.23,4.44-4.68,8.81-6.41,13.44-2.25,6.03-6.1,9.88-12.36,11.4-1.32.32-2.54,1.09-3.81,1.66h-8.39Z"/><path class="cls-1" d="m915.69,762.04c-5.6,11.02-11.22,22.03-16.77,33.08-.69,1.37-1.13,2.89-1.52,4.38-2.25,8.59-6.97,12.88-15.9,13.57-11.98.92-23.49-1.36-34.5-6.13-4.77-2.07-6.23-5.88-4.11-10.93,2.95-7.03,7.29-12.97,14.26-16.6,7.89-4.11,15.25-9.06,21.87-14.94,6.11-5.42,11.71-11.42,15.29-19.67-.88.31-1.33.32-1.53.55-9.55,11.3-21.3,19.9-34.04,27.14-6.97,3.96-13.66,8.01-17.77,15.21-.19.33-.71.48-1.1.72-2.02-4.87.12-14.96,4.06-17.88,6.36-4.71,12.85-9.24,19.39-13.7,6.82-4.64,13.65-9.27,18.64-15.97,1.81-2.43,3.5-5.17,4.37-8.04,1.61-5.33,2.85-10.8,1.12-16.47-1.53-5.03-4.24-9.29-7.76-13.08-8.91-9.59-16.93-19.84-23.27-31.33-2.25-4.07-4.16-8.33-6.37-12.43-9.02-16.71-19.56-32.4-31.55-47.14-3.57-4.4-7.65-8.11-12.36-11.2-1.01-.66-1.97-1.41-3.6-2.58,4.72-1.12,8.73-2.04,12.72-3.04,17.61-4.38,35.23-8.75,52.06-15.71,4.01-1.66,8.04-3.41,11.7-5.7,4.16-2.6,8.62-3.21,13.28-3.59,10.9-.88,21.73.11,32.54,1.17,6.17.61,12.31,1.58,18.46,2.41.89.12,1.75.43,2.61.65.26,6.23.63,12.26.74,18.29.32,17.63,4.98,34.31,10.94,50.71,2.43,6.7,5.21,13.27,5.4,20.6.15,5.8-.37,11.42-2.13,16.99-2.47,7.82-5.38,15.53-6.01,23.86-.39,5.07-.13,9.98,2.09,14.55,7.41,15.23,6.14,30.52-.22,45.52-3.87,9.12-8.85,17.76-13.34,26.62-2.53,5-6.54,8.11-11.96,9.55-7.94,2.1-15.83,4.37-23.77,6.44-1.57.41-3.28.24-5.28.36-.48-4.37.42-8.08,1.87-11.65,1.58-3.88,3.2-7.75,5.12-11.47,3.53-6.84,5.07-14.31,7.09-21.62.11-.4-.04-.87-.07-1.3-.23-.07-.47-.14-.7-.2Z"/></svg>