<svg xmlns="http://www.w3.org/2000/svg" viewBox="0 0 1064.41 1104.88"><defs><style>.cls-1{fill:#1c060d;}</style></defs><g id="Layer_2" data-name="Layer 2"><g id="Layer_1-2" data-name="Layer 1"><path class="cls-1" d="M618,1074.17a66.1,66.1,0,0,1-7.84-.46,16,16,0,0,1-1.74-.32,6.78,6.78,0,0,1-.1-2.83l0-.45c.34-4,.74-8.08,1.18-12a56.8,56.8,0,0,0,0-13l-.42-3.55c-.56-4.79-1.14-9.75-1.84-14.62a14.26,14.26,0,0,1,.9-7.85l.71-1.66q2.79-6.57,5.61-13.11,1.74-4,3.51-8c1.88-4.29,3.84-8.73,5.7-13.13a70.18,70.18,0,0,1,9.81-16.73c3.71-4.65,8.1-10.13,12.53-15.55,13.25-16.19,26.7-33.79,43.62-57.1a140.67,140.67,0,0,0,8.07-12.62,54.45,54.45,0,0,0,3-6.4c.34-.83.68-1.65,1-2.47a6.05,6.05,0,0,0,.37-1.15,5.2,5.2,0,0,1,.16-.53c3.41-4.67,3.68-9.94,3.94-15l.05-1c.58-10.89-1.18-22.17-5.36-34.46-2.77-8.11-6-16.19-9.33-24.43a64.06,64.06,0,0,0-5.44-10.8c-6.33-9.76-10.59-20.48-14.25-30.61-5-13.86-9.68-26.31-16-38.31-2.9-5.53-6-11-9-16.39q-2.25-4-4.47-8a296.77,296.77,0,0,1-21.16-46.71,52,52,0,0,1-2.46-11C618,627,617.51,620,617,612.34a49,49,0,0,1,1.26-13.69,53.53,53.53,0,0,1,1.35-5.27c4.7-14.94,7.49-30.5,10.2-45.54l.39-2.16c.08-.45.17-.9.26-1.35.22-1.14.45-2.31.57-3.52a4.06,4.06,0,0,0-.63-2.34,2.93,2.93,0,0,1-.19-.4l-.71-1.73-1.77.59a5,5,0,0,0-3.39,4.08c0,.16-.07.32-.12.47-3.16,10.63-6.2,21-9,30.86-1,3.56-2,7.13-3,10.7-.83,3-1.66,6-2.51,9a67.48,67.48,0,0,0-2.15,27.91c.11.77.2,1.55.3,2.38a149.69,149.69,0,0,0-48.38-9.5L546,612.52c-14-.28-28.37-.56-42.53-1.21a275.37,275.37,0,0,1-90.23-19.16,868.08,868.08,0,0,1-100.55-47.82c-3.57-2-7.16-3.74-11-5.58l-1.74-.84,2.76-1.3c2.54-1.19,5.17-2.42,7.7-3.76a35.31,35.31,0,0,0,16.48-18.52c4.44-11,8.21-20.63,11.52-29.62,1.52-4.1,2.88-8.31,4.2-12.38,1-3,2-6.07,3-9.07,1.46-4.19,3.09-8.36,4.84-12.39,1.33-3.06,3-6.19,5.79-8.37a3.4,3.4,0,0,0,1.06-1.58c.08-.18.17-.4.29-.66l1.62-3.29-3.64.42a5.21,5.21,0,0,1-.64,0,3.6,3.6,0,0,0-2,.52,19.49,19.49,0,0,0-5.75,6.41,114.26,114.26,0,0,0-8.88,17.78c-4.7,12-9.61,24.1-14.36,35.83l-3.44,8.5c-.86,2.12-1.82,4.18-3,6.61a25.72,25.72,0,0,1-10.36,11,90,90,0,0,1-24,9.64c-18.95,4.93-40.94,10.83-62.18,18.49a379.39,379.39,0,0,0-45.57,19.89c-5.39,2.8-10.94,5.55-16.31,8.21l-2.67,1.32a34.74,34.74,0,0,0-11.83,9.4,27.09,27.09,0,0,0-6.28,20,47.89,47.89,0,0,0,2.88,12.77c1.51,3.92,3,7.93,4.41,11.81,2,5.48,4.09,11.15,6.3,16.67a131.84,131.84,0,0,0,7.71,15.83c3.83,6.74,9.36,11.86,15.16,16.94a14.75,14.75,0,0,1,4.51,6.53c1.5,4.42,3.21,9,5.06,13.51a25,25,0,0,0,6.23,8.81c1.82,1.7,3.45,2.5,5.13,2.5a5.57,5.57,0,0,0,3.23-1.09,117.74,117.74,0,0,0-4.45,21,23.22,23.22,0,0,1-2.1-1.23l-.62-.42c-2.72-1.83-5.53-3.73-8.1-5.79-7.63-6.12-16.36-11.4-27.49-16.62a10.32,10.32,0,0,1-5-4.05c-5.65-10.12-11.49-20.58-15.12-31.75-2.08-6.39-4-13-5.78-19.37-.61-2.13-1.21-4.25-1.83-6.38-1.85-6.4-3.8-13.3-6.15-21.7a72.44,72.44,0,0,0-7.25-16.27l-.24-.45a16.83,16.83,0,0,0-1.25-2c-4.68-6.17-5.81-13.33-3.68-23.21.5-2.31,1.16-4.65,1.8-6.92.37-1.3.73-2.6,1.07-3.91a10.28,10.28,0,0,1,3.24-5.19l.89-.79c7.92-7.06,16.12-14.36,25.39-19.92a108.14,108.14,0,0,0,11.07-8l1.75-1.37c9.3-7.28,18.87-14.09,26.17-19.22,17.3-12.14,31.21-26.55,41.35-42.82,3.21-5.15,6.27-10.86,6.87-17.72.77-8.62-.32-15.54-3.43-21.8-.06-.12-.11-.25-.17-.39a3.71,3.71,0,0,0-3.4-2.75,4.26,4.26,0,0,0-1.09.15l-.93.24-.39.88a2.54,2.54,0,0,0-.36,2.18c3.9,11.61,3,22-2.8,31.78-1.67,2.82-3.63,5.58-5.53,8.25l-1.2,1.69c-.81,1.14-1.72,2.26-2.69,3.45l-.25.3a5.14,5.14,0,0,1-.63-.53l-2.08-2.15c-4.46-4.62-9.07-9.4-13.51-14.17a74.28,74.28,0,0,1-11.67-17.07c-4.48-8.73-8.67-17.35-10.9-26.84-2.13-9.06-4.28-21-2-33.17,1.92-10.15,4.56-22.1,9.57-33.78,3.78-8.82,5.59-16.26,5.67-23.43,0-3.23,0-6.5,0-9.67,0-2.57-.07-5.14-.06-7.71,0-15.93-1.71-31.84-3.43-45.3-.4-3.14-.77-6.28-1.14-9.43-1.11-9.4-2.25-19.12-4.25-28.6l-.12-.57c-1.62-7.63-3.29-15.53-5.32-23.22a64,64,0,0,0-3.86-9.91l-.76-1.66a20.19,20.19,0,0,0-13-11.35l-3.65-1.16-.45-.14.06-1.45c.1-1.67.22-3.34.34-5,.26-3.64.54-7.4.54-11.13a42.23,42.23,0,0,0-4.74-19.31,49.91,49.91,0,0,0-12-15.75c-2.94-2.51-6-4.89-9-7.21l-1.27-1a4.58,4.58,0,0,0-2.87-.94,7,7,0,0,0-1.33.14l-3.26.64,2.09,2.58.37.48a8.4,8.4,0,0,0,1.28,1.47c1.08.94,2.19,1.86,3.29,2.78,1.75,1.46,3.56,3,5.23,4.52A49.07,49.07,0,0,1,134.55,150a41,41,0,0,1,4.18,22.11c-.33,4.36-.87,8.74-1.4,12.83a41.21,41.21,0,0,1-12.13,24c-3.3,3.33-6.73,6.6-10.26,9.93a81.42,81.42,0,0,0-11.25,13.21,44.27,44.27,0,0,0-4.22,7.51A48.32,48.32,0,0,1,92,252c-4.14,4.86-8.39,9.77-12.51,14.52l-4.8,5.55-1.11,1.25c-.69.77-1.41,1.57-2.08,2.42a15.06,15.06,0,0,0-3.09,13.08,45.64,45.64,0,0,1,.91,6.17,13.15,13.15,0,0,1-.38,3.69c-1,4.31-3.73,7.18-8.38,8.75-2.44.82-4.82,1.73-7.34,2.68l-1,.37a21,21,0,0,1,0-3.71c1.23-12,4.19-21.25,9.32-29,3.1-4.67,3.88-9.92,4.38-14.48a4.35,4.35,0,0,0-.37-2c-.08-.24-.18-.52-.28-.86l-1-3.47-2.41,2.7q-.35.39-.63.66a5.34,5.34,0,0,0-1.26,1.69,22,22,0,0,0-.76,2.14c-.22.68-.42,1.33-.68,1.92s-.6,1.38-.89,2.08a48.41,48.41,0,0,1-3,6.3,71.48,71.48,0,0,0-10.37,40l0,.38c0,6-1.67,8.63-6.7,10.53A15.48,15.48,0,0,1,32,326.52,11.57,11.57,0,0,1,22.85,322l-.28-.33a4.48,4.48,0,0,1-.57-.73c-1.06-3.56-3.59-5.87-5.83-7.91l-1.11-1-1.86-1.74c-1.77-1.66-3.6-3.37-5.35-5.1a9,9,0,0,1-2.57-5.38c-.42-3.14-.91-6-2.55-8.59l-.68-5.9a16,16,0,0,0,.81-6.69A73.76,73.76,0,0,1,5.1,258.44a73.48,73.48,0,0,0,1.5-7.89,262.44,262.44,0,0,1,5.08-27.1,103.41,103.41,0,0,0,2.77-29,67.75,67.75,0,0,1,2.1-20.91c3.36-12.35,4.46-25.05,5.23-36,.09-1.24.3-2.49.52-3.82a31,31,0,0,0,.59-6.28A41.57,41.57,0,0,1,24,117.82c.26-1.34.53-2.73.74-4.12a25.15,25.15,0,0,1,3.7-9.3L31,100.09c1.68-2.79,3.36-5.57,5-8.38a31.24,31.24,0,0,1,5.75-7.43c.15.37.29.76.44,1.15.87,2.35,1.85,5,4.34,6.81a29.15,29.15,0,0,0,8.51,4.11l4.08,1.26-1.65-4a3.22,3.22,0,0,1-.12-.37,4.27,4.27,0,0,0-1-1.89c-3.46-3.4-5-7.8-6.17-12.06A11.63,11.63,0,0,1,51.29,71c2.67-5.55,5.06-10.37,7.3-14.75,1.42-2.76,3-5.47,4.63-8.23A110.3,110.3,0,0,0,72,29.68c.77,3.85,0,7.71-.77,11.35a99.62,99.62,0,0,1-3.82,12.15L67,54.44c-1.59,4.28-3.23,8.7-3.41,13.56a56.49,56.49,0,0,0,.33,7.17A9.76,9.76,0,0,0,67.4,81.7c1.13,1,2.46,2,4.1,2A5.81,5.81,0,0,0,75.24,82l.91,2.24,2.13-2c3.39-3.17,5.2-6.77,7-10.25l.48-1c1.62-3.18,2-6.51,2.35-9.74.08-.74.16-1.46.25-2.16A103.93,103.93,0,0,1,108.79,57c2.14,0,4.28.08,6.36.24a66.15,66.15,0,0,1,9.92,1.82l.83.2c3,.7,5.92,1.7,8.54,2.58,11.05,3.73,22.63,5.09,33.83,6.41l1.5.18a103.57,103.57,0,0,1,23.52,5.82A76.88,76.88,0,0,1,217.8,89.05c3.07,2.69,5.31,6,7.68,9.51.62.92,1.24,1.84,1.87,2.75.22.31.42.65.63,1a8.49,8.49,0,0,0,3.31,3.52l.78.39.82-.31a3.44,3.44,0,0,0,2.16-1.93c0-.1.07-.21.1-.31,4.74,7.2,9.62,14.61,14.27,22,5.23,8.32,12.34,15.53,22.35,22.69,1.52,1.09,3.1,2.14,4.62,3.15,4,2.7,7.83,5.24,11.08,8.58a3.79,3.79,0,0,0,1.82,1l.27.08,1.49.59.9-1.33c1.16-1.72.93-3.38-.68-4.95l-.22-.22c-1.68-2-3.43-4-5.12-5.9q-2-2.28-4-4.59a47,47,0,0,1-9.53-17.66c1.52,1.86,3.09,3.75,4.78,5.53,2.95,3.09,6,6.17,8.92,9.15,3.56,3.61,7.25,7.34,10.76,11.09s7.35,8.22,11.76,13.74a58.81,58.81,0,0,1,9.65,18.07c.33,1,.67,2,1,2.92s.66,1.88,1,2.82l.34,1a19.19,19.19,0,0,1,1.39,5.95,13.84,13.84,0,0,0,1.24,4.88,3.53,3.53,0,0,0,2.06,1.81,7.18,7.18,0,0,1,.73.37l2.68,1.56.55-5.27a29.28,29.28,0,0,0,9.73,3.14,100.4,100.4,0,0,1,10.78,2.42,25,25,0,0,1,9.71,5.53,35.07,35.07,0,0,0,9.11,6.2,12.12,12.12,0,0,1,2.74,1.86,93.91,93.91,0,0,0,13.85,9.59l6.65,3.86c4.6,2.68,9.35,5.44,14.06,8.12A90.34,90.34,0,0,1,428.09,259c9,9.81,18.52,19.77,28.27,29.61a290.82,290.82,0,0,0,33.82,29.09c7.91,5.83,17.32,11,29.62,16.39,7.9,3.43,16,6.75,23.83,10,5.34,2.19,10.87,4.46,16.27,6.73a219.81,219.81,0,0,0,32.92,10.59l11,2.74c14.08,3.5,28.63,7.13,43,10.55,5.15,1.22,10.41,2.24,15.5,3.22,3,.59,6.16,1.19,9.22,1.83a339.16,339.16,0,0,1,56.88,17.42c13.56,5.42,26.48,13.69,39.48,25.27A190.79,190.79,0,0,1,786,440.68a200.28,200.28,0,0,0,22.21,21.83,168.1,168.1,0,0,1,22.16,23.33q3.58,4.52,7.13,9.07c2.36,3,4.71,6,7.1,9,1.36,1.71,2.8,3.4,4.19,5,.84,1,1.68,2,2.52,3l.41.49a29.61,29.61,0,0,1,2.11,2.74,65.32,65.32,0,0,0,20,19.69c5.64,3.57,11.43,7.11,17,10.53,4.86,3,9.88,6.05,14.78,9.12l2.08,1.31c6.43,4,13.06,8.18,19.3,12.63a266.24,266.24,0,0,1,54.22,51.92q-2.16-2-4.35-4l-.91-.82c-1.62-1.47-3.29-3-5-4.41-2-1.68-4.13-3.27-5.93-4.59s-3.44-2.48-5.13-3.66l-1.29-.9L957,600.88c-1.57-1.12-3.19-2.28-4.87-3.34-.42-.28-.85-.61-1.31-1-1.45-1.13-3.26-2.53-5.91-2.53a8.43,8.43,0,0,0-.86.05l-4.36.48,3.22,3c.28.25.55.51.82.77.63.59,1.26,1.18,1.92,1.74q3.68,3.15,7.39,6.25c5.31,4.45,10.8,9,16,13.81,6.76,6.25,13.26,13,19.55,19.63l.58.62c7.54,7.88,12.92,18.13,17,32.26a116.92,116.92,0,0,1,3.69,23.57c.57,8.24,2.93,16.51,7.4,26a219.81,219.81,0,0,0,11.77,21l1,1.63c6,9.91,12.3,20.15,18.25,30.34,5.18,8.88,9.5,19.29,13.6,32.77a25.51,25.51,0,0,1,.67,3.27c.13.83.26,1.69.46,2.56a6.49,6.49,0,0,0,.83,1.87l.1.17,2.64,22.69c0,.29-.09.59-.14.88a15.46,15.46,0,0,0-.26,2.94,92,92,0,0,1-3.68,28.81c-.08-2.27-.21-4.5-.45-6.72A129.43,129.43,0,0,0,1059,848c-1-4.2-2.39-8.35-3.71-12.37-.39-1.17-.78-2.35-1.16-3.54-1.54-4.8-3.65-10.39-7.57-15.35l-3.32-4.19-.25,5.34c0,.12,0,.24,0,.37a4,4,0,0,0,.13,2.19c.54,1.37,1.13,2.73,1.7,4,.46,1,.92,2.1,1.36,3.17a61.62,61.62,0,0,1,4,15.43c.52,3.82,1,7.65,1.48,11.47q.6,4.83,1.23,9.66a23.53,23.53,0,0,1-.94,9.88,155.41,155.41,0,0,1-9.11,24,45.84,45.84,0,0,1-3.94,6.88c.21-1.54.41-3,.55-4.56.32-3.22.57-6.49.81-9.66.17-2.12.33-4.24.51-6.35.1-1.11.23-2.22.36-3.33.17-1.46.35-3,.45-4.49.59-9.28-.91-18.87-4.61-29.32-4.82-13.61-12.57-26-23.71-38A192.44,192.44,0,0,0,993.62,791c-6.23-5.08-12.68-10.33-18.15-16.39-.66-.73-1.31-1.47-2-2.21-.86-1-1.75-2-2.68-3a28.33,28.33,0,0,1-7.26-16,6.26,6.26,0,0,0-2-3.84l-2.46-2.31-.85,3.27a3.38,3.38,0,0,1-.13.42,4.87,4.87,0,0,0-.36,2,34.3,34.3,0,0,0,4.35,14.89,90.68,90.68,0,0,0,16.57,21.32l2.61,2.45c-5.95-4.65-11.91-9.41-17.71-14l-5.87-4.67c-9.86-7.84-19.17-17.74-28.45-30.26a183.56,183.56,0,0,1-20.35-33.82,23.9,23.9,0,0,0-2.46-4,3.64,3.64,0,0,0-1.83-1.24l-.3-.12-1.93-1-.82,2a1.57,1.57,0,0,1-.14.29,2.46,2.46,0,0,0-.18,2.27c.61,1.29,1.25,2.57,1.88,3.85,1.07,2.17,2.18,4.41,3.15,6.64a254.24,254.24,0,0,0,15.2,29.08,63.22,63.22,0,0,0,4.17,6,172.49,172.49,0,0,1-30.51-24.29c-15.77-15.71-28.42-30.69-38.67-45.8A99.93,99.93,0,0,1,843,655a97.61,97.61,0,0,1-3.81-18.74c0-.21,0-.33,0-.44-.14-1.37-.35-2.74-.55-4.07a33.58,33.58,0,0,1-.58-8.47,33.18,33.18,0,0,1,2.32-7.9c.51-1.32,1-2.68,1.48-4.06.34-1.05.6-2.11.85-3.13.13-.53.26-1.06.4-1.58.48-1.79,1-3.59,1.42-5.38,1.09-4.14,2.21-8.43,3.42-12.6a74.7,74.7,0,0,0,2.83-20.25,136.62,136.62,0,0,0-1.62-22.85,51.79,51.79,0,0,1-.45-7.05l0-1.34a47.31,47.31,0,0,0-.45-6.14l-.68-4.71-2.89,3.78c-.28.36-.53.64-.74.88a3.5,3.5,0,0,0-1.18,2.32c-.09,4-.11,8-.13,11.84v2.94c0,1.38,0,2.75,0,4.12a200.26,200.26,0,0,1-.91,22.54,58.55,58.55,0,0,1-5.55,18.84A148.06,148.06,0,0,1,823,616.15c-7.92,10.9-16.49,22.38-26.42,32.43-4.32,4.37-8.8,8.47-14.19,13.27s-10.69,9.32-17.09,14.71a168.78,168.78,0,0,0-15.55,15.53c-6.56,7.18-10,16.31-10.59,27.89a34,34,0,0,1-.67,4.84,39,39,0,0,0,.41,17.65,295.55,295.55,0,0,0,34.83,81.27c.88,1.43,1.66,2.89,2.49,4.44a44.43,44.43,0,0,0,5.32,8.41c.4.47.89,1.32.55,3.32-.92,5.4-2.6,9-5.42,11.6l-1.08,1c-1.29,1.21-2.62,2.46-4,3.59a87.65,87.65,0,0,0-16.34,18.1c-7.82,11.39-16.55,23.06-28.3,37.83-3.82,4.8-7.69,10.14-11.83,16.31a254.63,254.63,0,0,1-16.19,21.27c-3,3.55-6.11,7.36-9.1,11.18A83,83,0,0,0,678,980.12c-.94,2.25-2.13,4.49-3.27,6.66-.52,1-1,1.94-1.53,2.92a30.62,30.62,0,0,0-3,9.69,30,30,0,0,1-7.38,16.07c-3.6,4-7.88,8.54-13.14,11.69-3.91,2.34-6.37,6.14-7.33,11.28a35.15,35.15,0,0,0,.07,11.46c.32,2.24.66,4.49,1,6.73.29,1.91.58,3.83.86,5.74a10.81,10.81,0,0,1-.48,5.43,5,5,0,0,1-3.39,3.49l-.41.12a44.22,44.22,0,0,1-4.85,1.17A105,105,0,0,1,618,1074.17Zm-600-798c-.42.13-.77.22-1.05.29a4.15,4.15,0,0,0-1.93.89,57.92,57.92,0,0,0-4.47,4.42c-6.17,7-5.9,15.32.77,23.33,2.81,3.37,6.64,3.52,10,3.65l2.12.08,0-2.12a2.45,2.45,0,0,1,0-.3,2.79,2.79,0,0,0-.17-1.11,3.78,3.78,0,0,0-.79-1.38c-.72-.77-1.12-1.44.26-3.24l.15-.19a30.3,30.3,0,0,0,2-2.83c2-3.38,2.24-7.22.68-11.74a8.22,8.22,0,0,0-6.07-5.37l3.47-6ZM45.84,152.57c-3.61,0-7.64,1.94-10.78,5.2-2.93,3-4.55,6.7-4.43,10,.06,1.84,0,3.66-.13,5.6-.06,1.11-.12,2.21-.14,3.32a2.35,2.35,0,0,0,1.49,2.13l.27.15,1.15.71,1.09-.79a5.45,5.45,0,0,0,2-3.07l.77,1,1.41-.61,1.72-.73c1.22-.52,2.39-1,3.54-1.55,4.54-2.1,9.12-4.62,10.94-10.29.44-1.38,1-2.76,1.57-4.21l.85-2.14.65-1.7-1.63-.8a18.37,18.37,0,0,0-5.52-1.49c-.91-.14-1.77-.28-2.6-.49A9.61,9.61,0,0,0,45.84,152.57ZM74.76,77a1.62,1.62,0,0,0-.31,0h-.12c-1.34,0-2.12-.48-2.68-3.1a20.93,20.93,0,0,1,.27-9.44,48,48,0,0,1,2.51-8,58.51,58.51,0,0,0,3.84-12.41c2.82,11.61,1.92,21.68-2.69,31.16l-.14.3C75.21,76.05,75,76.53,74.76,77Z" transform="translate(-2.05)"/><path class="cls-1" d="M614.68,1104.88c-2.55,0-5.28-.06-8.86-.19a40,40,0,0,1-5.61-.73l-1.49-.25a5.47,5.47,0,0,1-.11-1.23,40.62,40.62,0,0,1,6.91-19.36,84.37,84.37,0,0,0,13.05,1.11,59.42,59.42,0,0,0,7.4-.45c1.26-.15,2.52-.29,3.79-.42,5.33-.56,10.83-1.13,16.17-3.56,1,4.78,2,10.38,1.31,16-.46,3.73-1.56,5.85-3.77,7.21l-6.79.79a6.7,6.7,0,0,0-2.63-.5,14.7,14.7,0,0,0-2.87.36c-.36.07-.71.14-1.06.19A101,101,0,0,1,614.68,1104.88Z" transform="translate(-2.05)"/><path class="cls-1" d="M112.47,651.89a5.63,5.63,0,0,1-2.64-.92c-4.3-2.42-7.83-4.51-11.12-6.57-1.81-1.14-3.61-2.39-5.36-3.59-1.32-.92-2.63-1.83-4-2.71a22.72,22.72,0,0,0-11.17-3.65c-4-.27-8.22-.7-12.4-1.24a33.27,33.27,0,0,1-5.54-1.39,3.25,3.25,0,0,1-2.4-3.12c-.23-2.05-.49-4.09-.76-6.14l-.21-1.65q-.42-3.37-.83-6.76c-.63-5.15-1.27-10.47-2-15.7-.94-6.28-2-12.65-3-18.8q-.88-5.42-1.76-10.82c-.28-1.72-.52-3.45-.76-5.18-.32-2.25-.65-4.58-1-6.88l-.27-1.6a56,56,0,0,0-2-8.88,64.4,64.4,0,0,0-3.09-7.08c-.6-1.23-1.21-2.49-1.76-3.74-1.27-2.89-2.31-5.31-3.16-7.85a5.36,5.36,0,0,1,.9-5.17c.19-.26.37-.54.54-.82s.25-.4.39-.58l1.57-2Q46.93,511,53.3,503c1.58-2,3.92-3.09,6.41-4.27a70,70,0,0,1,17.77-5.34c6.37-1.17,12.89-2.2,19.2-3.19l6.9-1.09,5.11-.82c13-2.06,26.43-4.2,39.45-7.62a119.53,119.53,0,0,0,18.38-6.21,99.5,99.5,0,0,1,10.39-3.72,21.6,21.6,0,0,1,3.44-.69l.56-.09,21.71,20.63a5.39,5.39,0,0,1-.58.71c-10.47,10.79-19.91,18.82-29.71,25.29-5.07,3.35-10,7.08-14.71,10.69l-2.56,2a3.73,3.73,0,0,1-2.4,1,4.75,4.75,0,0,1-1.12-.14c-18.5-4.25-37.25-5.43-58.09-6.43l-1.41,0a24.59,24.59,0,0,0-13.8,4.1A41.21,41.21,0,0,0,68.6,536c-3.21,4-4.36,8.18-3.42,12.58.12.57.24,1.15.35,1.72.28,1.43.57,2.9,1,4.36.92,3.14,1.88,6.28,2.84,9.42,1.38,4.53,2.81,9.21,4.12,13.83.62,2.18,1.09,4.48,1.54,6.7.34,1.67.69,3.39,1.11,5.09.79,3.22,1.68,6.47,2.54,9.61l.93,3.44A19.13,19.13,0,0,0,90.5,615.51c1.12.52,2.21,1.13,3.35,1.76.77.43,1.54.86,2.32,1.27a8.94,8.94,0,0,1,4.55,4.82c2.08,5.5,6.06,6.65,9,6.65h.44a3.06,3.06,0,0,1,.58.09c.23,2,.48,4,.73,5.95a139,139,0,0,1,1.4,15.82Z" transform="translate(-2.05)"/><path class="cls-1" d="M236.17,758.49c-.3-.19-.58-.39-.85-.59-6.26-4.68-13.77-8.54-23.62-12.13a53.08,53.08,0,0,1-6.11-2.74,3.48,3.48,0,0,1-2.12-3.74,84.42,84.42,0,0,1,3.33-19.18c.95-3.44,2.24-6.9,3.49-10.24.49-1.32,1-2.65,1.46-4a4.68,4.68,0,0,1,.73-1.31,1,1,0,0,1,.39-.34l2,1.37c3.33,2.23,6.78,4.54,9.92,7,1.63,1.3,2.15,3.62,2.72,6.08l.13.59c.49,2.11.89,4.3,1.28,6.42.35,1.94.71,3.94,1.15,5.91.8,3.62,1.81,7.23,2.78,10.59.44,1.55.95,3.09,1.44,4.57s1,3,1.42,4.53A16.22,16.22,0,0,1,236.17,758.49Z" transform="translate(-2.05)"/><path class="cls-1" d="M750.55,710.36a21.82,21.82,0,0,1,4.49-9.1,178.63,178.63,0,0,1,13.21-14.07c5.58-5.24,11.62-10.25,17.45-15.08l.54-.45c12.72-10.55,24.42-23,36.27-38.66-2.71,4.71-5.9,9.64-9.69,15-9.24,13-20.7,24-30.68,33.06-3.83,3.47-7.82,6.93-11.67,10.27l-6,5.17-.54.47c-1.45,1.27-2.94,2.58-4.37,4A119.81,119.81,0,0,0,750.55,710.36Z" transform="translate(-2.05)"/><path class="cls-1" d="M654.2,1060.53c-.29-1.89-.67-3.75-1-5.56-.91-4.53-1.77-8.81-1.39-13.28.27-3.23,1.56-5.35,4.45-7.33,10.58-7.26,17.55-15.43,21.27-24.94a34.15,34.15,0,0,1-7,13.66c-2,2.4-3.51,4.35-4.91,6.14-1,1.33-2,2.72-2.9,3.9a23,23,0,0,0-4.25,15.66c.17,2.14.16,4.28.15,6.54,0,1,0,1.91,0,2.86,0,.8-.26.92-.42,1l-.47.2A13.13,13.13,0,0,1,654.2,1060.53Z" transform="translate(-2.05)"/><path class="cls-1" d="M756.6,888.72q4.3-5.9,8.88-12.35a67.47,67.47,0,0,1,11.3-12.1,27.78,27.78,0,0,1-4.81,7.52C766.86,877.4,761.71,883.07,756.6,888.72Z" transform="translate(-2.05)"/><path class="cls-1" d="M657.43,1093.78a44.2,44.2,0,0,0-4-21.75c-.06-.14-.18-.38-.23-.51s.1-.35.19-.62l6.51-1.51a153.83,153.83,0,0,1,3,20.08l.12,1.23A40.16,40.16,0,0,1,657.43,1093.78Z" transform="translate(-2.05)"/><path class="cls-1" d="M123.45,658.52a9.35,9.35,0,0,1-1.37-.92,1.92,1.92,0,0,1-.52-1,71.63,71.63,0,0,0-1.27-12.37c-.13-.79-.26-1.6-.39-2.41.65,2.51,1.13,5.1,1.62,7.76.53,2.87,1.07,5.83,1.86,8.71Z" transform="translate(-2.05)"/><path class="cls-1" d="M448.27,266.79c-4.68-4.86-9.52-9.88-14.15-14.92a90.45,90.45,0,0,0-24.21-18.56l-9.27-5.05c-4.33-2.37-8.82-4.83-13.26-7.2a82.23,82.23,0,0,1-29.77-26.59l-.33-.53a5.53,5.53,0,0,0-4.37-3.18l-2.48-.26.28,2.47a10.72,10.72,0,0,0,1.83,4.65,55.43,55.43,0,0,0-10.45-2.47l-.36-.06c-1.74-.26-3.39-.5-5-.9-4.8-1.17-6.14-2.88-6.25-7.95,0-1.47,0-3,.07-4.45,0-1.25.07-2.51.07-3.76,0-3-.11-6-.22-8.75a3.29,3.29,0,0,0-.76-1.83l-.1-.12-.58-.88-1.09-.08a3.16,3.16,0,0,0-3.37,3.24c-.12,1.35-.23,2.71-.35,4.07-.05.59-.09,1.19-.14,1.78a51.62,51.62,0,0,0-7.64-13c-4.66-5.83-9.07-10.91-13.5-15.54-4.06-4.25-8.32-8.42-12.44-12.45q-3.51-3.44-7-6.89c-2.31-2.31-4.5-4.73-6.15-6.58a23.09,23.09,0,0,1-5.82-12.93,11,11,0,0,0-.44-1.91l-.13-.46a2.6,2.6,0,0,0-.66-1.1,1.54,1.54,0,0,1-.2-.22l-1.61-1.91-1.51,2c-1.73,2.27-1.66,4.73-1.6,6.72a13.91,13.91,0,0,1-.07,2.37,40.21,40.21,0,0,0-.58,9.09,46.72,46.72,0,0,0,1.69,8.87c.11.44.23.86.36,1.29a70.58,70.58,0,0,1-7.77-9.32c-1.49-2.19-3-4.39-4.5-6.58-4.63-6.76-9.42-13.76-14-20.74-6.92-10.66-15.95-20-27.59-28.41l-6.13-4.44L203,60.66a40,40,0,0,0-9-4.9l-1.44-.56-.91,1.25a3.48,3.48,0,0,0-.74,3A3.41,3.41,0,0,0,193,61.58,41.55,41.55,0,0,1,204.69,70a73.87,73.87,0,0,0-8.84-4,116.89,116.89,0,0,0-31.38-7,141.63,141.63,0,0,1-33-6.92A61.23,61.23,0,0,0,111.72,49a88,88,0,0,0-16,1.58c-2.17.4-4.26.9-6.47,1.42l-1,.24c-.08-.5-.17-1-.25-1.46-.2-1.07-.4-2.13-.59-3.2-.46-2.43-.93-5-1.31-7.42a4.93,4.93,0,0,1,.13-2.32c1.16-3.06,2.9-4.89,5.48-5.76.94-.31,1.87-.65,2.8-1,1.27-.47,2.47-.91,3.71-1.29A62.42,62.42,0,0,0,118,19.45c6.7-5.19,14.56-9.28,24.74-12.87C153.79,2.67,165.23,1.26,175,.39c2.95-.26,5.88-.39,8.95-.39h1c-.63.33-1.25.66-1.87,1-.43.25-.86.49-1.31.73a30.87,30.87,0,0,0-7.18,5L172.19,9,175.25,10c.3.1.54.2.73.28a3.55,3.55,0,0,0,1.47.39,2.45,2.45,0,0,0,.71-.11l1.32-.41c2.42-.76,4.93-1.54,7.37-2.46a32.68,32.68,0,0,1,11.82-2.34,27.73,27.73,0,0,1,7,.89c3.83,1,7.89,2.24,13.16,4A119.85,119.85,0,0,0,242,15.34c4.81.6,9.72,1.46,14,2.21a34.51,34.51,0,0,1,10.74,4,69.68,69.68,0,0,1,17.94,13.94c5.82,6.38,11.51,12.78,16.8,18.75a83.2,83.2,0,0,0,11.2,10.14,13.9,13.9,0,0,0,8.87,3.08h.45c2.14-.06,4.31-.15,6.44-.24a48.84,48.84,0,0,1-12.93,2.15c-4.13.26-8,.53-11.72.83a3.06,3.06,0,0,0-1.88,1c-.13.12-.29.26-.49.42l-2.53,2,2.89,1.4c.24.12.45.24.64.35a4.78,4.78,0,0,0,2,.76c1.39.14,2.77.3,4.15.47a87,87,0,0,0,10.18.8,37.16,37.16,0,0,0,4.71-.28l.29,0a9.16,9.16,0,0,1,2.3.46c6.56,1.91,11.32,5,14.54,9.61l1.87,2.64c2.35,3.31,4.78,6.73,7.1,10.13,7.87,11.49,16.12,20.53,25.22,27.62a105.36,105.36,0,0,0,32,17.28,41.76,41.76,0,0,1-14.66,2.68c-1.35,0-2.72-.07-4.09-.2-2.74-.26-5.54-.7-8.25-1.13-1.66-.26-3.33-.52-5-.75a9.36,9.36,0,0,0-1.1-.06c-.39,0-.81,0-1.32,0s-1,0-1.61.07l-5.07.11,3.78,3.38c.41.36.72.68,1,1a5.1,5.1,0,0,0,2.11,1.51c2.57.8,5.19,1.54,7.73,2.26,1.05.3,2.1.59,3.15.9a44,44,0,0,1,24.13,16.71c4.25,5.87,6.72,11.65,7.55,17.68A129,129,0,0,0,418,202.13c.23.89.45,1.79.66,2.68a36.5,36.5,0,0,0,7.29,14.7c4.19,5.06,8.55,10.21,12.94,15.29a61.29,61.29,0,0,1,6.85,9.49,86.11,86.11,0,0,0-9-9.44l-.21-.19a4.16,4.16,0,0,0-2.87-1.41,3.67,3.67,0,0,0-2.73,1.36l-1.06,1.16.88,1.3c1.24,1.85,2.51,3.69,3.77,5.54,2.82,4.1,5.74,8.34,8.34,12.64A96.19,96.19,0,0,1,449,267.59Z" transform="translate(-2.05)"/><path class="cls-1" d="M17.37,109.71A30.26,30.26,0,0,1,17.69,99a52.07,52.07,0,0,1,5.14-14.52c.39-.76.72-1.51,1.18-2.54.25-.54.52-1.16.86-1.91l2.46-5.38-5.22,2.79c-.5.27-.91.45-1.23.6a4,4,0,0,0-1.95,1.42c-.95,1.5-1.89,3-2.78,4.47a49.52,49.52,0,0,1,2.53-7c3.17-7,7.92-12.16,14.12-15.27,4.4-2.21,9.1-4.11,13.63-5.94l2.51-1-1.37,2.65c-1.56,3-3.17,6.13-4.61,9.28a24.45,24.45,0,0,0-1.28,3.88,15.64,15.64,0,0,1-1.47,4,14.82,14.82,0,0,1-2.89,3,24,24,0,0,0-3,3,100.71,100.71,0,0,0-6.1,9l-.32.51c-.79,1.26-1.5,2.56-2.19,3.82-.85,1.54-1.65,3-2.58,4.38A49.48,49.48,0,0,0,17.37,109.71Z" transform="translate(-2.05)"/><path class="cls-1" d="M38.25,166.28a1.39,1.39,0,0,1-.46-.07c.34-1.48,1.35-2.64,3.36-4a8.65,8.65,0,0,1,5-1.43h.55a4.06,4.06,0,0,1-3.07,3.46c-.83.3-1.63.65-2.4,1s-1.33.57-2,.82A3,3,0,0,1,38.25,166.28Z" transform="translate(-2.05)"/><path class="cls-1" d="M16.59,298.43a10.66,10.66,0,0,1-3.05-6.53A8.84,8.84,0,0,1,15.32,286l1,.57c1.76.91,2.64,1.58,2.93,2.88a7.83,7.83,0,0,1-.64,5.39C18,296,17.33,297.2,16.59,298.43Z" transform="translate(-2.05)"/></g></g></svg>