<svg xmlns="http://www.w3.org/2000/svg" viewBox="0 0 979.15 825.05"><defs><style>.cls-1{fill:#1c060d;}</style></defs><g id="Layer_2" data-name="Layer 2"><g id="Layer_1-2" data-name="Layer 1"><path class="cls-1" d="M389.4,828.49a9.53,9.53,0,0,1,1.54-5.77c1.1-1.86,2.09-3.54,3.13-5.19a3.14,3.14,0,0,1,.76-.84,32,32,0,0,1,19.38-6.48h.87c4.9.12,9.2,1.92,13.44,5.65a8.66,8.66,0,0,1-1.93,2l-.17.14c-3.2,2.76-7.07,4.37-11.89,6-6.47,2.11-13.41,3-19.54,3.73a25,25,0,0,0-2.74.55l-.9.22Z" transform="translate(0 -3.44)"/><path class="cls-1" d="M432.29,808.69c-3.33-1.83-6.78-3.68-10.7-4.48a36.85,36.85,0,0,0-7.38-.78,30,30,0,0,0-6.41.67c-3,.65-5.85,1.55-8.87,2.49l-.78.25c.36-1.67.77-3.34,1.18-5,.7-2.86,1.43-5.81,1.93-8.8l.23-1.36a127.7,127.7,0,0,0,2-16l-3.74-1.05a35.36,35.36,0,0,0-2.9,7.69c-.25.84-.49,1.68-.75,2.51-1.21,3.79-2.25,7.55-3,10.4-.64,2.39-1.23,4.78-1.85,7.32,0,.09-.05.18-.07.27a15.74,15.74,0,0,0-8-4.05,12.78,12.78,0,0,0-2-.15,19.64,19.64,0,0,0-6.31,1.22c.64-2.08,1.24-4.06,1.88-6,2.56-7.75,4.09-15.81,5.56-23.6l1.26-6.64c.77-4,1.56-8.22,2.42-12.31a33.78,33.78,0,0,1,1.74-5.5c1.55-3.83,3.07-7.57,4.78-11.17,3.6-7.57,5.42-16.12,5.58-26.14q0-3.1,0-6.2c0-3.75,0-7.62.2-11.4.4-8.66-.35-17.32-1.07-25.7-.11-1.33-.23-2.67-.34-4-1.06-12.79-1.8-24.33-.17-36,1.3-9.27,3-18.28,4.87-28.25,1-5.45,2.16-11,3.24-16.33,1.47-7.22,3-14.69,4.31-22.07a69,69,0,0,0,.87-18.5c-.4-4.36-.72-8.8-1-13.09-.16-2.26-.32-4.52-.5-6.78-.47-6.06-2.06-11.8-3.8-17.63-3.47-11.64-7.15-23.59-10.4-34.14A29.19,29.19,0,0,0,391,461l-3.66,1.38c0,.28.08.57.11.86a17,17,0,0,0,.37,2.23q1,4,2.1,8.1c1.28,4.88,2.6,9.93,3.77,14.9,1.55,6.56,3,13.28,4.36,19.78.4,1.88,1.31,6.18,1.34,6.29a50.09,50.09,0,0,0-14.95-4.31c-3-.34-5.95-.4-8.85-.46l-2.81-.06-1.11,0c-1.11,0-2.31.05-3.69.14-4.57.32-9.36.48-14.25.48-5.64,0-11.43-.2-17.7-.63-18.56-1.24-32.45-3.74-45-8.1a142.74,142.74,0,0,1-20.36-9.1c-7.7-4.1-15.47-8.38-23-12.53L241,476.29c4,.32,8.09.49,12.25.49a208.28,208.28,0,0,0,33.4-3c8.48-1.37,17.08-2.86,25.4-4.3l5.62-1c1.2-.21,2.41-.49,3.8-.82l2.41-.55-.43-4c-1,0-1.94,0-2.79,0l-2.14,0c-1,0-1.83,0-2.6.1-3.54.31-7.08.67-10.62,1-5.28.54-10.73,1.08-16.09,1.47l-5.33.39c-9.13.68-18.57,1.39-27.84,1.39-2.76,0-5.45-.07-8-.19-2.28-.11-4.6-.17-6.83-.23-3-.08-6.18-.17-9.24-.38a88.27,88.27,0,0,1-36.91-10.36A84.72,84.72,0,0,1,174.34,441c-2-2.1-4.13-4.19-6.16-6.22s-4.38-4.38-6.52-6.59c-7.35-7.62-15.94-13.61-23.43-18.62a97.3,97.3,0,0,1-18.66-16.45,26.44,26.44,0,0,0,9.27,1.65A34.64,34.64,0,0,0,139.48,393c2.38-.76,4.86-1.45,7.26-2.11,1.37-.38,2.73-.75,4.1-1.15a6.08,6.08,0,0,1,1.73-.23,12.33,12.33,0,0,1,2.9.41c3.94.94,8.15,1.81,12.51,2.57a59.66,59.66,0,0,0,10.39.84,108,108,0,0,0,12-.76,32.85,32.85,0,0,0,4.41-.79c10.68-2.68,19.07-7.68,25.63-15.3,2.49-2.89,5.15-5.76,7.72-8.52,2.22-2.4,4.52-4.87,6.72-7.37a55.18,55.18,0,0,0,5.61-7.71,20.22,20.22,0,0,0,3.1-13.43l-3.91-.29-.16.55c-.13.44-.27.89-.38,1.34a30.35,30.35,0,0,1-7.57,13.33q-4.56,5-9.13,9.94l-6.82,7.44c.13-.53.27-1,.4-1.57.64-2.46,1.3-5,1.77-7.58,1.12-6.19-.55-12-2.12-16.41-2.71-7.53-7.45-14.45-14.48-21.18a106.27,106.27,0,0,0-34.2-21.55,46,46,0,0,0-17.06-3.72,39.53,39.53,0,0,0-17.69,3.76,64.41,64.41,0,0,0-23.64,20,71.16,71.16,0,0,0-11.67,24.68c-.17-.37-.35-.73-.52-1.1-5.24-10.77-8.13-23-8.83-37.42-.27-5.54.73-11.24,1.7-16.76.18-1,.35-2,.52-3,1.52-9,4.27-17.85,6.94-26.42.72-2.33,1.44-4.66,2.14-7l2.24-7.45a7.53,7.53,0,0,0,6.13,3.36A9.68,9.68,0,0,0,112,251l.35-.2,1.94,1.28,1.13-.87a2.77,2.77,0,0,0,1.23-1.28c2.82-6.48,2.14-12.87-2-19-2.45-3.59-5.53-5.41-9.16-5.41H105l-.63-7.18c-.58-6.59-1.18-13.4-1.66-20.1-.84-11.88,1.18-23.9,6.36-37.82,3.46-9.31,7.93-16.61,13.64-22.32a75.31,75.31,0,0,1,19.1-13.63c5.69-2.91,11.4-5.44,16.24-7.53,6.36-2.76,13.13-4.17,19.5-5.29,21.41-3.78,37.89-5.7,53.42-6.24,1.7,0,3.37-.08,4.95-.08,1.93,0,3.83,0,5.62.13,13.42.65,26.55,1.37,39.66,2.92l.48.07-.21,1.59c-.34,2.61-.66,5.08-.93,7.61v.14a43.88,43.88,0,0,0-.19,11.47,23.68,23.68,0,0,1,.19,3.23,17.8,17.8,0,0,0,1.9,9l3.75-1c0-.91,0-1.71,0-2.45,0-1.41,0-2.63,0-3.85-1-23.46,6.63-44.13,23.21-63.2,7-8,13.28-13.53,19.93-17.42,4.84-2.82,10.12-5.65,17.13-9.15,3.28-1.64,6.67-3.23,10-4.77,3.78-1.77,7.69-3.61,11.48-5.54,6.85-3.49,13.33-8.32,21-15.65,5-4.76,10.14-9.63,15.32-14.5.22-.2.46-.4.71-.61l.05.65c.27,2.9.54,5.89.63,8.81a94,94,0,0,0,3.72,22.76c1.3,4.6,2.57,9.2,3.85,13.81,1.86,6.74,3.79,13.71,5.77,20.55a135.15,135.15,0,0,1,4.35,22.62c1,9.11,1.61,16.14,1.9,22.8.8,18.15-1.55,33.89-7.17,48.13A138.09,138.09,0,0,1,408.26,184a59.22,59.22,0,0,1-32.16,26.18,34.52,34.52,0,0,1-11.44,2.06,29.7,29.7,0,0,1-4.21-.3,4.21,4.21,0,0,0-.62,0,4.33,4.33,0,0,0-2.33.7L354,214.85l3.94,1.38c.25.08.49.18.73.27a14.08,14.08,0,0,0,2,.66,42.51,42.51,0,0,0,9.14,1,34,34,0,0,0,10.47-1.62,90,90,0,0,0,14.82-6.16c8.27-4.41,15.14-11.37,21-21.28,10.23-17.34,16-34.21,17.6-51.59l.14-1.43c.4-4.32.82-8.78,1-13.21a50.36,50.36,0,0,0-.2-6.17c-.06-.94-.13-1.88-.17-2.81,0-.32-.05-.64-.09-1,0,0,0-.08,0-.12l4.22.24,12.91.73c1.27.08,2.6.11,3.95.11a137.55,137.55,0,0,0,17.06-1.35c13-1.65,26.28-3.38,39.09-5l11.9-1.56c12.64-1.64,26-2.8,39.59-3.44,5.66-.26,11.42-.4,17.14-.4,6.81,0,13.76.19,20.64.57,10.52.58,21.58,1.66,33.83,3.3,15.36,2.06,35.55,5,55.44,9.28,15.63,3.38,33.35,7.2,50.13,12.23,4,1.2,8.06,2.69,12,4.13,2.12.79,4.25,1.58,6.39,2.32,14.27,5,27.23,12.53,39.76,19.82a273.05,273.05,0,0,1,27.17,17.59c6.17,4.65,11.51,8.95,16.33,13.14,15.06,13.08,28.37,28.36,40.7,42.9,11.35,13.37,19.84,28.06,26.65,40.66,5,9.24,9.59,18.56,13.67,27.71a83.52,83.52,0,0,1,7.37,29.66c.13,2.42.28,4.85.44,7.27.34,5.39.7,11,.74,16.4.05,6.15-.28,12.45-.6,18.54-.08,1.58-.17,3.16-.24,4.74-.77,15.86-4.66,31.55-8.58,46.26a159.08,159.08,0,0,0-5.08,28.24c-1.13,13.83-1.58,26.31-1.37,38.16a139.48,139.48,0,0,0,7.05,41.27,469.39,469.39,0,0,0,17.28,44.91c2.71,6,6,14.09,7.48,22.79a72.15,72.15,0,0,1,1.16,16.74c-.49,7.52-.94,13.71-1.43,19.47a36.78,36.78,0,0,1-1.05,6.46c-2.3,8.65-3,17.53-3.4,25.08-.78,15.2,1.7,29.36,7.39,42.08,3.24,7.25,6.75,14.77,10.73,23,1.75,3.62,3.62,7.25,5.43,10.76,1.26,2.46,2.53,4.92,3.77,7.39.92,1.85,1.79,3.77,2.63,5.63.17.39.35.77.52,1.16l-6.33,5.54a8.52,8.52,0,0,1-.64-1.59,127.8,127.8,0,0,0-6.4-15.38c-1.17-2.51-2.38-5.11-3.48-7.69a37,37,0,0,0-5.36-8.77l-3.52,1.68c.13.56.22,1,.3,1.38a16.51,16.51,0,0,0,.44,1.83,17.29,17.29,0,0,0,.66,1.68c.09.2.19.4.27.61l2.22,5.26c1.62,3.82,3.3,7.78,4.85,11.7a102.57,102.57,0,0,1,6.72,31c-.84,0-1.61-.06-2.34-.06a26.78,26.78,0,0,0-7.92,1.06,57.12,57.12,0,0,0-11.7,4.9,34.17,34.17,0,0,0-8.1,6.44,147,147,0,0,1-9.3-18.23,39.52,39.52,0,0,1-2.36-8.8c-.44-2.64-1.05-5.52-1.94-9.06l-3.93.26c-1.13,10,1.74,19.28,4.52,27.16a79.5,79.5,0,0,0,3.8,8.62c.61,1.25,1.22,2.51,1.8,3.77l.49,1.09A16.49,16.49,0,0,0,915.1,802c-7.09-13.5-13.83-26.78-18.36-40.77a178.87,178.87,0,0,1-5.23-22.74l-.31-1.67q-1.32-7.12-2.61-14.24c-1.44-8-2.94-16.18-4.5-24.25-2-10.53-5.5-21.33-11.26-35a258.84,258.84,0,0,0-12-25.08A58,58,0,0,1,856.12,627c-2.71-9-5.35-18.28-7.9-27.21q-2.31-8.13-4.66-16.24c-1.6-5.52-3.25-10.84-4.91-15.83-2.22-6.69-5.53-13.25-10.73-21.29l-2.36-3.63c-4.63-7.14-9.41-14.51-14-21.85a261.05,261.05,0,0,0-20.05-27.47c-3.17-3.87-6.3-7.9-9.33-11.8l-.62-.81a74.66,74.66,0,0,1-9.88-17.53,280.79,280.79,0,0,1-14.64-47.63c-1-4.78-1.76-9.75-2.45-14.55-.34-2.31-.67-4.61-1-6.9-.08-.46-.18-.9-.28-1.35l-.12-.53-.41-1.87-4.48.77,2.42,26.52c-1.68-.13-3.39-.19-5.09-.19a79.72,79.72,0,0,0-20.79,2.93c-12.7,3.39-24.28,9.1-33.94,14.23q-6.24,3.31-12.45,6.67c-8.32,4.46-16.93,9.08-25.46,13.47-13.91,7.16-29.21,13.18-48.14,18.92a389.1,389.1,0,0,1-53.2,12c-2.61.4-5.23.73-8,1.08l-1.56.2q.25-3,.5-5.86c.54-6.29,1-12.23,1.68-18.25.89-8.6,1.43-17.68,1.59-27,0-2.36.13-4.72.21-7.07a150.11,150.11,0,0,0-.16-19.65l-4-.06c-.09.74-.19,1.48-.29,2.23-.21,1.63-.43,3.31-.6,5q-.62,6.12-1.19,12.24c-.68,7.13-1.38,14.5-2.16,21.73-.85,8-1.87,15.93-3,24.71l-.76,5.83c-1,8-2.12,16.38-3.42,24.52-2,12.48-5.47,24.9-8.83,36.91l-.24.89c-4.08,14.6-10.06,28.7-15.38,40.56l-1.13,2.52a252.92,252.92,0,0,0-10,24.61A383.39,383.39,0,0,0,484,653.09c-3.78,18.37-7.51,36.33-11.51,54-1.12,5-2.7,10-4.23,14.79-.68,2.14-1.36,4.27-2,6.41a110.17,110.17,0,0,0-4.48,26.13c-.28,5.67-.45,11.43-.62,17-.08,2.79-.16,5.57-.26,8.35,0,.59-.06,1.18-.11,1.8a25.62,25.62,0,0,0-12.18,4,2.88,2.88,0,0,1,.11-1.48q2.77-9.57,5.57-19.13c.16-.57.4-1.16.64-1.79a18.15,18.15,0,0,0,1.43-5.42l-3.75-1.12-2.13,3.91c-4.29,7.9-7.87,17-11.29,28.51-1.35,4.57-3,9.16-4.65,13.6-.62,1.7-1.25,3.41-1.85,5.12A8.37,8.37,0,0,1,432.29,808.69Zm-151-590.8a18.65,18.65,0,0,0-4.58.6,24.09,24.09,0,0,0-18.4,22.09l-.05.83.56.63c.21.23.43.46.66.68a4.86,4.86,0,0,1,.76.86c2.23,4.22,6.1,5.95,9.59,7.09a21.11,21.11,0,0,0,6.54,1.07c8.77,0,15.67-5.84,17.56-14.87q.18-.87.33-1.74c0-.14.05-.28.08-.42l2.38.49v-2.46c0-6.21-2.39-10.3-7.44-12.88A17.47,17.47,0,0,0,281.29,217.89Zm116-193.58A76.91,76.91,0,0,1,377,41.92c-6,3.71-12.34,7.16-18.25,10.34-6.38,3.44-13.7,7.58-19.8,13.29a62,62,0,0,0-13.08,16.8,81.54,81.54,0,0,0-8.59,30.45,112.76,112.76,0,0,0,0,17.54,108.39,108.39,0,0,0,8.79,37.85,238.47,238.47,0,0,0,12.63,23.91,28.31,28.31,0,0,0,3.15,4.34,13.63,13.63,0,0,0,10.49,4.92h0c.48,0,1,0,1.46-.07A22.12,22.12,0,0,0,364,197.34l4.6-3-5.48-.62c-.33,0-.59-.08-.81-.12a6.26,6.26,0,0,0-1.06-.12,3,3,0,0,0-.86.12,6.64,6.64,0,0,1-2,.26,22.55,22.55,0,0,1-2.51-.19c-.68-.07-1.37-.15-2.06-.18a6.8,6.8,0,0,1-5.13-2.71,25.71,25.71,0,0,1-2.45-3.5c-1.81-3.17-3.6-6.42-5.3-9.69l-.49-.92c-3.41-6.53-6.95-13.28-9.14-20.38-5.14-16.64-6.82-32.23-5.16-47.64A65.72,65.72,0,0,1,332,86.78c5.25-10.87,13.7-19.64,25.1-26.06L374.25,51l1.21-.69a88,88,0,0,0,16.16-11.75,42,42,0,0,0,8.1-9.94,11.21,11.21,0,0,0,.77-1.69c.08-.2.15-.4.24-.6Z" transform="translate(0 -3.44)"/><path class="cls-1" d="M782.48,785.19c-3.76-6.29-9.92-7-14.28-7h-.92l-.56,0c6.59-11.82,12.54-23.22,13.44-37l-3.78-1c-.11.23-.23.45-.35.68-.29.54-.59,1.11-.85,1.72s-.54,1.34-.8,2c-.11.31-.22.62-.34.92-.67,1.71-1.32,3.43-2,5.14-1.48,3.82-3,7.78-4.54,11.64-2.55,6.37-6.16,12.16-10,18.29l-.4.63a17.05,17.05,0,0,0-7-2.52l0-.12c.17-.43.34-.87.5-1.32a27.71,27.71,0,0,1,1.6-3.73c4.34-7.75,6.21-16.18,7.63-23.48a11.92,11.92,0,0,1,1.3-3.67,87.08,87.08,0,0,0,8-20c3.57-12.69,6.06-25.4,8.21-37.25a116.12,116.12,0,0,1,6-19.82c2.12-5.6,4.28-11.56,6.43-17.71,2.28-6.53,3.14-13.74,2.71-22.71a111.61,111.61,0,0,0-4.4-26.13c-2.36-8-5.47-14-9.78-18.67a57.11,57.11,0,0,0-15.89-12.45c-15-7.77-29.6-17-43.68-25.9l-8.48-5.36a116.36,116.36,0,0,1-25-21.74c-.81-.91-1.61-1.84-2.42-2.76-2.46-2.82-5-5.74-7.76-8.41-9.58-9.28-20.94-17.36-34.74-24.72A47.85,47.85,0,0,0,624,477.66c23.36-8.3,44.33-20.37,60.25-30.17l.87-.53c8.67-5.34,17.63-10.86,27-15.26,6.43-3,14.09-6.29,22.27-7.35a72,72,0,0,1,9.24-.59c2.57,0,5.24.13,7.92.4a2.31,2.31,0,0,1,.44.11l.57,2.7c.59,2.74,1.17,5.47,1.77,8.2a220.32,220.32,0,0,0,9.07,31.18A88.53,88.53,0,0,0,777,490.07l3.31,4.15q4.57,5.73,9.17,11.44a200.92,200.92,0,0,1,13.65,19.19l.11.18c5.73,9.1,11.67,18.51,17.71,27.64a86.87,86.87,0,0,1,11.12,24.48q3.67,12.84,7.34,25.67,3.5,12.24,7,24.48c.13.46.25.92.37,1.38a28.35,28.35,0,0,0,1.6,4.76c1.12,2.38,1.17,4.86,1.23,7.72v.4a50.85,50.85,0,0,1-3.37,19.14c-1.37,3.67-2.64,7.43-3.86,11.07-.59,1.76-1.18,3.53-1.79,5.3a107.93,107.93,0,0,0-4.39,17c-.46,2.66-1,5.37-1.57,8-.58,2.8-1.18,5.69-1.67,8.58-.77,4.62-1.4,9.54-1.87,14.6a119.89,119.89,0,0,1-4.68,23.64,8.11,8.11,0,0,1-.33.88,24.85,24.85,0,0,0-3.76-.28A32.08,32.08,0,0,0,812,751.35a25,25,0,0,1,.43-4.22,197.43,197.43,0,0,0,3.1-26.93c.08-2,.08-4,.06-5.86a3.5,3.5,0,0,0-1.9-3l-2.56-1.56-1,6.36c-.39,2.59-.79,5.18-1.17,7.78-.41,2.78-.82,5.57-1.22,8.35-.86,6-1.75,12.13-2.71,18.18a67.44,67.44,0,0,1-2,8.31,28.56,28.56,0,0,1-1.58,3.86l-.37.79c-.2.43-.45.87-.72,1.34a14,14,0,0,0-1.26,2.64c-1,3.22-2.95,6.14-6.15,9.46A48.58,48.58,0,0,1,782.48,785.19Z" transform="translate(0 -3.44)"/><path class="cls-1" d="M366.68,798.35c-5.39-5.64-12.21-8.39-20.76-8.39-1.42,0-2.9.07-4.44.22l0-.15a15.87,15.87,0,0,0,1.16-5.71l-.18-5.63-4.43,5.81a94.09,94.09,0,0,1-7.47,9.06l-4.73-1.76c2.61-7,3-14.27,3.35-20.75.78-14.42.39-29,0-43.17-.15-5.64-.31-11.47-.38-17.2a164.54,164.54,0,0,0-3.58-31.21,102.89,102.89,0,0,0-2.85-10.55c-1.88-5.89-3.83-11.86-5.72-17.63-3.7-11.3-7.52-23-10.9-34.56-5.43-18.64-12.88-38.3-23.44-61.86a177.18,177.18,0,0,0-13-23.38c-6.71-10.51-13.58-21.15-20.23-31.44q-5.05-7.82-10.1-15.65c-.31-.48-.62-1-.92-1.44l8.39,5c7.15,4.29,14.54,8.73,21.87,13a119.06,119.06,0,0,0,43.16,15.14c6,.87,12,1.59,17.89,2.3l3.84.46a38.73,38.73,0,0,0,4.4.2h.42l26.72.19,4.37,0h2.05a11.27,11.27,0,0,1-.16,1.66c-.84,4.19-.28,8.25.25,12.16l0,.32q1.2,8.82,2.46,17.64c1.28,9.16,2.61,18.62,3.84,27.93a131,131,0,0,1,.82,26c-.44,6.54-.87,13.53-1,20.41a111,111,0,0,0,1.7,20.6q.7,4.15,1.44,8.3c1,5.94,2.11,12.08,3,18.12,1,6.88,1.78,13.92,2.56,20.72.35,3,.69,6,1.05,8.93.08.71.15,1.41.23,2.11.15,1.46.31,3,.56,4.46.8,4.78.34,9.76-1.49,16.14-.38,1.32-.75,2.65-1.13,4-1.47,5.2-3,10.58-4.8,15.72-2.54,7.18-4,14.64-5.49,21.85l-.14.71a235.87,235.87,0,0,1-7.64,29.42C367.14,797.13,366.92,797.72,366.68,798.35Z" transform="translate(0 -3.44)"/><path class="cls-1" d="M90.11,214.24a62.33,62.33,0,0,1-12.92-1.82l-.57-.12c-8.76-1.83-17.05-6-25.33-12.68C43.64,193.44,37,185.62,31,175.7c-6.9-11.37-11.73-24.72-15.22-42a167.9,167.9,0,0,1-3-28.62c-.06-2.2-.16-4.41-.26-6.61s-.2-4.54-.26-6.81a53.84,53.84,0,0,1,.11-6.29c.9-10.93.48-22.49-1.3-36.4a42.92,42.92,0,0,0-11-23.27L0,25.61l3,.85c6.61,1.86,13.44,3.78,20,6.13A157.36,157.36,0,0,1,59.23,51.31,165,165,0,0,1,92.41,82.24c5.16,6.27,10.66,12.82,17.28,20.61a73.79,73.79,0,0,0,13.73,12.39,25.21,25.21,0,0,0,13,4.68l-6.06,3.83c-8.78,5.52-15.29,13.09-21,20.45a40.57,40.57,0,0,0-4.46,7.64,110.92,110.92,0,0,0-8.13,21.7c-1-2.2-2.12-4.46-3.38-6.63a29.49,29.49,0,0,1-4.07-19q.94-7.71,1.87-15.44l.3-2.45c1.55-12.92.93-23.56-2-33.49A79.43,79.43,0,0,0,77.26,72,97.16,97.16,0,0,0,43.05,42.18c-2.15-1.11-4.41-2-6.59-2.89l-1-.38a5.81,5.81,0,0,0-2.19-.42,7.41,7.41,0,0,0-1.82.24l-4.25,1.08,3.61,2.5.27.21a4.87,4.87,0,0,0,1.45.88c10.26,3.59,19.65,10.27,29.54,21C70.52,73.56,76.2,82,80,91.12a68.94,68.94,0,0,1,4.75,19.48c.62,5.85,0,11.54-.72,17.57-.16,1.38-.31,2.77-.46,4.15-.27,2.72-.63,5.49-1,8.16s-.67,5.2-.95,7.82A36.64,36.64,0,0,0,87,171.17a65.57,65.57,0,0,1,4,7.94A40.56,40.56,0,0,1,94.31,194c.13,4.6.57,9.23,1,13.71.18,2,.37,4,.53,6a10.58,10.58,0,0,1-1.89.27l-.85.07A28.82,28.82,0,0,1,90.11,214.24Z" transform="translate(0 -3.44)"/><path class="cls-1" d="M128.78,386.47a11.83,11.83,0,0,1-3.48-.59c-7-2.07-11.75-5.32-15-10.23l-.42-.63c-1.18-1.76-2.39-3.58-3.48-5.4a20.09,20.09,0,0,1-2.62-13.42c1.9-14.3,7.45-26.7,16.5-36.86,8.08-9.08,17.85-13.9,29.05-14.33h.86A34.17,34.17,0,0,1,162,307.47c16.54,6.07,29.42,15,39.37,27.15a44,44,0,0,1,8.15,15.5c1.94,6.58,1.52,13.5-1.32,21.76a3.16,3.16,0,0,1-.41.8c-5.78,7.6-12,11.39-19.48,11.94-2.08.15-4.16.28-6.35.41l-3.07.2-.57,0c-6.14-.3-12.49-.61-18.56-2.52a25.14,25.14,0,0,0-7.5-1.15,29.12,29.12,0,0,0-8.38,1.29c-2.77.82-5.66,1.52-8.45,2.21-1.61.39-3.23.79-4.84,1.21A7.05,7.05,0,0,1,128.78,386.47Zm12.9-16.17.65-4.29c.12-.77.24-1.5.36-2.2a43.91,43.91,0,0,0,.6-4.41,12,12,0,0,0-4.09-9.87,16.7,16.7,0,0,0-11.35-4.43,17.68,17.68,0,0,0-13.1,5.88,2.08,2.08,0,0,0-.34,2.25,2.78,2.78,0,0,1,.09.27l.74,2.3,2.12-1.15c2.7-1.46,5.75-3.11,8.83-3.11a8.57,8.57,0,0,1,2.55.38,11,11,0,0,1,7.86,7.26,8.33,8.33,0,0,1-1.09,1.16c-2.82,2.17-4.9,3.09-7,3.09a8.42,8.42,0,0,1-5-1.85,2.6,2.6,0,0,0-1.56-.47l-.52,0-3.27-.18,1.47,3.42a6.29,6.29,0,0,0,.51,1.05,6.47,6.47,0,0,0,1.12,1.28,12.65,12.65,0,0,0,14.14,1.36c1-.55,1.88-1.16,2.75-1.76ZM178.5,339a22.2,22.2,0,0,0-3.49.29,17,17,0,0,0-12.19,8.4,16.82,16.82,0,0,0-1,14.58l.37.93,1,.26c.43.12.85.22,1.26.32a18,18,0,0,1,2.16.61,20,20,0,0,0,7.1,1.37,17.8,17.8,0,0,0,8.63-2.28,47.21,47.21,0,0,0,4.48-2.91l.91-.63a2.88,2.88,0,0,0,1-4.2l-1-1.6-2.82,1.55c-.84.46-1.66.91-2.49,1.34a24.5,24.5,0,0,1-7.67,2.64,13.08,13.08,0,0,1-1.78.13,16.32,16.32,0,0,1-3.9-.52,3.92,3.92,0,0,1-2.69-1.85,3.76,3.76,0,0,1-.11-3.1c2.21-6.39,5.65-9,11.88-9,.59,0,1.21,0,1.85.07a20.5,20.5,0,0,1,7.58,2.44c.53.27,1.08.51,1.69.77l.89.38,3.59,1.59-.82-3.83c0-.19-.06-.34-.08-.46a2.6,2.6,0,0,0-.76-1.65A19.39,19.39,0,0,0,178.5,339Z" transform="translate(0 -3.44)"/><path class="cls-1" d="M934.59,215.38a32.26,32.26,0,0,1-17.8-5.58c-10.69-7-16.67-17.07-17.79-30a8.18,8.18,0,0,1,.12-2.46c2.54-12,9.28-20.17,20-24.22a39.88,39.88,0,0,1,12.38-2.54,38,38,0,0,0-19.14,11.22c-6.9,7.32-8.89,16.26-5.75,25.83,2.22,6.76,7.14,12,14.64,15.58A27.39,27.39,0,0,0,933,206.08a23.93,23.93,0,0,0,10.72-2.58c6.21-3.09,9.52-8.24,9.54-14.89a13.43,13.43,0,0,0-3.46-9A21.26,21.26,0,0,0,933.05,172a30.92,30.92,0,0,0-4.42.33,37.24,37.24,0,0,0-16.26,6.29,16.21,16.21,0,0,1,1.61-6.66,9.47,9.47,0,0,1,4.17-4.25,21.84,21.84,0,0,1,7.37-2.26,45.06,45.06,0,0,1,6.51-.49A31.84,31.84,0,0,1,949,169.49a23.62,23.62,0,0,1,9.09,9.65A25.11,25.11,0,0,1,960.64,195c-1.56,9.82-7.35,16.24-17.21,19.08A32.34,32.34,0,0,1,934.59,215.38Z" transform="translate(0 -3.44)"/><path class="cls-1" d="M327.31,816.27a7.69,7.69,0,0,1-2.8-.53,1.76,1.76,0,0,1,.2-1.22L325,814a17.68,17.68,0,0,1,1.86-3.41c2.87-3.7,6-7.57,9.61-11.82a3.13,3.13,0,0,1,1.49-.81,33.77,33.77,0,0,1,8-1,26.74,26.74,0,0,1,5.48.56c4.91,1,8.94,3.83,12.29,8.54a1.91,1.91,0,0,1-.26.23l-1.43.64a39.88,39.88,0,0,1-6.4,2.45c-2.68.67-5.44,1.3-8.1,1.91-5.8,1.32-11.8,2.69-17.61,4.61A8.25,8.25,0,0,1,327.31,816.27Z" transform="translate(0 -3.44)"/><path class="cls-1" d="M957.83,809.76a26.35,26.35,0,0,1-11-2.56c-.38-.17-.75-.38-1.13-.59a11.83,11.83,0,0,0-2.61-1.17c-3.22-.89-5.17-2.85-6.22-6.3a21.68,21.68,0,0,1,5.47-5.56,38,38,0,0,1,14.66-6.2,14.31,14.31,0,0,1,2.85-.31,9.39,9.39,0,0,1,3.2.53v.29c0,1.13.05,2.27.1,3.4l.11,2.94c.17,4.19.34,8.53.56,12.79.08,1.55-.1,1.83-.11,1.85s-.22.25-1.63.5A23.17,23.17,0,0,1,957.83,809.76Z" transform="translate(0 -3.44)"/><path class="cls-1" d="M875.76,205.76c4.07-10.09,10.6-18.37,17.44-25.78a48.77,48.77,0,0,0,1.65,12.85,1.21,1.21,0,0,1-.27,1.18c-.61.88-1.18,1.78-1.75,2.67s-1.05,1.66-1.61,2.47a47.34,47.34,0,0,0-5.68,11.41l-.18.52a29.78,29.78,0,0,0-1.36,4.76Z" transform="translate(0 -3.44)"/><path class="cls-1" d="M369.93,827.23a12.46,12.46,0,0,1-5.1-1.24,47.05,47.05,0,0,1,3.29-8.77,32.66,32.66,0,0,0,2.19-4.81c1.36-4.11,4.75-5.4,9.4-6.76a1.71,1.71,0,0,1,.55-.09,4.44,4.44,0,0,1,2.4,1,11.81,11.81,0,0,1,4.59,7.07c-.3.59-.6,1.19-.91,1.78-1.09,2.15-2.22,4.38-3.43,6.51a3.28,3.28,0,0,1-1.33,1.12c-2.73,1.27-5.66,2.6-8.61,3.66A8.63,8.63,0,0,1,369.93,827.23Z" transform="translate(0 -3.44)"/><path class="cls-1" d="M811.58,770.75a3.36,3.36,0,0,1-.32-.71c-1-2.88-.87-6-.55-8.95a3.13,3.13,0,0,1,.6-1c1.84-2.27,5.2-3.67,8.78-3.67a12.32,12.32,0,0,1,3.41.47,21.25,21.25,0,0,1-3.54,6.25,54.5,54.5,0,0,1-4.74,4.92l-1.51,1.46a6.32,6.32,0,0,1-1.41.9A3.53,3.53,0,0,1,811.58,770.75Z" transform="translate(0 -3.44)"/><path class="cls-1" d="M762.79,794.37a6.84,6.84,0,0,1-1.28-.17c-1.24-.24-1.47-.55-1.49-.58s-.21-.37.09-1.58c.25-1,.57-2.07.9-3.16.16-.51.31-1,.46-1.53.38-1.29.87-1.57,1.69-1.65s1.53-.21,2.24-.34a14.92,14.92,0,0,1,2.52-.33h.34a22.5,22.5,0,0,1,4.85.5,4.16,4.16,0,0,1,3.52,3.43,32.09,32.09,0,0,1-13.56,5.4A1.27,1.27,0,0,1,762.79,794.37Z" transform="translate(0 -3.44)"/><path class="cls-1" d="M929,814.47a5.34,5.34,0,0,1-.69-.05c-4.2-.55-7-2.1-8.85-4.88l-1-1.56a10.09,10.09,0,0,1,4.43-4.08,7.11,7.11,0,0,1,3.53-.87,13.2,13.2,0,0,1,2.8.34,22.51,22.51,0,0,1,2.58,7.39,3.5,3.5,0,0,1-.54,2.84A2.86,2.86,0,0,1,929,814.47Z" transform="translate(0 -3.44)"/><path class="cls-1" d="M107.63,246.35a1.52,1.52,0,0,1-1.24-.69c-2.11-3-3.43-5.21-2.61-8.11a20.73,20.73,0,0,0,.58-3.8c.07-.73.13-1.42.24-2.08s.35-.68.46-.68a1.53,1.53,0,0,1,.48.1,6.79,6.79,0,0,1,3.77,3.18c1.28,2.33,2.43,4.82,2.25,7.23v.17l0,.59c.15,1.53.12,1.84-.22,2.16a6.6,6.6,0,0,1-3.56,1.92Z" transform="translate(0 -3.44)"/><path class="cls-1" d="M460.32,801.86a30.29,30.29,0,0,1-8.12-9.05,10.33,10.33,0,0,1,7.31-3.2,11.46,11.46,0,0,1,1.17.06A61.55,61.55,0,0,1,460.32,801.86Z" transform="translate(0 -3.44)"/><path class="cls-1" d="M746.46,794.87a3.1,3.1,0,0,1-.63,0,2.76,2.76,0,0,1-1.9-.89,2.79,2.79,0,0,1,.34-2.1c.25-.57.54-1.12.83-1.67a27,27,0,0,0,1.21-2.53c.26-.66.63-1,1.89-1.15l.69,0a7.26,7.26,0,0,1,3.61,1,2.49,2.49,0,0,1,1.36,3l-.41,2.52-1,.29c-1.7.53-3.3,1-4.91,1.45A4.73,4.73,0,0,1,746.46,794.87Z" transform="translate(0 -3.44)"/><path class="cls-1" d="M317.14,811.47c-1.17-1-.82-1.7-.25-2.91,1.23-2.6,2.66-5.15,4.05-7.62.43-.77.86-1.53,1.27-2.29.47,0,.86-.06,1.19-.06a3.84,3.84,0,0,1,2.22.58c-.63.77-1.29,1.55-2,2.35C321.12,804.45,318.53,807.47,317.14,811.47Z" transform="translate(0 -3.44)"/><path class="cls-1" d="M979.15,769.71a26.33,26.33,0,0,1-6.81-6.27,11.31,11.31,0,0,1,3.71-3.71l.21.54A47.53,47.53,0,0,1,979.15,769.71Z" transform="translate(0 -3.44)"/><path class="cls-1" d="M274.42,245a13.59,13.59,0,0,1-11.05-5.92c1.86-6.08,5.31-10.33,10.53-13a11.57,11.57,0,0,1,5.2-1.33c4.25,0,7.44,2.71,9.36,5,.6.7.53,1,.35,1.45-.28.69-.55,1.38-.82,2.07a40.58,40.58,0,0,1-1.93,4.42A13.23,13.23,0,0,1,274.42,245Z" transform="translate(0 -3.44)"/></g></g></svg>