<svg xmlns="http://www.w3.org/2000/svg" viewBox="0 0 1149 1089.34"><defs><style>.cls-1{fill:#1c060d;}</style></defs><g id="Layer_2" data-name="Layer 2"><g id="rabbit"><g id="_3" data-name="3"><path class="cls-1" d="M777.24,1093.34c-1.56-.33-3.12-.69-4.68-1-3.73-.84-7.57-1.71-11.44-2.38l-7.45-1.25c-15.94-2.66-32.33-5.39-47.46-11.5-8.5-3.44-14.68-8.25-18.92-14.72-10.51-16.08-20.82-32.15-30.64-47.76S639,982.26,631.3,965.9c-1.74-3.71-3.47-7.4-5.22-11.08-1.06-2.23-2.19-4.44-3.36-6.7A387.91,387.91,0,0,0,667,959.64a4.26,4.26,0,0,0,.78.07,4,4,0,0,0,3.5-5.94,9.24,9.24,0,0,0-6.94-4.91l-.51-.11a281.12,281.12,0,0,1-50.74-17.86,81.26,81.26,0,0,1-9.41-5.38L601.31,924c-1.07-.66-2.12-1.47-3.23-2.31-.9-.69-1.83-1.4-2.83-2.08-16-10.9-29.47-25.27-41.15-43.94-11.56-18.48-19-36.62-22.82-55.44-3.23-16-3.16-29.93.22-42.6A71,71,0,0,1,541,757.11a143.81,143.81,0,0,1,23.71-27.85c18.41-16.71,39.39-31.08,57.61-43.24,8.38-5.59,16.64-11.53,24.62-17.28l.26-.18q4.34-3.13,8.69-6.24a13.49,13.49,0,0,0,2.41-2.33c.2-.23.4-.47.6-.68a4,4,0,0,0,.33-5.13l-.65-.88a4,4,0,0,0-3.22-1.63,3.94,3.94,0,0,0-2.21.67l-4.23,2.8c-2.69,1.8-5.37,3.63-8.05,5.45l-.21.14c-5.83,4-11.86,8.1-18,11.86q-5.41,3.33-10.86,6.62c-16.76,10.17-34.07,20.66-49.81,33.21-15.46,12.31-26.66,23.89-35.26,36.44-12.78,18.65-17.71,39.23-15.08,62.94,4,35.79,18.69,68,45,98.49,7.85,9.09,17.18,16.07,27.68,23.59,3.7,2.66,7.62,5.65,12,9.15a42.35,42.35,0,0,1,12.49,16c1.27,2.86,2.6,5.71,4,8.67-21.88-7-44.39-9.89-67.45-12.47-20.39-2.29-41.14-3.31-61.21-4.3-7.56-.38-15.34-.76-23-1.2-23-1.34-41.69-4.27-58.92-9.22-11.92-3.43-23.26-10.2-35.69-21.3-13.05-11.65-23.15-25.47-32.12-38.68-3.73-5.49-7.57-11.27-11-16.37-5.84-8.82-11.89-17.93-18.12-26.74a191.2,191.2,0,0,0-34.07-36.74,28.08,28.08,0,0,0-8.28-5,4,4,0,0,0-4.36,1.05,4,4,0,0,0-.64,4.45c0,.06.05.13.08.2a6.53,6.53,0,0,0,2,3.1c20.24,15.85,34.05,36.88,44.89,55.37l.89,1.52c8.16,13.92,16.59,28.3,25.5,42.1,13.44,20.8,29.24,36.09,48.17,46.6-1.94.49-3.84,1-5.76,1.67a125.61,125.61,0,0,0-15,6.48,162.4,162.4,0,0,0-14.71,8.11c-4.49,2.83-8.73,6.07-12.82,9.19l-.34.26c-4,3.08-8.09,6.5-12.06,10.18a4,4,0,0,0-.5,5.31l.82,1.12a4,4,0,0,0,4.92,1.24c.24-.11.5-.21.75-.31a12.28,12.28,0,0,0,3.07-1.63c13.75-10.73,30.14-19.08,50.09-25.53a128.69,128.69,0,0,1,29.61-5.57q.46,0,.93,0a34,34,0,0,1,7.12,1.12c1.82.42,3.68.84,5.61,1.1l7.12,1,.4,0c8.05,1.14,16.38,2.31,24.67,2.93,12.31.93,24.82,1.46,36.91,2h.1l10.06.43c32.33,1.47,61.27,4.57,88.48,9.5,8.73,1.58,18.29,3.14,29.23,4.78a3.77,3.77,0,0,1,3.49,2.56,312.4,312.4,0,0,0,14.57,28.2c-9-6.82-19.61-12.58-33.5-18.3a33.55,33.55,0,0,0-5.17-1.51c-.73-.17-1.38-.32-2-.49a3.77,3.77,0,0,0-1-.14,4,4,0,0,0-3.46,2l-.57,1a4,4,0,0,0,1,5.21c.27.2.53.41.78.62a17.39,17.39,0,0,0,2.76,1.94c2,1.09,4,2.12,6,3.12a119.63,119.63,0,0,1,11,6,219.89,219.89,0,0,1,22.11,16c5,4.23,8.66,10.43,10.92,18.42,1,3.49.51,4.39-3,5.63-10.47,3.68-21.86,4.56-32.86,5.42l-.51,0c-1.46.11-3,.17-4.48.17a78.63,78.63,0,0,1-12.51-1.1,20.42,20.42,0,0,0-3.29-23.52l-1.2-1.25c-6.15-6.45-12.48-13.09-19.5-18.86a135.21,135.21,0,0,0-16.73-11.16l-4.25-2.56c-4.34-2.66-9.38-3.89-15.86-3.89-.91,0-1.87,0-2.86.07a4,4,0,0,0-1.75,7.5c.28.15.55.31.82.47a17.76,17.76,0,0,0,2.66,1.39,88.52,88.52,0,0,1,30,19.68l2.88,2.84c5.06,5,10.24,10.07,15.11,15.26,1.6,1.7,2.38,3.31,2.31,4.78s-1,3.08-2.85,4.69a28.67,28.67,0,0,1-14,6.91,67.77,67.77,0,0,1-12.53,1.11,105,105,0,0,1-18.62-1.85c-12.68-2.28-25.48-4.79-37.86-7.21l-11.43-2.23c-14.63-2.84-29.43-3.52-42-3.81-9.36-.22-17.16-.39-25.23-.42-27.53-.09-55.4-2.17-79.36-4.11-3.41-.27-6.83-.4-10.13-.52-4.52-.17-9.19-.34-13.67-.9a265.71,265.71,0,0,1-43.72-8.89,45.58,45.58,0,0,1-21.17-13.89,12.49,12.49,0,0,1-3.05-11.72l.78-3.76c1.62-7.8,3.3-15.85,4.34-23.91,3.66-28.23-2.79-55-19.18-79.59-10-15-23.55-28-42.66-40.93a15.08,15.08,0,0,0-2.65-1.44,4.42,4.42,0,0,0-1.71-.33,6.37,6.37,0,0,0-1.39.17l-1,.17a4,4,0,0,0-1.87,7.12l2,1.53c1.21.94,2.28,1.77,3.36,2.58,25.47,19,41.39,43.53,47.29,72.8a112.54,112.54,0,0,1-.82,47.67c-.75,3.28-1.46,6.57-2.18,9.9l-.4,1.85c-11.26-.58-23.87-1.36-35.55-5.92-17.1-6.68-36.46-14.25-53.73-25-11.19-7-21.52-16.57-32.5-30.24-26.55-33-54.94-65.53-79.47-93.4-10.39-11.79-17-21.64-21.57-31.93-2.26-5.12-4.36-10.7-4.39-16.78a9.27,9.27,0,0,0-1.11-4l-.1-.21v-.66c.05-.12.1-.25.16-.38a11.18,11.18,0,0,0,1.08-4.3c0-5.79,2.31-11.15,6.83-15.93,4.75-5,9.39-7.43,14.21-7.43a15,15,0,0,1,2.57.22,81.08,81.08,0,0,1,17.78,5.59c11.75,5,19.59,15.16,26,24.26a44.33,44.33,0,0,1,7.61,18.79,260.32,260.32,0,0,0,39.5,100.43c14,21.11,29,38.5,46,53.16l.5.46a12.9,12.9,0,0,0,7.54,3.83,4,4,0,0,0,4.11-2,4,4,0,0,0-.53-4.56l-2.05-2.33c-1.14-1.3-2.06-2.34-3-3.37-1.9-2.08-3.83-4.15-5.76-6.21-7-7.53-14.32-15.32-19.94-24.07a410.85,410.85,0,0,1-27.23-49.19,282.22,282.22,0,0,1-25.17-96.43,258.29,258.29,0,0,1,2-61.72l.13-.79c2.4-15,4.88-30.46,9.77-45,14.93-44.27,38-83.41,68.48-116.32,9-9.74,19.27-20.78,31.23-29.35,21.66-15.51,45.13-31.63,70-44.44l1.56-.8c18.65-9.59,37.94-19.51,57.89-26.87,23.3-8.61,49.12-15.51,78.93-21.13,34.53-6.5,62.66-9.53,88.51-9.53,6.83,0,13.63.22,20.19.65,15.44,1,30.87,2.6,45.86,4.75,20.36,2.92,41.14,9.43,65.42,20.5,15.73,7.18,31.6,14.59,46.94,21.77,13.11,6.12,26.66,12.46,40.24,18.69,18.36,8.43,40.48,17,65.31,17a105.14,105.14,0,0,0,12.81-.78c4.24-.52,8.68-.7,13-.87,1.6-.07,3.17-.13,4.73-.21h.43a2.16,2.16,0,0,1,.05.25c0,3,0,6.17.07,8.94a192.59,192.59,0,0,1-.53,22.3c-1,10.08-3,20.32-4.93,30.23-.43,2.22-.85,4.4-1.26,6.58-4,21-4.5,38.53-1.67,55.16,4.78,28.11,13.12,50,26.25,68.94C846.57,721.89,862,735.75,880.18,744c12.63,5.74,26.5,11.08,42.38,11.34,9.38.16,19.36.65,28.82,3.2,12.08,3.26,23.65,8.72,34.83,14l2.9,1.36c13.27,6.25,25.32,11.68,38.4,14.83a98.38,98.38,0,0,0,23.29,3.2,63.19,63.19,0,0,0,9.64-.72c3.22-.49,6.43-1.07,9.58-1.65-1,1.85-1.92,3.75-2.78,5.74a207.3,207.3,0,0,1-64.9,83.23c-4.39,3.35-9.08,6.54-13.61,9.63s-9.15,6.22-13.6,9.59c-14.75,11.19-29.46,22.75-43.68,33.92l-5.12,4c-10.78,8.46-20.33,14.5-30.08,19-12.32,5.71-23.68,8.48-34.72,8.48q-1,0-2,0c-11.67-.36-23.57-1.19-35.07-2-5.84-.4-11.81-.82-17.72-1.17-2-.13-4.05-.27-6.07-.42-4.65-.35-9.45-.71-14.24-.71-1.43,0-2.82,0-4.11.1-8.52.41-17.09,1.36-25.37,2.29-3.06.34-6.08.68-9.11,1a34.33,34.33,0,0,0-4.19.76l-.1,0c-.5.11-1,.23-1.51.33a4,4,0,0,0-3.21,4.13l.08,1.36a4,4,0,0,0,3.18,3.7c.42.08.84.19,1.25.29a19,19,0,0,0,4,.69q12.19.42,24.4.79l12.31.39a46.06,46.06,0,0,0-16.49,18.84c-1.79,3.85-2.55,7.47-.46,12.62,3.51,8.61,9.63,14.68,18.72,18.55l15.5,6.58q10.4,4.4,20.68,8.78c1.9.81,3.82,1.58,5.69,2.33a94.82,94.82,0,0,1,13.27,6.09c12.75,7.59,16.22,14.16,14.85,28.12-.29,3-1.4,4.77-3.71,5.66-1.09-12.81-6.82-22.45-17.07-28.68-3.72-2.27-7.19-4.26-10.62-6.09-6.36-3.4-11.65-6.11-16.64-8.56l-.16-.07a12,12,0,0,0-5.49-1.54,10,10,0,0,0-4.37,1.06,4,4,0,0,0-.3,7l2.84,1.7c1.9,1.13,3.5,2.09,5.11,3.1,2.25,1.41,4.48,2.84,6.71,4.28,4.49,2.89,9.08,5.84,13.77,8.55,5.61,3.25,9.07,8.62,11.22,17.42.66,2.71.61,4.7-.15,5.92s-2.37,2-4.91,2.57a45.54,45.54,0,0,1-9.58,1,55,55,0,0,1-19.37-3.82c1.48-6.57-.91-12.44-3.24-16.93a23.91,23.91,0,0,0-2.47-3.88l-3.41-4.29c-3.7-4.64-7.51-9.44-11.44-14.07-9.52-11.19-22.31-16.4-40.24-16.4-1.39,0-2.84,0-4.31.09a4,4,0,0,0-1.64,7.57,43.28,43.28,0,0,0,8.69,3.17c14.51,3.77,24.66,10,31.93,19.71,1.49,2,3.09,3.89,4.63,5.72,1.35,1.59,2.74,3.24,4,4.91a44.76,44.76,0,0,1,3.67,5.94c1.27,2.35,1.58,4.73-1,8.77-2.07,3.25-5.46,5-9.08,6.84ZM663.18,1058.4c-2,0-3.94-.15-6-.31a20.83,20.83,0,0,0,1.61-7.89l4.55,7,.73,1.15Z" transform="translate(0 -4)"/><path class="cls-1" d="M1052.7,777.59a87.29,87.29,0,0,1-13.43-1.05C1023,774,1008,767.3,996.75,761.7A206.55,206.55,0,0,0,931,741.89c-8.12-1-17.49-2.38-26-5.12a107.74,107.74,0,0,1-53.66-37.35c-18.57-23.78-29.06-51.95-32.09-86.13-1.2-13.53.67-27.35,2.47-40.71l.26-1.94c2.39-17.85,4.9-39,5.32-60.85.48-24.41-6.4-45.18-21-63.48-7.39-9.25-14.76-18.78-21.89-28l-.16-.21c-5.32-6.86-10.81-14-16.28-20.9-16.85-21.38-36.32-46.93-53-74.35-24.17-39.74-47.57-82.73-69.54-127.76-17.45-35.73-28.43-69.92-33.57-104.5-1.3-8.71-2.47-20.18,0-31.68.79-3.66,1.36-4.82,1.59-5.18a22.51,22.51,0,0,1,5.09,1.69c6.52,2.79,12.07,7,18.39,12.4a341.73,341.73,0,0,0,55.2,38.52c22.72,12.84,44.38,26.74,60.71,37.41a423.4,423.4,0,0,1,66.32,53.87,395.75,395.75,0,0,1,67,89.32c11.07,19.95,21.9,40.47,32.38,60.3,5.32,10.06,10.81,20.46,16.28,30.69,4.8,9,9.8,17.88,14.05,25.41A20.64,20.64,0,0,0,951.7,407c.38.42.72.79,1,1.17a4,4,0,0,0,3.08,1.46l.31,0a4,4,0,0,0,3.12-1.94,6.41,6.41,0,0,0,.61-6.29q-3.89-8.22-7.78-16.47l-.4-.86c-5.27-11.15-10.71-22.68-16-34a18.26,18.26,0,0,1-1.73-5.93,584.66,584.66,0,0,1-2.28-62.35c.5-27.47,4.19-56.23,11.28-87.92,12.42-55.55,26.9-99.91,45.57-139.6a295.56,295.56,0,0,1,26.93-46c.25-.36.51-.73.76-1.11.7-1,2.16-3.15,2.79-3.15.86.09,1.58,1.59,2.38,4.85a135.28,135.28,0,0,1,3.79,20.26c.82,9.62,1.24,19.48,1.65,29,.14,3.21.28,6.39.43,9.58a24.27,24.27,0,0,1-.13,3c0,.7-.11,1.39-.14,2.09-.16,3.86-.39,7.79-.62,11.6-.52,8.83-1,17.91-.77,26.91.48,15.67,1.83,31.52,3.14,46.84l.49,5.7a303.55,303.55,0,0,1,0,50.09c-1.44,18.07-5.06,35.79-9,53.86l-.42,2c-5.09,23.59-10.35,48-12.68,72.67a109.15,109.15,0,0,0,9.37,56.18,92.39,92.39,0,0,1-11.65-11.87,9.62,9.62,0,0,0-2.69-2.19,6.08,6.08,0,0,1-.59-.37,4,4,0,0,0-5.36.67l-.83,1a4,4,0,0,0-.19,4.93l1.37,1.9c3.93,5.46,8,11.1,13.26,15.87a402.47,402.47,0,0,0,64,46.93c11.69,7,21.76,16.3,30.76,28.43a37.34,37.34,0,0,1,7.14,16.1,136.76,136.76,0,0,1,2.11,18.38c.33,12.69.9,24.12,4.56,35.67.93,2.93,1.75,6,2.56,8.94.41,1.53.83,3.07,1.26,4.6,4,14.24,7.94,29.58,9.35,45.21,1,10.86,2.08,23.16,6.78,34.78,4.79,11.85,7.61,24.84,8.62,39.7a33.44,33.44,0,0,0,1.45,7c.22.77.43,1.49.61,2.21V701c-.2.76-.41,1.52-.62,2.28-.55,2-1.12,4.14-1.62,6.26-2.81,11.9-6.85,20.75-12.72,27.84-6.42,7.76-15.49,10.06-26.68,12.25a5.08,5.08,0,0,1-1.09.08l-.9,0h-1.09a11.52,11.52,0,0,0-3.75.53,58.12,58.12,0,0,1-18.65,3,75.91,75.91,0,0,1-8.75-.54c-8.87-1.06-17.84-2.49-26.52-3.87l-.28,0c-4-.63-8-1.27-11.94-1.87a9.54,9.54,0,0,0-1.39-.09h-.85c-.43,0-1,0-1.66,0a4,4,0,0,0-2.44,7.17c7.8,6,16,7.72,22.58,9.11a129.25,129.25,0,0,0,22.35,2.74c.74,0,1.48,0,2.23,0,3.71,0,7.44-.27,11.07-.58-5.72,6.49-13,10.28-22,11.56A83.51,83.51,0,0,1,1052.7,777.59Zm28.84-70.31c-5.86,0-8,3.63-8.83,5.8-1.87,5.16.54,10.22,6.29,13.21a128,128,0,0,0,13.29,6.1,15.74,15.74,0,0,1,8.55,7.13,18.93,18.93,0,0,0,1.85,2.86c1.13,1.39,3,3.25,5.72,3.25,2.55,0,4.42-1.65,5.61-2.88a13.69,13.69,0,0,0,1.81-2.38c2.09-3.3,5.51-5.21,8.88-6.79a88.83,88.83,0,0,0,9.07-4.81l.5-.3c1.68-1,4.76-2.85,5.21-6.74l.63-1a6.34,6.34,0,0,0,2.29-3.83,6.92,6.92,0,0,0-1.79-5.53,6.78,6.78,0,0,0-5.38-2.64,9.2,9.2,0,0,0-2.78.47c-4.23,1.32-8.77,2.7-13.39,3.85a28,28,0,0,1-6.87.85,32.21,32.21,0,0,1-9.76-1.59c-4.83-1.54-10.12-2.95-16.64-4.46A19,19,0,0,0,1081.54,707.28ZM961.63,585.38a4,4,0,0,0,2.85,2,3.52,3.52,0,0,0,.64,0,4,4,0,0,0,2.7-1l.29-.24a6.11,6.11,0,0,0,1.93-2.21c4.79-10,7.1-18.27,7.27-26.16.35-17-6.59-30.07-20-37.9a21.27,21.27,0,0,0-11-3.1,25.35,25.35,0,0,0-6,.74,4,4,0,0,0-1.93,6.7c-7,4.52-9.24,12.26-10.43,18.77a41.42,41.42,0,0,0,3.76,26.25c5.17,10.68,13.73,15.87,26.16,15.87,1.07,0,2.17,0,3.29-.11l.28,0ZM681.09,186a4,4,0,0,0-2.63,1,7.07,7.07,0,0,0-2,8.23l0,.1a1.44,1.44,0,0,1,.08.25A367.58,367.58,0,0,0,700,266.8C713,296.35,732.11,325,760.18,357c19.85,22.61,36,43.34,49.28,63.38,10.54,15.86,16.27,33.66,20.08,47.4,2.56,9.19,3,18.91,1.49,29.73-.42,2.93-.61,5.86-.8,8.69v.17c-.08,1.2-.16,2.4-.26,3.59a4,4,0,0,0,3,4.22l1.13.27a4.61,4.61,0,0,0,.91.1,4,4,0,0,0,3.55-2.17c.08-.16.18-.31.27-.46a9.26,9.26,0,0,0,1.29-2.94c7.68-36.6,10.31-69.1,8-99.36l-.14-1.84c-1.36-18.09-2.76-36.8-6.42-55.05C837,329.4,829,305.26,817.26,278.94c-16-35.86-38.74-68.88-69.62-101a436,436,0,0,0-54.47-47.41c-15-11.12-28-21.15-39.6-30.66A129.5,129.5,0,0,1,637.2,83.35a51.64,51.64,0,0,1-5.45-8.56c-.8-1.44-1.6-2.89-2.45-4.3-.52-.87-1-1.76-1.52-2.65l-.66-1.18a4,4,0,0,0-3.49-2,3.79,3.79,0,0,0-1.52.31l-.92.37a4,4,0,0,0-2.4,4.44c0,.18.05.36.08.55a10.67,10.67,0,0,0,.6,2.64A88.6,88.6,0,0,0,643,107c14.58,13,29.67,25.86,44.26,38.32l.95.81q8.67,7.4,17.32,14.82a389.33,389.33,0,0,1,75.28,86.75c25.27,39.87,41.53,82.49,48.32,126.68,1.51,9.81,2.58,20.35,3.26,32.22.46,8,.72,16.21.93,24.24C828.56,420.32,822.15,411,815.92,402c-12.22-17.72-26.38-34.18-40.08-50.09l-4-4.69C758.55,331.8,746,316.1,734.38,300.57c-10.19-13.67-18.09-29.22-25.94-45.29a285.46,285.46,0,0,1-21.87-61.8,22,22,0,0,0-1.14-3.33c-.19-.46-.39-1-.59-1.5a4,4,0,0,0-2.76-2.49A4.19,4.19,0,0,0,681.09,186Z" transform="translate(0 -4)"/><path class="cls-1" d="M1006.69,1044.39a17.64,17.64,0,0,1-2.68-.2c-7.32-1.09-15-2.07-22.9-2.92-2.16-.24-4.32-.31-6.4-.39a60.65,60.65,0,0,1-7.86-.62c-8.94-1.54-16.86-3.22-24.22-5.15l-3.56-.93c-11.53-3-22.41-5.79-31.83-12.81-10.09-7.53-18.31-14-24.71-22.74a75.24,75.24,0,0,0-20-18.6,100,100,0,0,0,25.39-4.37c15.89-4.67,31.48-13.1,47.63-25.78,8.85-6.94,17.86-13.87,26.71-20.66a57.39,57.39,0,0,0-10.19,27.58c-.24,2.62-1,10.62,6.89,15.43l1.1.67a44.81,44.81,0,0,0,9.33,4.78c7.07,2.37,16.41,5.38,25.92,7.72,16.44,4,29.45,8.19,40.93,13.09,20.58,8.77,31.91,19,37.9,34.16a35.36,35.36,0,0,1,1.67,4.74,29.6,29.6,0,0,1-4,2.29c-.35.17-.71.36-1.06.55l-1.18.6a15,15,0,0,0-.87-9.1c-.57-1.45-1.12-3-1.61-4.34-.63-1.77-1.28-3.6-2-5.42a30.8,30.8,0,0,0-16-16.83,95.3,95.3,0,0,0-13.38-4.73c-4.38-1.29-8.83-2.44-13.13-3.56l-.33-.09-5.06-1.32-1.9-.48-1.4-.35a3.91,3.91,0,0,0-1-.12,4,4,0,0,0-3.44,6,28.12,28.12,0,0,0,2,3c-5.36-1.84-10.81-3.5-16.11-5.11l-5-1.53a5.44,5.44,0,0,0-1.63-.23,10.16,10.16,0,0,0-1.91.22c-.45.08-1,.17-1.66.25a4,4,0,0,0-1.47,7.47c.73.4,1.3.73,1.77,1a26.26,26.26,0,0,0,2.41,1.29q2.17,1,4.34,2c3.71,1.71,7.5,3.45,11.4,4.9,10.76,4,15.87,13,19.78,22.13a1.17,1.17,0,0,0,0,.11C1017.79,1041,1012.79,1044.39,1006.69,1044.39Zm35.55-.84a17.23,17.23,0,0,1-5.92-1c2.29-3.73,2.32-8,0-12.37-2.59-4.87-5-9.25-7.6-13.53a31.3,31.3,0,0,0-5-6.24c2.08.68,4.16,1.34,6.19,2,2.66.85,5.27,1.68,7.87,2.55,6.82,2.29,11.38,5.86,14,10.93a56,56,0,0,1,2.45,6c.43,1.2.92,2.54,1.46,3.85.45,1.1.6,2-1.38,3.72C1051.41,1042,1046.8,1043.55,1042.24,1043.55Z" transform="translate(0 -4)"/><path class="cls-1" d="M1108.78,731.31a33.58,33.58,0,0,0-7.84-7.46,43.54,43.54,0,0,0,10.8,1.39,42.46,42.46,0,0,0,7-.59l-.19.11c-3.12,1.82-6,3.85-9,6Z" transform="translate(0 -4)"/></g></g></g></svg>