<svg xmlns="http://www.w3.org/2000/svg" viewBox="0 0 1392.21 799.34"><defs><style>.cls-1{fill:#1c060d;}</style></defs><g id="Layer_2" data-name="Layer 2"><g id="Layer_1-2" data-name="Layer 1"><path class="cls-1" d="M1303.55,799.34A127.69,127.69,0,0,0,1328,783.87c15.34-12.57,25.6-28.18,30.51-46.4a96.3,96.3,0,0,0,2.06-9.61,59.53,59.53,0,0,0,.78-12.89,49.6,49.6,0,0,0-9.81-27.32,65.37,65.37,0,0,0-8.22-9.16c-.33-.32-.67-.63-1-.93-12.67-11.52-27.92-20.16-46.64-26.4a124.15,124.15,0,0,0-32.92-6.2l-2.84-.15c-5.82-.3-11.84-.62-17.77-.62-1.1,0-2.2,0-3.3,0-7.83.16-15.77.84-23.44,1.51l-2.3.2c-6.11.51-12.31,1.14-18.3,1.75l-10.73,1.07-4.92.47c-13.72,1.31-27.9,2.67-41.86,3.94l-4.51.42c-6.67.63-13.57,1.28-20.35,1.51-13.42.46-29.26.93-45,.93h-2.67c-14,0-26.62-.52-38.54-1.42-34.79-2.66-65.66-8.06-94.39-16.53-11.57-3.42-23.22-7.37-34.48-11.18-5.05-1.71-10.11-3.43-15.17-5.1-1.88-.62-3.75-1.27-5.62-1.91-1.71-.59-3.43-1.18-5.14-1.75-.93-.31-1.87-.57-2.78-.82l-1.73-.49-1.51,1.54.33.64a5.51,5.51,0,0,1,.22.54,3.09,3.09,0,0,0,1.14,1.68c1.64,1,3.39,1.82,5.07,2.62l.4.19,13.51,6.46,13.17,6.29a10,10,0,0,1,1,.57l-.93.5-4.48,2.35c-3.16,1.65-6.43,3.35-9.57,5.16-8.8,5.07-18.3,10.11-29.09,11.31a225.43,225.43,0,0,1-23.07,1l-2.57,0h-3.16c-5,0-10.11-.09-15-.18-3.28-.07-6.56-.13-9.84-.16h-1.67a154.42,154.42,0,0,0-40.18,5.44c-19.22,5.19-36.11,9.65-51.64,13.64-1.27.32-2.55.63-3.83.91a159.27,159.27,0,0,1-35.28,3.61q-2.67,0-5.34-.06-2.4-.06-4.8-.06c-4.42,0-8.91.13-13.25.25l-5.11.14q-8.31.19-16.62.46c-5.58.16-11.16.33-16.74.46-10.74.25-21.18,2.35-32.74,4.85l-1.3.29c-2.06.45-4.19.91-6.33,1.27-1.69.28-3.18.46-4.54.56-.41,0-.82,0-1.24,0a37.5,37.5,0,0,1-7.42-1c-.8-.17-1-.4-1.1-.49s0-.75.34-1.46a29.14,29.14,0,0,1,2.09-3.48A26,26,0,0,1,559,679a26.23,26.23,0,0,1,4.15-3.27,63.57,63.57,0,0,1,12.7-6.17c5.42-2,11.14-3.5,16.67-5L595,664c4.51-1.19,9.16-2.21,13.65-3.19q3.32-.72,6.62-1.47a8.46,8.46,0,0,0,3.93-1.83l2.5-2.23-3.31.49-4.22.61c-3.1.43-6.32.88-9.46,1.46-9,1.66-18.3,3.46-27.54,5.35a53.14,53.14,0,0,0-9.71,3,69.2,69.2,0,0,0-6.8,3.29l-.26.14a26.33,26.33,0,0,0-6.12,4.16l-.34.37a14.56,14.56,0,0,1-4.27,3.28,25.47,25.47,0,0,1-8,2.24,62,62,0,0,1-8.92.65,66.64,66.64,0,0,1-19.34-3c-.53-.15-1.05-.32-1.57-.49-1.93-.62-2.87-1.15-3.16-1.76s-.11-1.59.53-3.25a11.8,11.8,0,0,1,3.2-4.38c4-3.42,9-5.77,15.91-7.39a270.86,270.86,0,0,1,41.76-6.14c12.84-1,25.31-2.62,35.81-4.09,11.41-1.61,23-3.38,34.18-5.1,7.33-1.12,14.66-2.25,22-3.33a186.5,186.5,0,0,1,26.23-2.35,32.09,32.09,0,0,0,11-2.51l4.82-1.8c7.25-2.71,14.75-5.52,22.2-8,10.66-3.56,20.85-9.57,31.14-18.39a19.2,19.2,0,0,0,6.61-15.28,59.23,59.23,0,0,0-1.19-12.22c-1-4.64-2.16-9.31-3.29-13.83-1.07-4.28-2.17-8.7-3.12-13.07-3.07-14.09-5.73-29.27-4.39-44.78,1-11.09,3.62-22,6.35-32.12a157.39,157.39,0,0,1,18.65-43,14.87,14.87,0,0,0,.83-1.57c.12-.25.24-.49.37-.73l.36-.71-1.9-1.62-.65.69c-.29.31-.6.6-.91.9a19.16,19.16,0,0,0-2,2.25c-17.16,23.93-26.3,44.22-29.62,65.8-1.61,10.48-2.77,19.24-1.81,28.53a251.72,251.72,0,0,0,6.7,37.4c2.16,8.31,3.93,16.77,5.53,24.68,1.06,5.31-.63,9.68-5.16,13.37-8.08,6.57-17,11.64-25.4,16.14a20.19,20.19,0,0,1-3.68,1.48l-5,1.54c-6.07,1.88-12.34,3.83-18.56,5.55a34.49,34.49,0,0,1-9,1.25c-6.77,0-14-.22-22.72-.66-7.37-.37-14.85-.89-22.26-1.54a136.09,136.09,0,0,1-59.08-19.66,312.37,312.37,0,0,1-43.72-32.29c-6-5.28-12.55-10.63-19.39-15.91a59.62,59.62,0,0,0-9.12-5.43l-.79-.41a27.46,27.46,0,0,0-12.82-3.14h-.83c-.45,0-.89,0-1.37,0h-1.31l.22-.39c.61-1.05,1.15-2,1.72-2.92a105,105,0,0,0,13.84-34.23,119.43,119.43,0,0,0,1.83-34.58c-1-10.65-1.39-21.53-1.8-32.06l-.09-2.31c-.31-7.76-.59-16-.31-24.18.13-3.9.18-7.86.23-11.68.14-10.43.27-21.21,2.07-31.68a2.87,2.87,0,0,0-.86-2.45l-1.15-1.28-.54,1.63-.36,1c-.27.77-.55,1.56-.75,2.37a165.92,165.92,0,0,0-5.4,37.65c-.09,5.6-.35,11.3-.59,16.82-.29,6.65-.6,13.52-.63,20.3,0,7.47.48,15.05,1,22.38l.33,4.9c1.57,24.18-4.76,46.72-18.83,67-2.93,4.22-6.15,8.37-9.26,12.38l-2.55,3.3q-1.53,2-3,4c-3,3.92-6.05,8-9.34,11.7A492.22,492.22,0,0,1,415.63,621c-8.2,7.25-15.47,16-22.89,27.52a17.32,17.32,0,0,0-1.91,15.35c.26.82.55,1.63.86,2.41A47.81,47.81,0,0,0,398.57,678c.21.27.41.55.59.83a13.91,13.91,0,0,1,2.5,7.33,6.89,6.89,0,0,1-.12,1.82c-.18.72-.52,1.34-2.83,1.65a24.86,24.86,0,0,1-3.47.25,20.23,20.23,0,0,1-2.5-.15,14.28,14.28,0,0,1-6.39-2.34l-.35-.24a24.7,24.7,0,0,1-4.85-5.48c-.64-.88-1.31-1.79-2-2.64-.31-.38-.58-.79-.86-1.2l-.08-.11a11.38,11.38,0,0,0-2.21-2.65c-1-.79-1.08-1.33-.38-2.72.57-1.14,1.11-2.3,1.65-3.45l1.07-2.25-2.07-1.44-.59.53-1.4,1.23c-1,.87-2,1.77-3,2.73q-4,3.93-7.94,7.87c-1.75,1.75-3.49,3.5-5.22,5.27a32.7,32.7,0,0,1-5.49,4.54,33.28,33.28,0,0,1-8.17,3.85q-7.47,2.36-15,4.65L322,698.2l-5.39,1.65a10.77,10.77,0,0,1-3.19.52,7.92,7.92,0,0,1-3.49-.78c-2.46-1.18-3.61-3.15-3.06-5.28a5.63,5.63,0,0,1,1.4-2.45,3.5,3.5,0,0,1,.27-.28,18,18,0,0,1,3.12-2.24l.53-.34.45-.28,2.44-1.57,5.85-3.75,6.66-4.27c1.59-1,3.2-2,4.79-3.09a7.39,7.39,0,0,0,2.76-3.44l1-2.46-2.39,1.18-.66.31a12,12,0,0,0-1.59.82c-2.18,1.43-4.37,2.78-6.52,4l-1.11.63-.63.34a104,104,0,0,1-12.83,6l-.25.1a22.93,22.93,0,0,0-2.79,1.28c-.36.19-.73.39-1.08.61a17,17,0,0,0-3,2.14,15.73,15.73,0,0,0-3.31,4.76c-.17.32-.34.67-.52,1-2.26.14-4.06.2-5.76.2a39.09,39.09,0,0,1-13.35-2l-.43-.15a14.31,14.31,0,0,1-1.89-.76,4,4,0,0,1-2.22-2.54,3.35,3.35,0,0,1,1.4-3.21,13.75,13.75,0,0,1,4.92-2.58l.54-.15c2.11-.6,4.29-1.06,6.34-1.49l3-.62c1-.22,2-.46,3-.72a81.58,81.58,0,0,0,16.18-6.08c1.26-.63,2.54-1.31,3.8-2a105.48,105.48,0,0,0,15.39-10.65c1.54-1.26,3.1-2.61,4.77-4.11a24.54,24.54,0,0,0,7-11.68c2.38-7.92,3.69-16.14,4.95-24.09.44-2.73.89-5.56,1.38-8.34a45.59,45.59,0,0,1,6-16.64c1.93-3.09,3.88-6.17,5.82-9.25,2.67-4.22,5.43-8.59,8.09-12.91a55.1,55.1,0,0,0,8.21-23.09c.82-7.63-.88-15.08-5.18-22.76a65.76,65.76,0,0,0-14-17.26c-5.52-4.86-11.18-9.77-16.64-14.51C334,490,327,484,320.23,478c-8.41-7.44-16.78-15.21-24.87-22.72l-.31-.28a50,50,0,0,1-12.44-18.31c-.56-1.42-1.14-2.85-1.71-4.27-1.76-4.35-3.57-8.85-5.12-13.34-6.52-18.93-17.93-35.07-27.14-47-7.24-9.38-16.11-18-27.92-27a60.43,60.43,0,0,0-30.48-11.89,85.57,85.57,0,0,0-9.56-.51,201.34,201.34,0,0,0-23.77,1.89l-2.72.33a114.19,114.19,0,0,1-13.44.83,75.5,75.5,0,0,1-28.6-5.17l-5.82-2.29-.33-.12,2-.53c5.06-1.3,9.83-2.53,14.06-5.44,1.17-.81,2.35-1.61,3.53-2.4a116.63,116.63,0,0,0,12.09-8.94l.51-.45-.85-2.32-.86.21-1.31.3c-.8.18-1.6.36-2.39.57-3.07.81-6.17,1.68-9.17,2.53-6.55,1.85-13.32,3.77-20.08,5.05a95.69,95.69,0,0,1-17.59,1.72A72.47,72.47,0,0,1,55.51,312a51.32,51.32,0,0,1-14.19-9.42,133.57,133.57,0,0,1-15.6-18.28c11.23-5.84,15.38-15.35,12.66-29L37.94,253l-1.35,1.88-.41.54a8.58,8.58,0,0,0-1,1.52c-.71,1.45-1.4,2.91-2.09,4.37s-1.31,2.79-2,4.18c-2.18,4.46-6.16,7-9.76,8.82a4.49,4.49,0,0,1-1.83.62c-.47,0-.95-.23-1.89-1.38-2.19-2.66-4.35-5.33-6.51-8-1.65-2-3.3-4.09-5-6.12-2.06-2.53-4.21-5.64-4.48-9.58a2.77,2.77,0,0,0-.57-1.37L1,248.29v-4.72l.69-1A19.83,19.83,0,0,1,3.58,240c1.15-1.25,2.4-2.47,3.6-3.64.85-.83,1.7-1.67,2.53-2.51a51.12,51.12,0,0,1,12-9.28L24.64,223c4.95-2.71,10.08-5.51,14.9-8.66,42.38-27.7,77.88-54.17,108.51-80.92,10-8.77,21.14-17.82,34.19-24.59a327.33,327.33,0,0,1,43.95-19.17c11.36-3.92,23-7.61,34.29-11.17,5.27-1.67,10.54-3.33,15.79-5,3-1,5.9-1.92,9.12-3l1.52-.5c-7.83,7.79-13.68,17.12-18.56,25.26a65.23,65.23,0,0,0-8.75,24.88,5.7,5.7,0,0,0,.07,1.51,4.81,4.81,0,0,1,.07.53l.22,2.49,1.56-2a11.13,11.13,0,0,0,1.63-3.08c.13-.33.26-.66.4-1,.67-1.49,1.31-3,1.94-4.52a75.5,75.5,0,0,1,5.19-10.75c7.28-11.73,14.78-21,22.92-28.26,10.21-9.14,18.88-16.59,27.27-23.44,14-11.46,30.95-17.28,50.29-17.29,13.57,0,25.07,4.94,35.18,15.09A48.25,48.25,0,0,1,421,83c.19,6.77-1.11,13.71-2.4,19.61-2.7,12.3-7.5,25.21-14.66,39.46-7.58,15.1-17.92,34.76-30.62,53-.78,1.12-1.53,2.27-2.25,3.39l-1.49,2.27,2.22,1.57.6-.58a184.81,184.81,0,0,0,18.68-20.94,268.06,268.06,0,0,0,16.07-23.08,224.19,224.19,0,0,0,13-25.38c2.6-6,4.76-12.19,6.86-18.21.82-2.36,1.64-4.71,2.48-7l.66.25a28.89,28.89,0,0,0,3.28,1.12A74.28,74.28,0,0,0,451.53,111c1.19,0,2.39,0,3.56-.11a227.47,227.47,0,0,0,25.32-2.76c15.71-2.82,31.65-5.91,47.06-8.89q10.15-2,20.31-3.92A214,214,0,0,1,588,91.55c6.83,0,13.91.31,21,.91a258.55,258.55,0,0,1,40.89,6.83,226,226,0,0,1,74.22,33.53c20.08,14,36.37,28.27,49.82,43.76a473.83,473.83,0,0,1,46.95,64.92C845.29,281.83,864,325.88,878,376.19c5.25,18.8,8.92,38.31,12.47,57.17,1.34,7.12,2.73,14.47,4.18,21.69,3.31,16.48,7.17,34.12,12.88,51.53a95,95,0,0,0,24.81,39.49c14.37,13.75,31.66,24,52.84,31.22,14.68,5,34.18,11.19,54.78,14.09,14.72,2.07,30.42,4.21,46.26,5.53,10.13.84,20.48,1.05,30.48,1.25q4.66.09,9.32.21c8.54.22,17.22.38,25.62.53q9.73.18,19.47.39l3.38.08c8,.17,16.16.35,24.22.78,9.5.5,19.61,1.21,30.92,2.19,19.26,1.66,38.15,4.57,52.47,6.91,20.46,3.37,38.53,9.29,55.24,18.11A125.3,125.3,0,0,1,1356.94,640c1,.75,1.88,1.51,2.79,2.3A104.15,104.15,0,0,1,1376,659.6a86.44,86.44,0,0,1,10.86,19.08,76.91,76.91,0,0,1,3.22,9.8,75.37,75.37,0,0,1,1.86,10.15,6.4,6.4,0,0,0,1,2.37l.36.64v9.42c-.13.26-.26.52-.4.77a7.59,7.59,0,0,0-1,2.59c-2.3,18.92-10.59,35.19-25.33,49.73-13.29,13.11-29.88,23.23-50.7,30.93C1311.75,796.58,1307.6,798,1303.55,799.34ZM194.93,206.43c.73.07,1.47.1,2.2.1,5.19,0,10-1.74,14-3.45,10.69-4.53,15.58-15.08,12.45-26.86C219.86,162.13,210.23,155,195,155c-1.48,0-3,.07-4.62.21-8.07.68-14.81,4.93-21.21,13.37l-.14.19c-2.71,3.56-5.27,6.92-8.92,9.45-3.42,2.37-4.76,7.17-3.19,11.42a7.76,7.76,0,0,0,7.08,5.47c4.17.23,8,1.85,12.14,5.1,5.37,4.25,10.89,6.31,16.87,6.31C193.63,206.5,194.29,206.48,194.93,206.43Zm148.37-163c-.78.28-1.51.51-2.18.74a34.79,34.79,0,0,0-3.73,1.39c-13.35,6.13-22.57,14.9-28.21,26.8a106.43,106.43,0,0,0-5.68,14.18c-2.94,9.65-1.66,19.85,3.9,31.18,5,10.25,10.3,20.59,15.41,30.58,3.26,6.38,6.63,13,9.9,19.49a45.66,45.66,0,0,0,7.58,11.16,27,27,0,0,0,9.8,6.4,9.43,9.43,0,0,0,3.46.71,7.16,7.16,0,0,0,5-2,29.75,29.75,0,0,0,5.76-6.84,61.38,61.38,0,0,0,5.16-12c1.63-5.5,5.35-8.71,11.07-9.55,7.5-1.11,13.59-5.07,19.18-12.49a78.51,78.51,0,0,0,10.49-20,3.18,3.18,0,0,0-.36-2.9l-.84-1.41-.87,1.39-.64,1c-.46.77-.9,1.51-1.4,2.2-1,1.37-1.92,2.75-2.87,4.13-2.52,3.63-5.12,7.39-7.95,10.84A41.82,41.82,0,0,1,389,144.2c-.66.53-1.32,1.06-2,1.6-1.41,1.16-3.12,1.53-5.44,1.74-9.92.91-16.27,5.44-19.41,13.86a77.53,77.53,0,0,1-5.28,11.54c-1.59,2.77-2.47,3.14-3.13,3.14-.81,0-2-.61-3.72-2a23.87,23.87,0,0,1-7-9.17c-5.18-11.51-11.45-22.64-17.52-33.41-3.39-6-6.89-12.25-10.16-18.46-4.55-8.65-5.78-17.56-3.65-26.46,4-16.7,13.39-29.2,28.73-38.22.88-.52,1.74-1.07,2.6-1.62l.62-.4a1.45,1.45,0,0,0,.56-.78c.07-.17.18-.42.36-.82l1-2.16Z" transform="translate(-1)"/><path class="cls-1" d="M259.9,67a15.22,15.22,0,0,1,.22-1.93A100.41,100.41,0,0,1,284,18.23,52.43,52.43,0,0,1,315.24.88,5.12,5.12,0,0,0,316.93.2l.37-.2h15.51l.75.33a10.07,10.07,0,0,0,2.35.83A57.49,57.49,0,0,1,351.52,7c6.17,3.18,10.63,8.38,14.36,16.75l-2,.31c-2.22.35-4.33.67-6.43,1-16,2.87-28.83,8.42-39.32,17-1.6,1.31-3.19,2.64-4.78,4-2,1.64-4,3.34-6,5a22.35,22.35,0,0,1-4.49,3c-6.92,3.21-15.18,6.74-24,8.63-3.54.76-7.11,1.68-10.55,2.57-2,.52-4,1-6,1.53a20.09,20.09,0,0,1-2.34.38l-.15,0Z" transform="translate(-1)"/><path class="cls-1" d="M208.67,521.37h-.35c-2.57-.15-4-1.14-3.79-5.69.5-9.63,1.13-18.5,1.94-27.13.32-3.47.93-7,1.52-10.42.27-1.58.54-3.16.79-4.74l.14-.91-2.38-.58-.37.68c-5.79,10.71-8,22.3-9.62,34.24a13.67,13.67,0,0,1,0-3.62l.05-.59c.18-2.47.35-5,.53-7.42.76-10.93,1.55-22.24,3-33.27,1.3-10.14,6.65-18.25,15.9-24.1,5.05-3.2,10.8-4.59,16.35-5.94,9.05-2.19,20.67-5.77,30.4-14.07a.91.91,0,0,1,.3-.15c1.58,3.71,3,7.54,4.36,11.25,3.38,9.16,6.86,18.62,13,26.77a45.06,45.06,0,0,1-8.2,8.9A47,47,0,0,0,262,477.64a31.29,31.29,0,0,1-4.2,6,3.84,3.84,0,0,1-2.7,1.52c-1.08,0-2.1-.8-2.89-2.24a7.66,7.66,0,0,1-.84-3.18c-.31-5.46.35-9.79,2.06-13.64a17.8,17.8,0,0,0,.69-2c.09-.29.17-.57.27-.85l.72-2.17L253,462c-5,2.27-10.08,5-12.23,10.63a164.69,164.69,0,0,0-5.23,17.08c-.77,3-1.4,6-2,9-.57,2.76-1.16,5.61-1.87,8.38a11.69,11.69,0,0,1-5.53,7,2.75,2.75,0,0,1-1.41.49h0c-.23,0-.93,0-1.56-1.29a6.42,6.42,0,0,1-.48-2.81c.07-3.47.21-7.05.43-10.94.53-9.1,1.22-17.26,4.34-24.93a4.34,4.34,0,0,0,.23-1.66c0-.27,0-.58,0-.93l.2-2.92-2,2.19c-5,5.71-8.93,15.21-9.46,23.11-.48,7.33-1.1,14.66-1.69,21.5A6.31,6.31,0,0,1,208.67,521.37Z" transform="translate(-1)"/><path class="cls-1" d="M525.09,654.61a.78.78,0,0,1-.24,0,20.88,20.88,0,0,1,8.39-5.39l3.25-1.08a148.69,148.69,0,0,1,15.86-4.65,373.91,373.91,0,0,1,60.54-8c4.19-.2,8-.29,11.58-.29,5.57,0,10.65.23,15.53.69,3.61.34,7.27.85,10.81,1.34l.39.06-6.85.83c-2.29.27-4.58.51-6.87.75-4.92.53-10,1.07-15,1.92-13.53,2.31-26,4-38.21,5-7.47.65-15.94,1.39-24.16,2.65-7.81,1.19-15.71,2.64-23.35,4-3.41.62-6.82,1.25-10.23,1.85l-.62.14A3.65,3.65,0,0,1,525.09,654.61Z" transform="translate(-1)"/><path class="cls-1" d="M285.18,676.76c-1.53,0-1.77-.68-1.81-1.34a4,4,0,0,1,.19-1.33c.65-2.35,1.8-3.81,3.52-4.48l1.27-.49a104,104,0,0,1,10.73-3.74l7.05-1.87a160.39,160.39,0,0,0,16.49-5.13,80.74,80.74,0,0,0,8.17-3.64c-.26.23-.53.46-.81.68-1.12.91-2.26,1.78-3.51,2.69a101.53,101.53,0,0,1-15.58,9.25c-1.43.69-2.91,1.37-4.54,2.09a169.61,169.61,0,0,1-17.29,6.37h0l-.74.24-1.63.5a4.26,4.26,0,0,1-.93.18l-.58,0Z" transform="translate(-1)"/></g></g></svg>